G04 #@! TF.FileFunction,Copper,L1,Top,Signal*
%FSLAX46Y46*%
G04 Gerber Fmt 4.6, Leading zero omitted, Abs format (unit mm)*
G04 Created by KiCad (PCBNEW 4.0.6) date 06/21/17 15:37:43*
%MOMM*%
%LPD*%
G01*
G04 APERTURE LIST*
%ADD10C,0.100000*%
%ADD11C,1.501140*%
%ADD12C,2.999740*%
%ADD13R,2.997200X2.997200*%
%ADD14R,1.800000X1.800000*%
%ADD15C,1.800000*%
%ADD16R,1.200000X1.200000*%
%ADD17C,1.200000*%
%ADD18R,1.300480X1.498600*%
%ADD19R,1.699260X2.100580*%
%ADD20R,1.198880X1.198880*%
%ADD21O,4.000500X1.998980*%
%ADD22O,1.998980X4.000500*%
%ADD23O,1.998980X4.500880*%
%ADD24C,2.500000*%
%ADD25R,1.524000X1.998980*%
%ADD26O,1.524000X1.998980*%
%ADD27R,0.599440X1.000760*%
%ADD28R,1.498600X1.300480*%
%ADD29C,2.499360*%
%ADD30C,2.748280*%
%ADD31O,1.501140X2.199640*%
%ADD32R,1.998980X0.599440*%
%ADD33C,1.524000*%
%ADD34R,5.499100X1.998980*%
%ADD35O,0.500000X0.500000*%
%ADD36R,2.000000X2.000000*%
%ADD37R,1.998980X1.524000*%
%ADD38O,1.998980X1.524000*%
%ADD39C,0.600000*%
%ADD40C,0.400000*%
%ADD41C,0.250000*%
%ADD42C,0.254000*%
G04 APERTURE END LIST*
D10*
D11*
X22200000Y-72050000D03*
D12*
X49580800Y-33020000D03*
D13*
X70078600Y-33020000D03*
D14*
X29932000Y-42164000D03*
D15*
X24932000Y-42164000D03*
D16*
X55638000Y-71628000D03*
D17*
X57138000Y-71628000D03*
D18*
X31686500Y-59182000D03*
X29781500Y-59182000D03*
X24193500Y-59182000D03*
X26098500Y-59182000D03*
D14*
X38608000Y-47724000D03*
D15*
X38608000Y-44224000D03*
D18*
X68389500Y-49530000D03*
X70294500Y-49530000D03*
X102552500Y-25400000D03*
X100647500Y-25400000D03*
D19*
X36576000Y-37797740D03*
X36576000Y-34338260D03*
D20*
X27178000Y-65565020D03*
X27178000Y-63466980D03*
X86901020Y-57912000D03*
X84802980Y-57912000D03*
X86901020Y-47752000D03*
X84802980Y-47752000D03*
D21*
X31186120Y-34002980D03*
D22*
X27934920Y-28702000D03*
D23*
X33936940Y-28702000D03*
D24*
X83098000Y-69088000D03*
X88098000Y-69088000D03*
D25*
X95758000Y-59176920D03*
D26*
X95758000Y-56139080D03*
X98298000Y-59176920D03*
X98298000Y-56139080D03*
X100838000Y-59176920D03*
X100838000Y-56139080D03*
D27*
X75501500Y-54142640D03*
X76454000Y-52029360D03*
X77406500Y-54142640D03*
D28*
X24130000Y-65468500D03*
X24130000Y-63563500D03*
X70358000Y-53657500D03*
X70358000Y-55562500D03*
D18*
X76390500Y-49784000D03*
X74485500Y-49784000D03*
D28*
X72898000Y-53657500D03*
X72898000Y-55562500D03*
D18*
X75501500Y-56388000D03*
X77406500Y-56388000D03*
X89471500Y-57912000D03*
X91376500Y-57912000D03*
X89471500Y-47752000D03*
X91376500Y-47752000D03*
X82740500Y-61976000D03*
X80835500Y-61976000D03*
X86550500Y-61976000D03*
X84645500Y-61976000D03*
X90360500Y-61976000D03*
X88455500Y-61976000D03*
D29*
X31750000Y-54610000D03*
X27940000Y-54610000D03*
X24130000Y-54610000D03*
D30*
X27940000Y-51061620D03*
D31*
X75438000Y-59690000D03*
X72898000Y-59690000D03*
X70358000Y-59690000D03*
X67818000Y-59690000D03*
X65278000Y-59690000D03*
X62738000Y-59690000D03*
X60198000Y-59690000D03*
X57658000Y-59690000D03*
X55118000Y-59690000D03*
X52578000Y-59690000D03*
X50038000Y-59690000D03*
X47498000Y-59690000D03*
X44958000Y-59690000D03*
X42418000Y-59690000D03*
X42418000Y-67310000D03*
X44958000Y-67310000D03*
X47498000Y-67310000D03*
X50038000Y-67310000D03*
X52578000Y-67310000D03*
X55118000Y-67310000D03*
X57658000Y-67310000D03*
X60198000Y-67310000D03*
X62738000Y-67310000D03*
X65278000Y-67310000D03*
X67818000Y-67310000D03*
X70358000Y-67310000D03*
X72898000Y-67310000D03*
X75438000Y-67310000D03*
D32*
X72136000Y-47371000D03*
X72136000Y-46101000D03*
X72136000Y-44831000D03*
X72136000Y-43561000D03*
X66548000Y-43561000D03*
X66548000Y-44831000D03*
X66548000Y-46101000D03*
X66548000Y-47371000D03*
D33*
X95036000Y-64610000D03*
X97536000Y-64610000D03*
X100036000Y-64610000D03*
X95036000Y-70010000D03*
X97536000Y-70010000D03*
X100036000Y-70010000D03*
D32*
X83058000Y-50673000D03*
X83058000Y-51943000D03*
X83058000Y-53213000D03*
X83058000Y-54483000D03*
X88646000Y-54483000D03*
X88646000Y-53213000D03*
X88646000Y-51943000D03*
X88646000Y-50673000D03*
D34*
X59359800Y-53086000D03*
X49860200Y-53086000D03*
D35*
X74808000Y-47086000D03*
X74808000Y-46386000D03*
D36*
X81278000Y-46736000D03*
D11*
X22200000Y-22200000D03*
X107720000Y-22200000D03*
X107720000Y-72050000D03*
D28*
X72898000Y-71183500D03*
X72898000Y-73088500D03*
X75438000Y-71183500D03*
X75438000Y-73088500D03*
D37*
X108648920Y-25535000D03*
D38*
X105611080Y-25535000D03*
X108648920Y-28075000D03*
X105611080Y-28075000D03*
X108648920Y-30615000D03*
X105611080Y-30615000D03*
X108648920Y-33155000D03*
X105611080Y-33155000D03*
X108648920Y-35695000D03*
X105611080Y-35695000D03*
X108648920Y-38235000D03*
X105611080Y-38235000D03*
X108648920Y-40775000D03*
X105611080Y-40775000D03*
X108648920Y-43315000D03*
X105611080Y-43315000D03*
X108648920Y-45855000D03*
X105611080Y-45855000D03*
X108648920Y-48395000D03*
X105611080Y-48395000D03*
X108648920Y-50935000D03*
X105611080Y-50935000D03*
X108648920Y-53475000D03*
X105611080Y-53475000D03*
X108648920Y-56015000D03*
X105611080Y-56015000D03*
X108648920Y-58555000D03*
X105611080Y-58555000D03*
X108648920Y-61095000D03*
X105611080Y-61095000D03*
X108648920Y-63635000D03*
X105611080Y-63635000D03*
X108648920Y-66175000D03*
X105611080Y-66175000D03*
X108648920Y-68715000D03*
X105611080Y-68715000D03*
D39*
X90932000Y-59944000D03*
X67564000Y-54864000D03*
X88519000Y-55626000D03*
X61341000Y-50927000D03*
X79375000Y-54102000D03*
X49657000Y-41402000D03*
X49657000Y-21844000D03*
X55626000Y-41402000D03*
X74930000Y-43053000D03*
X74930000Y-33147000D03*
X45085000Y-48387000D03*
X52451000Y-48260000D03*
X52705000Y-33401000D03*
X90805000Y-44577000D03*
X90678000Y-50673000D03*
X67056000Y-20574000D03*
X68834000Y-46990000D03*
X62484000Y-49530000D03*
X57150000Y-55880000D03*
X50292000Y-55118000D03*
X74295000Y-57658000D03*
X83058000Y-58674000D03*
X86614000Y-54356000D03*
X84963000Y-59690000D03*
X86614000Y-55499000D03*
X87376000Y-64516000D03*
X98679000Y-61214000D03*
X102997000Y-61214000D03*
X103251000Y-67437000D03*
X100584000Y-61976000D03*
X92329000Y-61214000D03*
X42926000Y-27432000D03*
X41021000Y-28448000D03*
X102997000Y-32004000D03*
X61849000Y-30226000D03*
X63373000Y-53213000D03*
X79375000Y-43053000D03*
X79375000Y-34290000D03*
X79375000Y-48768000D03*
X66802000Y-55499000D03*
X97663000Y-32893000D03*
X79629000Y-65151000D03*
X83312000Y-42926000D03*
X83693000Y-36449000D03*
X83312000Y-48768000D03*
X67818000Y-52705000D03*
X78232000Y-43053000D03*
X78486000Y-35687000D03*
X78232000Y-48641000D03*
X92964000Y-47752000D03*
X94488000Y-48768000D03*
X94615000Y-45720000D03*
X92329000Y-45720000D03*
X62992000Y-46863000D03*
X47879000Y-47371000D03*
X46863000Y-40513000D03*
X93726000Y-40894000D03*
X94107000Y-49911000D03*
X98806000Y-63119000D03*
X102489000Y-66294000D03*
X102235000Y-71501000D03*
X77343000Y-72009000D03*
X71247000Y-72009000D03*
X44577000Y-72263000D03*
X68834000Y-53594000D03*
X74295000Y-54610000D03*
X76390500Y-51054000D03*
X81280000Y-51943000D03*
X77343000Y-70993000D03*
X71120000Y-70993000D03*
X58928000Y-72136000D03*
X54356000Y-72136000D03*
X47244000Y-72009000D03*
X59309000Y-71374000D03*
X71628000Y-70104000D03*
X77343000Y-69977000D03*
X93599000Y-65913000D03*
X93345000Y-70485000D03*
X63754000Y-47752000D03*
X65405000Y-48641000D03*
D40*
X90360500Y-61976000D02*
X90360500Y-60515500D01*
X90360500Y-60515500D02*
X90932000Y-59944000D01*
X105860000Y-68715000D02*
X102624000Y-68715000D01*
X90360500Y-65087500D02*
X90360500Y-61976000D01*
X92964000Y-67691000D02*
X90360500Y-65087500D01*
X101600000Y-67691000D02*
X92964000Y-67691000D01*
X102624000Y-68715000D02*
X101600000Y-67691000D01*
X108400000Y-68715000D02*
X105860000Y-68715000D01*
X63627000Y-50927000D02*
X61341000Y-50927000D01*
X67564000Y-54864000D02*
X63627000Y-50927000D01*
X88646000Y-55499000D02*
X88646000Y-54483000D01*
X88519000Y-55626000D02*
X88646000Y-55499000D01*
X100838000Y-56388000D02*
X100838000Y-55499000D01*
X100838000Y-55499000D02*
X98425000Y-53086000D01*
X90551000Y-54483000D02*
X88646000Y-54483000D01*
X91948000Y-53086000D02*
X90551000Y-54483000D01*
X98425000Y-53086000D02*
X91948000Y-53086000D01*
X79334360Y-54142640D02*
X77406500Y-54142640D01*
X79375000Y-54102000D02*
X79334360Y-54142640D01*
X49657000Y-41402000D02*
X49580800Y-41402000D01*
X100647500Y-25400000D02*
X98806000Y-25400000D01*
X95250000Y-21844000D02*
X49657000Y-21844000D01*
X98806000Y-25400000D02*
X95250000Y-21844000D01*
X49580800Y-41402000D02*
X49530000Y-41402000D01*
X72136000Y-43561000D02*
X72136000Y-42672000D01*
X72136000Y-42672000D02*
X70866000Y-41402000D01*
X70866000Y-41402000D02*
X55626000Y-41402000D01*
X41430000Y-41402000D02*
X38608000Y-44224000D01*
X55626000Y-41402000D02*
X49530000Y-41402000D01*
X49530000Y-41402000D02*
X41430000Y-41402000D01*
X70294500Y-49530000D02*
X70294500Y-44259500D01*
X70993000Y-43561000D02*
X72136000Y-43561000D01*
X70294500Y-44259500D02*
X70993000Y-43561000D01*
X60198000Y-67310000D02*
X57658000Y-67310000D01*
X57138000Y-71628000D02*
X57658000Y-71108000D01*
X57658000Y-71108000D02*
X57658000Y-67310000D01*
X27940000Y-54610000D02*
X27940000Y-56388000D01*
X29781500Y-58229500D02*
X29781500Y-59182000D01*
X27940000Y-56388000D02*
X29781500Y-58229500D01*
X27178000Y-63466980D02*
X27178000Y-61976000D01*
X26098500Y-60896500D02*
X26098500Y-59182000D01*
X27178000Y-61976000D02*
X26098500Y-60896500D01*
X29781500Y-59182000D02*
X26098500Y-59182000D01*
X27940000Y-54610000D02*
X24932000Y-51602000D01*
X24932000Y-51602000D02*
X24932000Y-42164000D01*
X31186120Y-34002980D02*
X27934920Y-34002980D01*
X27940000Y-34036000D02*
X27934920Y-34036000D01*
X27940000Y-34008060D02*
X27940000Y-34036000D01*
X27934920Y-34002980D02*
X27940000Y-34008060D01*
X27934920Y-28702000D02*
X27934920Y-34036000D01*
X27934920Y-34036000D02*
X27934920Y-36073080D01*
X24932000Y-39076000D02*
X24932000Y-42164000D01*
X27934920Y-36073080D02*
X24932000Y-39076000D01*
X72136000Y-44831000D02*
X74422000Y-44831000D01*
X74422000Y-44831000D02*
X74930000Y-44323000D01*
X74930000Y-44323000D02*
X74930000Y-43053000D01*
X70078600Y-33020000D02*
X74803000Y-33020000D01*
X74930000Y-44323000D02*
X74422000Y-44831000D01*
X74803000Y-33020000D02*
X74930000Y-33147000D01*
X70078600Y-33020000D02*
X53086000Y-33020000D01*
X45212000Y-48260000D02*
X45085000Y-48387000D01*
X52451000Y-48260000D02*
X45212000Y-48260000D01*
X53086000Y-33020000D02*
X52705000Y-33401000D01*
X31750000Y-54610000D02*
X31750000Y-59118500D01*
X31750000Y-59118500D02*
X31686500Y-59182000D01*
X31750000Y-54610000D02*
X31750000Y-47244000D01*
X29932000Y-45426000D02*
X29932000Y-42164000D01*
X31750000Y-47244000D02*
X29932000Y-45426000D01*
X36576000Y-37797740D02*
X32052260Y-37797740D01*
X29932000Y-39918000D02*
X29932000Y-42164000D01*
X32052260Y-37797740D02*
X29932000Y-39918000D01*
D41*
X55638000Y-71628000D02*
X55118000Y-71108000D01*
X55118000Y-71108000D02*
X55118000Y-67310000D01*
D40*
X91376500Y-45148500D02*
X91376500Y-47752000D01*
X90805000Y-44577000D02*
X91376500Y-45148500D01*
X80835500Y-61976000D02*
X80835500Y-59499500D01*
X91376500Y-57086500D02*
X91376500Y-57912000D01*
X90805000Y-56515000D02*
X91376500Y-57086500D01*
X83820000Y-56515000D02*
X90805000Y-56515000D01*
X80835500Y-59499500D02*
X83820000Y-56515000D01*
X95758000Y-56388000D02*
X94742000Y-56388000D01*
X93218000Y-57912000D02*
X91376500Y-57912000D01*
X94742000Y-56388000D02*
X93218000Y-57912000D01*
X72898000Y-73088500D02*
X70675500Y-73088500D01*
X28321000Y-73533000D02*
X21590000Y-66802000D01*
X70231000Y-73533000D02*
X28321000Y-73533000D01*
X70675500Y-73088500D02*
X70231000Y-73533000D01*
X91376500Y-47752000D02*
X91376500Y-49974500D01*
X91376500Y-49974500D02*
X90678000Y-50673000D01*
X90678000Y-50673000D02*
X88646000Y-50673000D01*
X74485500Y-49784000D02*
X73279000Y-49784000D01*
X68389500Y-50990500D02*
X68389500Y-49530000D01*
X69088000Y-51689000D02*
X68389500Y-50990500D01*
X71374000Y-51689000D02*
X69088000Y-51689000D01*
X73279000Y-49784000D02*
X71374000Y-51689000D01*
X67056000Y-20574000D02*
X100203000Y-20574000D01*
X102552500Y-22923500D02*
X102552500Y-25400000D01*
X100203000Y-20574000D02*
X102552500Y-22923500D01*
X68453000Y-47371000D02*
X66548000Y-47371000D01*
X68834000Y-46990000D02*
X68453000Y-47371000D01*
X105860000Y-25535000D02*
X102687500Y-25535000D01*
X102687500Y-25535000D02*
X102552500Y-25400000D01*
X108400000Y-25535000D02*
X105860000Y-25535000D01*
X66548000Y-47371000D02*
X68199000Y-47371000D01*
X68199000Y-47371000D02*
X68389500Y-47561500D01*
X68389500Y-47561500D02*
X68389500Y-49530000D01*
X68389500Y-49530000D02*
X62484000Y-49530000D01*
X62484000Y-49530000D02*
X43688000Y-49530000D01*
X43688000Y-49530000D02*
X41882000Y-47724000D01*
X41882000Y-47724000D02*
X38608000Y-47724000D01*
X22796500Y-63563500D02*
X24130000Y-63563500D01*
X21590000Y-66802000D02*
X21590000Y-64770000D01*
X21590000Y-64770000D02*
X22796500Y-63563500D01*
X75438000Y-73088500D02*
X72898000Y-73088500D01*
X24130000Y-54610000D02*
X24130000Y-59118500D01*
X24130000Y-59118500D02*
X24193500Y-59182000D01*
X24130000Y-63563500D02*
X24130000Y-59245500D01*
X24130000Y-59245500D02*
X24193500Y-59182000D01*
D41*
X59359800Y-53086000D02*
X59359800Y-54940200D01*
X55118000Y-57404000D02*
X55118000Y-59690000D01*
X56642000Y-55880000D02*
X55118000Y-57404000D01*
X58420000Y-55880000D02*
X57150000Y-55880000D01*
X57150000Y-55880000D02*
X56642000Y-55880000D01*
X59359800Y-54940200D02*
X58420000Y-55880000D01*
X49860200Y-53086000D02*
X49860200Y-54686200D01*
X52578000Y-57404000D02*
X52578000Y-59690000D01*
X49860200Y-54686200D02*
X50292000Y-55118000D01*
X50292000Y-55118000D02*
X52578000Y-57404000D01*
X72136000Y-47371000D02*
X74523000Y-47371000D01*
X74523000Y-47371000D02*
X74808000Y-47086000D01*
X72136000Y-46101000D02*
X74523000Y-46101000D01*
X74523000Y-46101000D02*
X74808000Y-46386000D01*
D40*
X33936940Y-28702000D02*
X35560000Y-28702000D01*
X36576000Y-29718000D02*
X36576000Y-34338260D01*
X35560000Y-28702000D02*
X36576000Y-29718000D01*
D41*
X24130000Y-65468500D02*
X27081480Y-65468500D01*
X27081480Y-65468500D02*
X27178000Y-65565020D01*
X89471500Y-57912000D02*
X86901020Y-57912000D01*
X84802980Y-57912000D02*
X83820000Y-57912000D01*
X83820000Y-57912000D02*
X83058000Y-58674000D01*
X75501500Y-56388000D02*
X75057000Y-56388000D01*
X75057000Y-56388000D02*
X74295000Y-57150000D01*
X74295000Y-57150000D02*
X74295000Y-57658000D01*
X74295000Y-57658000D02*
X74295000Y-60960000D01*
X74295000Y-60960000D02*
X73279000Y-61976000D01*
X73279000Y-61976000D02*
X70993000Y-61976000D01*
X70993000Y-61976000D02*
X70358000Y-61341000D01*
X70358000Y-61341000D02*
X70358000Y-59690000D01*
X70358000Y-59690000D02*
X70358000Y-55562500D01*
X89471500Y-47752000D02*
X86901020Y-47752000D01*
X83058000Y-50673000D02*
X80010000Y-50673000D01*
X74358500Y-53657500D02*
X72898000Y-53657500D01*
X75057000Y-52959000D02*
X74358500Y-53657500D01*
X77724000Y-52959000D02*
X75057000Y-52959000D01*
X80010000Y-50673000D02*
X77724000Y-52959000D01*
X83058000Y-50673000D02*
X84328000Y-50673000D01*
X84802980Y-50198020D02*
X84802980Y-47752000D01*
X84328000Y-50673000D02*
X84802980Y-50198020D01*
D40*
X84645500Y-61976000D02*
X84645500Y-60007500D01*
X87122000Y-53213000D02*
X88646000Y-53213000D01*
X86614000Y-53721000D02*
X87122000Y-53213000D01*
X86614000Y-54356000D02*
X86614000Y-53721000D01*
X84645500Y-60007500D02*
X84963000Y-59690000D01*
X83098000Y-69088000D02*
X83098000Y-66000000D01*
X84645500Y-64452500D02*
X84645500Y-61976000D01*
X83098000Y-66000000D02*
X84645500Y-64452500D01*
X84645500Y-61976000D02*
X82740500Y-61976000D01*
X84963000Y-54356000D02*
X86106000Y-55499000D01*
X86106000Y-55499000D02*
X86614000Y-55499000D01*
X88646000Y-51943000D02*
X86360000Y-51943000D01*
X84963000Y-53340000D02*
X84963000Y-54356000D01*
X86360000Y-51943000D02*
X84963000Y-53340000D01*
X88098000Y-69088000D02*
X88098000Y-65238000D01*
X86550500Y-63690500D02*
X86550500Y-61976000D01*
X88098000Y-65238000D02*
X87376000Y-64516000D01*
X87376000Y-64516000D02*
X86550500Y-63690500D01*
X88455500Y-61976000D02*
X86550500Y-61976000D01*
D41*
X102997000Y-61214000D02*
X98679000Y-61214000D01*
X107265000Y-67310000D02*
X108400000Y-66175000D01*
X103378000Y-67310000D02*
X107265000Y-67310000D01*
X103251000Y-67437000D02*
X103378000Y-67310000D01*
X100457000Y-62103000D02*
X100584000Y-61976000D01*
X93218000Y-62103000D02*
X100457000Y-62103000D01*
X92329000Y-61214000D02*
X93218000Y-62103000D01*
X107249000Y-26924000D02*
X108400000Y-28075000D01*
X104267000Y-26924000D02*
X107249000Y-26924000D01*
X104140000Y-27051000D02*
X104267000Y-26924000D01*
X43307000Y-27051000D02*
X104140000Y-27051000D01*
X42926000Y-27432000D02*
X43307000Y-27051000D01*
X105860000Y-28075000D02*
X41394000Y-28075000D01*
X41394000Y-28075000D02*
X41021000Y-28448000D01*
X107138000Y-31877000D02*
X108400000Y-30615000D01*
X103124000Y-31877000D02*
X107138000Y-31877000D01*
X102997000Y-32004000D02*
X103124000Y-31877000D01*
X65278000Y-67310000D02*
X65278000Y-63119000D01*
X62238000Y-30615000D02*
X105860000Y-30615000D01*
X61849000Y-30226000D02*
X62238000Y-30615000D01*
X64008000Y-53848000D02*
X63373000Y-53213000D01*
X64008000Y-61849000D02*
X64008000Y-53848000D01*
X65278000Y-63119000D02*
X64008000Y-61849000D01*
X79375000Y-48768000D02*
X79375000Y-43053000D01*
X108400000Y-33155000D02*
X107138000Y-34417000D01*
X107138000Y-34417000D02*
X79375000Y-34417000D01*
X67818000Y-67310000D02*
X67818000Y-63627000D01*
X66802000Y-57023000D02*
X66802000Y-55499000D01*
X66548000Y-57277000D02*
X66802000Y-57023000D01*
X66548000Y-62357000D02*
X66548000Y-57277000D01*
X67818000Y-63627000D02*
X66548000Y-62357000D01*
X70358000Y-67310000D02*
X70358000Y-65405000D01*
X97925000Y-33155000D02*
X105860000Y-33155000D01*
X97663000Y-32893000D02*
X97925000Y-33155000D01*
X77851000Y-63373000D02*
X79629000Y-65151000D01*
X72390000Y-63373000D02*
X77851000Y-63373000D01*
X70358000Y-65405000D02*
X72390000Y-63373000D01*
X83312000Y-48768000D02*
X83312000Y-42926000D01*
X67818000Y-59690000D02*
X67818000Y-56769000D01*
X107138000Y-36957000D02*
X108400000Y-35695000D01*
X104013000Y-36957000D02*
X107138000Y-36957000D01*
X103505000Y-36449000D02*
X104013000Y-36957000D01*
X83693000Y-36449000D02*
X103505000Y-36449000D01*
X67818000Y-53975000D02*
X67818000Y-52705000D01*
X68707000Y-54864000D02*
X67818000Y-53975000D01*
X68707000Y-55880000D02*
X68707000Y-54864000D01*
X67818000Y-56769000D02*
X68707000Y-55880000D01*
X78232000Y-48641000D02*
X78232000Y-43053000D01*
X78486000Y-35687000D02*
X105852000Y-35687000D01*
X105852000Y-35687000D02*
X105860000Y-35695000D01*
X107122000Y-47117000D02*
X108400000Y-48395000D01*
X93599000Y-47117000D02*
X107122000Y-47117000D01*
X92964000Y-47752000D02*
X93599000Y-47117000D01*
X94861000Y-48395000D02*
X105860000Y-48395000D01*
X94488000Y-48768000D02*
X94861000Y-48395000D01*
X92329000Y-45720000D02*
X94615000Y-45720000D01*
X62484000Y-47371000D02*
X62992000Y-46863000D01*
X47879000Y-47371000D02*
X62484000Y-47371000D01*
X46863000Y-40513000D02*
X93345000Y-40513000D01*
X93345000Y-40513000D02*
X93726000Y-40894000D01*
X94107000Y-49911000D02*
X94361000Y-49657000D01*
X94361000Y-49657000D02*
X107122000Y-49657000D01*
X107122000Y-49657000D02*
X108400000Y-50935000D01*
X100036000Y-64610000D02*
X103599000Y-64610000D01*
X107138000Y-64897000D02*
X108400000Y-63635000D01*
X103886000Y-64897000D02*
X107138000Y-64897000D01*
X103599000Y-64610000D02*
X103886000Y-64897000D01*
X98806000Y-63119000D02*
X105344000Y-63119000D01*
X105344000Y-63119000D02*
X105860000Y-63635000D01*
X102608000Y-66175000D02*
X105860000Y-66175000D01*
X102489000Y-66294000D02*
X102608000Y-66175000D01*
X101727000Y-72009000D02*
X102235000Y-71501000D01*
X77343000Y-72009000D02*
X101727000Y-72009000D01*
X70612000Y-72009000D02*
X71247000Y-72009000D01*
X69713002Y-72907998D02*
X70612000Y-72009000D01*
X45221998Y-72907998D02*
X69713002Y-72907998D01*
X44577000Y-72263000D02*
X45221998Y-72907998D01*
X75501500Y-54142640D02*
X74762360Y-54142640D01*
X68897500Y-53657500D02*
X70358000Y-53657500D01*
X68834000Y-53594000D02*
X68897500Y-53657500D01*
X74762360Y-54142640D02*
X74295000Y-54610000D01*
X83058000Y-51943000D02*
X81280000Y-51943000D01*
X83058000Y-53213000D02*
X83058000Y-51943000D01*
X76390500Y-49784000D02*
X76390500Y-51054000D01*
X76390500Y-51054000D02*
X76390500Y-51965860D01*
X76390500Y-51965860D02*
X76454000Y-52029360D01*
X72898000Y-59690000D02*
X72898000Y-55562500D01*
X77406500Y-56388000D02*
X81915000Y-56388000D01*
X83058000Y-55245000D02*
X83058000Y-54483000D01*
X81915000Y-56388000D02*
X83058000Y-55245000D01*
X96774000Y-71501000D02*
X97536000Y-70739000D01*
X77851000Y-71501000D02*
X96774000Y-71501000D01*
X77343000Y-70993000D02*
X77851000Y-71501000D01*
X69850000Y-70993000D02*
X71120000Y-70993000D01*
X68707000Y-72136000D02*
X69850000Y-70993000D01*
X58928000Y-72136000D02*
X68707000Y-72136000D01*
X54102000Y-72390000D02*
X54356000Y-72136000D01*
X47625000Y-72390000D02*
X54102000Y-72390000D01*
X47244000Y-72009000D02*
X47625000Y-72390000D01*
X97536000Y-70739000D02*
X97536000Y-70010000D01*
X79883000Y-70485000D02*
X80391000Y-70993000D01*
X59309000Y-71374000D02*
X68199000Y-71374000D01*
X68199000Y-71374000D02*
X69469000Y-70104000D01*
X69469000Y-70104000D02*
X71628000Y-70104000D01*
X77343000Y-69977000D02*
X79375000Y-69977000D01*
X79375000Y-69977000D02*
X79883000Y-70485000D01*
X97536000Y-65405000D02*
X97536000Y-64610000D01*
X97028000Y-65913000D02*
X97536000Y-65405000D01*
X93599000Y-65913000D02*
X97028000Y-65913000D01*
X92837000Y-70993000D02*
X93345000Y-70485000D01*
X80391000Y-70993000D02*
X92837000Y-70993000D01*
X66548000Y-43561000D02*
X64389000Y-43561000D01*
X63754000Y-44196000D02*
X63754000Y-47752000D01*
X64389000Y-43561000D02*
X63754000Y-44196000D01*
X72898000Y-67310000D02*
X72898000Y-71183500D01*
X65405000Y-48641000D02*
X64770000Y-48006000D01*
X66548000Y-44831000D02*
X65151000Y-44831000D01*
X64770000Y-45212000D02*
X64770000Y-48006000D01*
X65151000Y-44831000D02*
X64770000Y-45212000D01*
X75438000Y-67310000D02*
X75438000Y-71183500D01*
D42*
G36*
X66120838Y-20759167D02*
X66262883Y-21102943D01*
X66525673Y-21366192D01*
X66869201Y-21508838D01*
X67241167Y-21509162D01*
X67483578Y-21409000D01*
X99857132Y-21409000D01*
X101717500Y-23269368D01*
X101717500Y-24038025D01*
X101666943Y-24047538D01*
X101601922Y-24089378D01*
X101424049Y-24015700D01*
X100933250Y-24015700D01*
X100774500Y-24174450D01*
X100774500Y-25273000D01*
X100794500Y-25273000D01*
X100794500Y-25527000D01*
X100774500Y-25527000D01*
X100774500Y-25547000D01*
X100520500Y-25547000D01*
X100520500Y-25527000D01*
X99521010Y-25527000D01*
X99362260Y-25685750D01*
X99362260Y-26275610D01*
X99368635Y-26291000D01*
X43307000Y-26291000D01*
X43016160Y-26348852D01*
X42794613Y-26496885D01*
X42740833Y-26496838D01*
X42397057Y-26638883D01*
X42133808Y-26901673D01*
X41991162Y-27245201D01*
X41991101Y-27315000D01*
X41394000Y-27315000D01*
X41103161Y-27372852D01*
X40893581Y-27512888D01*
X40835833Y-27512838D01*
X40492057Y-27654883D01*
X40228808Y-27917673D01*
X40086162Y-28261201D01*
X40085838Y-28633167D01*
X40227883Y-28976943D01*
X40490673Y-29240192D01*
X40834201Y-29382838D01*
X41206167Y-29383162D01*
X41549943Y-29241117D01*
X41813192Y-28978327D01*
X41872707Y-28835000D01*
X104201510Y-28835000D01*
X104353740Y-29062828D01*
X104776039Y-29345000D01*
X104353740Y-29627172D01*
X104201510Y-29855000D01*
X62707378Y-29855000D01*
X62642117Y-29697057D01*
X62379327Y-29433808D01*
X62035799Y-29291162D01*
X61663833Y-29290838D01*
X61320057Y-29432883D01*
X61056808Y-29695673D01*
X60914162Y-30039201D01*
X60913838Y-30411167D01*
X61055883Y-30754943D01*
X61318673Y-31018192D01*
X61662201Y-31160838D01*
X61713293Y-31160883D01*
X61947161Y-31317148D01*
X62238000Y-31375000D01*
X67962207Y-31375000D01*
X67932560Y-31521400D01*
X67932560Y-32185000D01*
X53086000Y-32185000D01*
X52766459Y-32248561D01*
X52593607Y-32364057D01*
X52495566Y-32429566D01*
X52416667Y-32508465D01*
X52176057Y-32607883D01*
X51912808Y-32870673D01*
X51770162Y-33214201D01*
X51769838Y-33586167D01*
X51911883Y-33929943D01*
X52174673Y-34193192D01*
X52518201Y-34335838D01*
X52890167Y-34336162D01*
X53233943Y-34194117D01*
X53497192Y-33931327D01*
X53528886Y-33855000D01*
X67932560Y-33855000D01*
X67932560Y-34518600D01*
X67976838Y-34753917D01*
X68115910Y-34970041D01*
X68328110Y-35115031D01*
X68580000Y-35166040D01*
X71577200Y-35166040D01*
X71812517Y-35121762D01*
X72028641Y-34982690D01*
X72173631Y-34770490D01*
X72224640Y-34518600D01*
X72224640Y-33855000D01*
X74315628Y-33855000D01*
X74399673Y-33939192D01*
X74743201Y-34081838D01*
X75115167Y-34082162D01*
X75458943Y-33940117D01*
X75722192Y-33677327D01*
X75864838Y-33333799D01*
X75865162Y-32961833D01*
X75723117Y-32618057D01*
X75460327Y-32354808D01*
X75116799Y-32212162D01*
X74938772Y-32212007D01*
X74803000Y-32185000D01*
X72224640Y-32185000D01*
X72224640Y-31521400D01*
X72197093Y-31375000D01*
X102303653Y-31375000D01*
X102204808Y-31473673D01*
X102062162Y-31817201D01*
X102061838Y-32189167D01*
X102146886Y-32395000D01*
X98468902Y-32395000D01*
X98456117Y-32364057D01*
X98193327Y-32100808D01*
X97849799Y-31958162D01*
X97477833Y-31957838D01*
X97134057Y-32099883D01*
X96870808Y-32362673D01*
X96728162Y-32706201D01*
X96727838Y-33078167D01*
X96869883Y-33421943D01*
X97104530Y-33657000D01*
X80064241Y-33657000D01*
X79905327Y-33497808D01*
X79561799Y-33355162D01*
X79189833Y-33354838D01*
X78846057Y-33496883D01*
X78582808Y-33759673D01*
X78440162Y-34103201D01*
X78439838Y-34475167D01*
X78554247Y-34752059D01*
X78300833Y-34751838D01*
X77957057Y-34893883D01*
X77693808Y-35156673D01*
X77551162Y-35500201D01*
X77550838Y-35872167D01*
X77692883Y-36215943D01*
X77955673Y-36479192D01*
X78299201Y-36621838D01*
X78671167Y-36622162D01*
X79014943Y-36480117D01*
X79048118Y-36447000D01*
X82758001Y-36447000D01*
X82757838Y-36634167D01*
X82899883Y-36977943D01*
X83162673Y-37241192D01*
X83506201Y-37383838D01*
X83878167Y-37384162D01*
X84221943Y-37242117D01*
X84255118Y-37209000D01*
X103190198Y-37209000D01*
X103475599Y-37494401D01*
X103722161Y-37659148D01*
X104013000Y-37717000D01*
X104047604Y-37717000D01*
X103944568Y-38235000D01*
X104050908Y-38769609D01*
X104353740Y-39222828D01*
X104776039Y-39505000D01*
X104353740Y-39787172D01*
X104050908Y-40240391D01*
X103944568Y-40775000D01*
X104050908Y-41309609D01*
X104353740Y-41762828D01*
X104776039Y-42045000D01*
X104353740Y-42327172D01*
X104050908Y-42780391D01*
X103944568Y-43315000D01*
X104050908Y-43849609D01*
X104353740Y-44302828D01*
X104776039Y-44585000D01*
X104353740Y-44867172D01*
X104050908Y-45320391D01*
X103944568Y-45855000D01*
X104044422Y-46357000D01*
X95300333Y-46357000D01*
X95407192Y-46250327D01*
X95549838Y-45906799D01*
X95550162Y-45534833D01*
X95408117Y-45191057D01*
X95145327Y-44927808D01*
X94801799Y-44785162D01*
X94429833Y-44784838D01*
X94086057Y-44926883D01*
X94052882Y-44960000D01*
X92891463Y-44960000D01*
X92859327Y-44927808D01*
X92515799Y-44785162D01*
X92143833Y-44784838D01*
X92123948Y-44793054D01*
X91966934Y-44558066D01*
X91697535Y-44288667D01*
X91598117Y-44048057D01*
X91335327Y-43784808D01*
X90991799Y-43642162D01*
X90619833Y-43641838D01*
X90276057Y-43783883D01*
X90012808Y-44046673D01*
X89870162Y-44390201D01*
X89869838Y-44762167D01*
X90011883Y-45105943D01*
X90274673Y-45369192D01*
X90516910Y-45469778D01*
X90541500Y-45494368D01*
X90541500Y-46390025D01*
X90490943Y-46399538D01*
X90425454Y-46441679D01*
X90373630Y-46406269D01*
X90121740Y-46355260D01*
X88821260Y-46355260D01*
X88585943Y-46399538D01*
X88369819Y-46538610D01*
X88224829Y-46750810D01*
X88175987Y-46992000D01*
X88117689Y-46992000D01*
X88103622Y-46917243D01*
X87964550Y-46701119D01*
X87752350Y-46556129D01*
X87500460Y-46505120D01*
X86301580Y-46505120D01*
X86066263Y-46549398D01*
X85850139Y-46688470D01*
X85849457Y-46689467D01*
X85654310Y-46556129D01*
X85402420Y-46505120D01*
X84203540Y-46505120D01*
X84072000Y-46529871D01*
X84072000Y-43488463D01*
X84104192Y-43456327D01*
X84246838Y-43112799D01*
X84247162Y-42740833D01*
X84105117Y-42397057D01*
X83842327Y-42133808D01*
X83498799Y-41991162D01*
X83126833Y-41990838D01*
X82783057Y-42132883D01*
X82519808Y-42395673D01*
X82377162Y-42739201D01*
X82376838Y-43111167D01*
X82518883Y-43454943D01*
X82552000Y-43488118D01*
X82552000Y-45154676D01*
X82529890Y-45139569D01*
X82278000Y-45088560D01*
X80278000Y-45088560D01*
X80135000Y-45115467D01*
X80135000Y-43615463D01*
X80167192Y-43583327D01*
X80309838Y-43239799D01*
X80310162Y-42867833D01*
X80168117Y-42524057D01*
X79905327Y-42260808D01*
X79561799Y-42118162D01*
X79189833Y-42117838D01*
X78846057Y-42259883D01*
X78803656Y-42302210D01*
X78762327Y-42260808D01*
X78418799Y-42118162D01*
X78046833Y-42117838D01*
X77703057Y-42259883D01*
X77439808Y-42522673D01*
X77297162Y-42866201D01*
X77296838Y-43238167D01*
X77438883Y-43581943D01*
X77472000Y-43615118D01*
X77472000Y-48078537D01*
X77439808Y-48110673D01*
X77301314Y-48444202D01*
X77292630Y-48438269D01*
X77040740Y-48387260D01*
X75740260Y-48387260D01*
X75504943Y-48431538D01*
X75439454Y-48473679D01*
X75387630Y-48438269D01*
X75135740Y-48387260D01*
X73835260Y-48387260D01*
X73599943Y-48431538D01*
X73383819Y-48570610D01*
X73238829Y-48782810D01*
X73202076Y-48964301D01*
X72959459Y-49012561D01*
X72755653Y-49148740D01*
X72688566Y-49193566D01*
X71579740Y-50302392D01*
X71579740Y-49815750D01*
X71420990Y-49657000D01*
X70421500Y-49657000D01*
X70421500Y-49677000D01*
X70167500Y-49677000D01*
X70167500Y-49657000D01*
X70147500Y-49657000D01*
X70147500Y-49403000D01*
X70167500Y-49403000D01*
X70167500Y-48304450D01*
X70421500Y-48304450D01*
X70421500Y-49403000D01*
X71420990Y-49403000D01*
X71579740Y-49244250D01*
X71579740Y-48654390D01*
X71483067Y-48421001D01*
X71380225Y-48318160D01*
X73135490Y-48318160D01*
X73370807Y-48273882D01*
X73586931Y-48134810D01*
X73589534Y-48131000D01*
X74523000Y-48131000D01*
X74813839Y-48073148D01*
X74997044Y-47950735D01*
X75146675Y-47920971D01*
X75433790Y-47729128D01*
X75625633Y-47442013D01*
X75693000Y-47103338D01*
X75693000Y-47068662D01*
X75626829Y-46736000D01*
X75693000Y-46403338D01*
X75693000Y-46368662D01*
X75625633Y-46029987D01*
X75433790Y-45742872D01*
X75146675Y-45551029D01*
X74997044Y-45521265D01*
X74930035Y-45476491D01*
X75012434Y-45421434D01*
X75520434Y-44913435D01*
X75655028Y-44712000D01*
X75701439Y-44642541D01*
X75765000Y-44323000D01*
X75765000Y-43480234D01*
X75864838Y-43239799D01*
X75865162Y-42867833D01*
X75723117Y-42524057D01*
X75460327Y-42260808D01*
X75116799Y-42118162D01*
X74744833Y-42117838D01*
X74401057Y-42259883D01*
X74137808Y-42522673D01*
X73995162Y-42866201D01*
X73994838Y-43238167D01*
X74095000Y-43480578D01*
X74095000Y-43977131D01*
X74076132Y-43996000D01*
X73766774Y-43996000D01*
X73770490Y-43987029D01*
X73770490Y-43846750D01*
X73611740Y-43688000D01*
X72263000Y-43688000D01*
X72263000Y-43708000D01*
X72009000Y-43708000D01*
X72009000Y-43688000D01*
X70660260Y-43688000D01*
X70501510Y-43846750D01*
X70501510Y-43987029D01*
X70591461Y-44204190D01*
X70540079Y-44279390D01*
X70489070Y-44531280D01*
X70489070Y-45130720D01*
X70533348Y-45366037D01*
X70597374Y-45465536D01*
X70540079Y-45549390D01*
X70489070Y-45801280D01*
X70489070Y-46400720D01*
X70533348Y-46636037D01*
X70597374Y-46735536D01*
X70540079Y-46819390D01*
X70489070Y-47071280D01*
X70489070Y-47670720D01*
X70533348Y-47906037D01*
X70672420Y-48122161D01*
X70706870Y-48145700D01*
X70580250Y-48145700D01*
X70421500Y-48304450D01*
X70167500Y-48304450D01*
X70008750Y-48145700D01*
X69517951Y-48145700D01*
X69341905Y-48218621D01*
X69291630Y-48184269D01*
X69224500Y-48170675D01*
X69224500Y-47840320D01*
X69362943Y-47783117D01*
X69626192Y-47520327D01*
X69768838Y-47176799D01*
X69769162Y-46804833D01*
X69627117Y-46461057D01*
X69364327Y-46197808D01*
X69020799Y-46055162D01*
X68648833Y-46054838D01*
X68305057Y-46196883D01*
X68194930Y-46306818D01*
X68194930Y-45801280D01*
X68150652Y-45565963D01*
X68086626Y-45466464D01*
X68143921Y-45382610D01*
X68194930Y-45130720D01*
X68194930Y-44531280D01*
X68150652Y-44295963D01*
X68086626Y-44196464D01*
X68143921Y-44112610D01*
X68194930Y-43860720D01*
X68194930Y-43261280D01*
X68171164Y-43134971D01*
X70501510Y-43134971D01*
X70501510Y-43275250D01*
X70660260Y-43434000D01*
X72009000Y-43434000D01*
X72009000Y-42785030D01*
X72263000Y-42785030D01*
X72263000Y-43434000D01*
X73611740Y-43434000D01*
X73770490Y-43275250D01*
X73770490Y-43134971D01*
X73673817Y-42901582D01*
X73495189Y-42722953D01*
X73261800Y-42626280D01*
X72421750Y-42626280D01*
X72263000Y-42785030D01*
X72009000Y-42785030D01*
X71850250Y-42626280D01*
X71010200Y-42626280D01*
X70776811Y-42722953D01*
X70598183Y-42901582D01*
X70501510Y-43134971D01*
X68171164Y-43134971D01*
X68150652Y-43025963D01*
X68011580Y-42809839D01*
X67799380Y-42664849D01*
X67547490Y-42613840D01*
X65548510Y-42613840D01*
X65313193Y-42658118D01*
X65097069Y-42797190D01*
X65094466Y-42801000D01*
X64389000Y-42801000D01*
X64098161Y-42858852D01*
X63851599Y-43023599D01*
X63216599Y-43658599D01*
X63051852Y-43905161D01*
X62994000Y-44196000D01*
X62994000Y-45928001D01*
X62806833Y-45927838D01*
X62463057Y-46069883D01*
X62199808Y-46332673D01*
X62084236Y-46611000D01*
X48441463Y-46611000D01*
X48409327Y-46578808D01*
X48065799Y-46436162D01*
X47693833Y-46435838D01*
X47350057Y-46577883D01*
X47086808Y-46840673D01*
X46944162Y-47184201D01*
X46943952Y-47425000D01*
X45212000Y-47425000D01*
X45076304Y-47451992D01*
X44899833Y-47451838D01*
X44556057Y-47593883D01*
X44292808Y-47856673D01*
X44150162Y-48200201D01*
X44149838Y-48572167D01*
X44200591Y-48695000D01*
X44033868Y-48695000D01*
X42472434Y-47133566D01*
X42428694Y-47104340D01*
X42201541Y-46952561D01*
X41882000Y-46889000D01*
X40155440Y-46889000D01*
X40155440Y-46824000D01*
X40111162Y-46588683D01*
X39972090Y-46372559D01*
X39759890Y-46227569D01*
X39508000Y-46176560D01*
X37708000Y-46176560D01*
X37472683Y-46220838D01*
X37256559Y-46359910D01*
X37111569Y-46572110D01*
X37060560Y-46824000D01*
X37060560Y-48624000D01*
X37104838Y-48859317D01*
X37243910Y-49075441D01*
X37456110Y-49220431D01*
X37708000Y-49271440D01*
X39508000Y-49271440D01*
X39743317Y-49227162D01*
X39959441Y-49088090D01*
X40104431Y-48875890D01*
X40155440Y-48624000D01*
X40155440Y-48559000D01*
X41536132Y-48559000D01*
X43097566Y-50120434D01*
X43368460Y-50301440D01*
X43688000Y-50365000D01*
X62056766Y-50365000D01*
X62297201Y-50464838D01*
X62669167Y-50465162D01*
X62911578Y-50365000D01*
X67107946Y-50365000D01*
X67136098Y-50514617D01*
X67275170Y-50730741D01*
X67487370Y-50875731D01*
X67554500Y-50889325D01*
X67554500Y-50990500D01*
X67618061Y-51310041D01*
X67791193Y-51569151D01*
X67799066Y-51580934D01*
X67988280Y-51770148D01*
X67632833Y-51769838D01*
X67289057Y-51911883D01*
X67025808Y-52174673D01*
X66883162Y-52518201D01*
X66882838Y-52890167D01*
X67024883Y-53233943D01*
X67058000Y-53267118D01*
X67058000Y-53975000D01*
X67115852Y-54265839D01*
X67280599Y-54512401D01*
X67947000Y-55178802D01*
X67947000Y-55565198D01*
X67673241Y-55838957D01*
X67736838Y-55685799D01*
X67737162Y-55313833D01*
X67595117Y-54970057D01*
X67332327Y-54706808D01*
X66988799Y-54564162D01*
X66616833Y-54563838D01*
X66273057Y-54705883D01*
X66009808Y-54968673D01*
X65867162Y-55312201D01*
X65866838Y-55684167D01*
X66008883Y-56027943D01*
X66042000Y-56061118D01*
X66042000Y-56708198D01*
X66010599Y-56739599D01*
X65845852Y-56986161D01*
X65788000Y-57277000D01*
X65788000Y-58022638D01*
X65278000Y-57921193D01*
X64768000Y-58022638D01*
X64768000Y-53848000D01*
X64710148Y-53557161D01*
X64545401Y-53310599D01*
X64308122Y-53073320D01*
X64308162Y-53027833D01*
X64166117Y-52684057D01*
X63903327Y-52420808D01*
X63559799Y-52278162D01*
X63187833Y-52277838D01*
X62844057Y-52419883D01*
X62756790Y-52506998D01*
X62756790Y-52086510D01*
X62712512Y-51851193D01*
X62573440Y-51635069D01*
X62361240Y-51490079D01*
X62109350Y-51439070D01*
X56610250Y-51439070D01*
X56374933Y-51483348D01*
X56158809Y-51622420D01*
X56013819Y-51834620D01*
X55962810Y-52086510D01*
X55962810Y-54085490D01*
X56007088Y-54320807D01*
X56146160Y-54536931D01*
X56358360Y-54681921D01*
X56610250Y-54732930D01*
X58492268Y-54732930D01*
X58105198Y-55120000D01*
X57712463Y-55120000D01*
X57680327Y-55087808D01*
X57336799Y-54945162D01*
X56964833Y-54944838D01*
X56621057Y-55086883D01*
X56574415Y-55133444D01*
X56399414Y-55168254D01*
X56351160Y-55177852D01*
X56104599Y-55342599D01*
X54580599Y-56866599D01*
X54415852Y-57113161D01*
X54358000Y-57404000D01*
X54358000Y-58180187D01*
X54138254Y-58327017D01*
X53848000Y-58761412D01*
X53557746Y-58327017D01*
X53338000Y-58180187D01*
X53338000Y-57404000D01*
X53318439Y-57305660D01*
X53280148Y-57113160D01*
X53115401Y-56866599D01*
X51227122Y-54978320D01*
X51227162Y-54932833D01*
X51144564Y-54732930D01*
X52609750Y-54732930D01*
X52845067Y-54688652D01*
X53061191Y-54549580D01*
X53206181Y-54337380D01*
X53257190Y-54085490D01*
X53257190Y-52086510D01*
X53212912Y-51851193D01*
X53073840Y-51635069D01*
X52861640Y-51490079D01*
X52609750Y-51439070D01*
X47110650Y-51439070D01*
X46875333Y-51483348D01*
X46659209Y-51622420D01*
X46514219Y-51834620D01*
X46463210Y-52086510D01*
X46463210Y-54085490D01*
X46507488Y-54320807D01*
X46646560Y-54536931D01*
X46858760Y-54681921D01*
X47110650Y-54732930D01*
X49109495Y-54732930D01*
X49158052Y-54977039D01*
X49322799Y-55223601D01*
X49356878Y-55257680D01*
X49356838Y-55303167D01*
X49498883Y-55646943D01*
X49761673Y-55910192D01*
X50105201Y-56052838D01*
X50152077Y-56052879D01*
X51818000Y-57718802D01*
X51818000Y-58180187D01*
X51598254Y-58327017D01*
X51308000Y-58761412D01*
X51017746Y-58327017D01*
X50568235Y-58026663D01*
X50038000Y-57921193D01*
X49507765Y-58026663D01*
X49058254Y-58327017D01*
X48768000Y-58761412D01*
X48477746Y-58327017D01*
X48028235Y-58026663D01*
X47498000Y-57921193D01*
X46967765Y-58026663D01*
X46518254Y-58327017D01*
X46228000Y-58761412D01*
X45937746Y-58327017D01*
X45488235Y-58026663D01*
X44958000Y-57921193D01*
X44427765Y-58026663D01*
X43978254Y-58327017D01*
X43688000Y-58761412D01*
X43397746Y-58327017D01*
X42948235Y-58026663D01*
X42418000Y-57921193D01*
X41887765Y-58026663D01*
X41438254Y-58327017D01*
X41137900Y-58776528D01*
X41032430Y-59306763D01*
X41032430Y-60073237D01*
X41137900Y-60603472D01*
X41438254Y-61052983D01*
X41887765Y-61353337D01*
X42418000Y-61458807D01*
X42948235Y-61353337D01*
X43397746Y-61052983D01*
X43688000Y-60618588D01*
X43978254Y-61052983D01*
X44427765Y-61353337D01*
X44958000Y-61458807D01*
X45488235Y-61353337D01*
X45937746Y-61052983D01*
X46228000Y-60618588D01*
X46518254Y-61052983D01*
X46967765Y-61353337D01*
X47498000Y-61458807D01*
X48028235Y-61353337D01*
X48477746Y-61052983D01*
X48768000Y-60618588D01*
X49058254Y-61052983D01*
X49507765Y-61353337D01*
X50038000Y-61458807D01*
X50568235Y-61353337D01*
X51017746Y-61052983D01*
X51308000Y-60618588D01*
X51598254Y-61052983D01*
X52047765Y-61353337D01*
X52578000Y-61458807D01*
X53108235Y-61353337D01*
X53557746Y-61052983D01*
X53848000Y-60618588D01*
X54138254Y-61052983D01*
X54587765Y-61353337D01*
X55118000Y-61458807D01*
X55648235Y-61353337D01*
X56097746Y-61052983D01*
X56398100Y-60603472D01*
X56399601Y-60595928D01*
X56426501Y-60686817D01*
X56768056Y-61108798D01*
X57245097Y-61367950D01*
X57316725Y-61382133D01*
X57531000Y-61259479D01*
X57531000Y-59817000D01*
X57511000Y-59817000D01*
X57511000Y-59563000D01*
X57531000Y-59563000D01*
X57531000Y-58120521D01*
X57316725Y-57997867D01*
X57245097Y-58012050D01*
X56768056Y-58271202D01*
X56426501Y-58693183D01*
X56399601Y-58784072D01*
X56398100Y-58776528D01*
X56097746Y-58327017D01*
X55878000Y-58180187D01*
X55878000Y-57718802D01*
X56835140Y-56761662D01*
X56963201Y-56814838D01*
X57335167Y-56815162D01*
X57678943Y-56673117D01*
X57712118Y-56640000D01*
X58420000Y-56640000D01*
X58710839Y-56582148D01*
X58957401Y-56417401D01*
X59897201Y-55477601D01*
X60061948Y-55231039D01*
X60119800Y-54940200D01*
X60119800Y-54732930D01*
X62109350Y-54732930D01*
X62344667Y-54688652D01*
X62560791Y-54549580D01*
X62705781Y-54337380D01*
X62756790Y-54085490D01*
X62756790Y-53919159D01*
X62842673Y-54005192D01*
X63186201Y-54147838D01*
X63233077Y-54147879D01*
X63248000Y-54162802D01*
X63248000Y-58022638D01*
X62738000Y-57921193D01*
X62207765Y-58026663D01*
X61758254Y-58327017D01*
X61468000Y-58761412D01*
X61177746Y-58327017D01*
X60728235Y-58026663D01*
X60198000Y-57921193D01*
X59667765Y-58026663D01*
X59218254Y-58327017D01*
X58917900Y-58776528D01*
X58916399Y-58784072D01*
X58889499Y-58693183D01*
X58547944Y-58271202D01*
X58070903Y-58012050D01*
X57999275Y-57997867D01*
X57785000Y-58120521D01*
X57785000Y-59563000D01*
X57805000Y-59563000D01*
X57805000Y-59817000D01*
X57785000Y-59817000D01*
X57785000Y-61259479D01*
X57999275Y-61382133D01*
X58070903Y-61367950D01*
X58547944Y-61108798D01*
X58889499Y-60686817D01*
X58916399Y-60595928D01*
X58917900Y-60603472D01*
X59218254Y-61052983D01*
X59667765Y-61353337D01*
X60198000Y-61458807D01*
X60728235Y-61353337D01*
X61177746Y-61052983D01*
X61468000Y-60618588D01*
X61758254Y-61052983D01*
X62207765Y-61353337D01*
X62738000Y-61458807D01*
X63248000Y-61357362D01*
X63248000Y-61849000D01*
X63305852Y-62139839D01*
X63470599Y-62386401D01*
X64518000Y-63433802D01*
X64518000Y-65800187D01*
X64298254Y-65947017D01*
X64008000Y-66381412D01*
X63717746Y-65947017D01*
X63268235Y-65646663D01*
X62738000Y-65541193D01*
X62207765Y-65646663D01*
X61758254Y-65947017D01*
X61457900Y-66396528D01*
X61456399Y-66404072D01*
X61429499Y-66313183D01*
X61087944Y-65891202D01*
X60610903Y-65632050D01*
X60539275Y-65617867D01*
X60325000Y-65740521D01*
X60325000Y-67183000D01*
X60345000Y-67183000D01*
X60345000Y-67437000D01*
X60325000Y-67437000D01*
X60325000Y-68879479D01*
X60539275Y-69002133D01*
X60610903Y-68987950D01*
X61087944Y-68728798D01*
X61429499Y-68306817D01*
X61456399Y-68215928D01*
X61457900Y-68223472D01*
X61758254Y-68672983D01*
X62207765Y-68973337D01*
X62738000Y-69078807D01*
X63268235Y-68973337D01*
X63717746Y-68672983D01*
X64008000Y-68238588D01*
X64298254Y-68672983D01*
X64747765Y-68973337D01*
X65278000Y-69078807D01*
X65808235Y-68973337D01*
X66257746Y-68672983D01*
X66548000Y-68238588D01*
X66838254Y-68672983D01*
X67287765Y-68973337D01*
X67818000Y-69078807D01*
X68348235Y-68973337D01*
X68797746Y-68672983D01*
X69088000Y-68238588D01*
X69378254Y-68672983D01*
X69827765Y-68973337D01*
X70358000Y-69078807D01*
X70888235Y-68973337D01*
X71337746Y-68672983D01*
X71628000Y-68238588D01*
X71918254Y-68672983D01*
X72138000Y-68819813D01*
X72138000Y-69303367D01*
X71814799Y-69169162D01*
X71442833Y-69168838D01*
X71099057Y-69310883D01*
X71065882Y-69344000D01*
X69469000Y-69344000D01*
X69178160Y-69401852D01*
X68931599Y-69566599D01*
X67884198Y-70614000D01*
X59871463Y-70614000D01*
X59839327Y-70581808D01*
X59495799Y-70439162D01*
X59123833Y-70438838D01*
X58780057Y-70580883D01*
X58516808Y-70843673D01*
X58374162Y-71187201D01*
X58374005Y-71367892D01*
X58360130Y-71381742D01*
X58355482Y-71306587D01*
X58226164Y-70994383D01*
X58000735Y-70944870D01*
X57317605Y-71628000D01*
X57331748Y-71642143D01*
X57152143Y-71821748D01*
X57138000Y-71807605D01*
X57123858Y-71821748D01*
X56944253Y-71642143D01*
X56958395Y-71628000D01*
X56944253Y-71613858D01*
X57123858Y-71434253D01*
X57138000Y-71448395D01*
X57821130Y-70765265D01*
X57771617Y-70539836D01*
X57306964Y-70380193D01*
X56816587Y-70410518D01*
X56594010Y-70502711D01*
X56489890Y-70431569D01*
X56238000Y-70380560D01*
X55878000Y-70380560D01*
X55878000Y-68819813D01*
X56097746Y-68672983D01*
X56398100Y-68223472D01*
X56399601Y-68215928D01*
X56426501Y-68306817D01*
X56768056Y-68728798D01*
X57245097Y-68987950D01*
X57316725Y-69002133D01*
X57531000Y-68879479D01*
X57531000Y-67437000D01*
X57785000Y-67437000D01*
X57785000Y-68879479D01*
X57999275Y-69002133D01*
X58070903Y-68987950D01*
X58547944Y-68728798D01*
X58889499Y-68306817D01*
X58928000Y-68176732D01*
X58966501Y-68306817D01*
X59308056Y-68728798D01*
X59785097Y-68987950D01*
X59856725Y-69002133D01*
X60071000Y-68879479D01*
X60071000Y-67437000D01*
X57785000Y-67437000D01*
X57531000Y-67437000D01*
X57511000Y-67437000D01*
X57511000Y-67183000D01*
X57531000Y-67183000D01*
X57531000Y-65740521D01*
X57785000Y-65740521D01*
X57785000Y-67183000D01*
X60071000Y-67183000D01*
X60071000Y-65740521D01*
X59856725Y-65617867D01*
X59785097Y-65632050D01*
X59308056Y-65891202D01*
X58966501Y-66313183D01*
X58928000Y-66443268D01*
X58889499Y-66313183D01*
X58547944Y-65891202D01*
X58070903Y-65632050D01*
X57999275Y-65617867D01*
X57785000Y-65740521D01*
X57531000Y-65740521D01*
X57316725Y-65617867D01*
X57245097Y-65632050D01*
X56768056Y-65891202D01*
X56426501Y-66313183D01*
X56399601Y-66404072D01*
X56398100Y-66396528D01*
X56097746Y-65947017D01*
X55648235Y-65646663D01*
X55118000Y-65541193D01*
X54587765Y-65646663D01*
X54138254Y-65947017D01*
X53848000Y-66381412D01*
X53557746Y-65947017D01*
X53108235Y-65646663D01*
X52578000Y-65541193D01*
X52047765Y-65646663D01*
X51598254Y-65947017D01*
X51308000Y-66381412D01*
X51017746Y-65947017D01*
X50568235Y-65646663D01*
X50038000Y-65541193D01*
X49507765Y-65646663D01*
X49058254Y-65947017D01*
X48768000Y-66381412D01*
X48477746Y-65947017D01*
X48028235Y-65646663D01*
X47498000Y-65541193D01*
X46967765Y-65646663D01*
X46518254Y-65947017D01*
X46228000Y-66381412D01*
X45937746Y-65947017D01*
X45488235Y-65646663D01*
X44958000Y-65541193D01*
X44427765Y-65646663D01*
X43978254Y-65947017D01*
X43688000Y-66381412D01*
X43397746Y-65947017D01*
X42948235Y-65646663D01*
X42418000Y-65541193D01*
X41887765Y-65646663D01*
X41438254Y-65947017D01*
X41137900Y-66396528D01*
X41032430Y-66926763D01*
X41032430Y-67693237D01*
X41137900Y-68223472D01*
X41438254Y-68672983D01*
X41887765Y-68973337D01*
X42418000Y-69078807D01*
X42948235Y-68973337D01*
X43397746Y-68672983D01*
X43688000Y-68238588D01*
X43978254Y-68672983D01*
X44427765Y-68973337D01*
X44958000Y-69078807D01*
X45488235Y-68973337D01*
X45937746Y-68672983D01*
X46228000Y-68238588D01*
X46518254Y-68672983D01*
X46967765Y-68973337D01*
X47498000Y-69078807D01*
X48028235Y-68973337D01*
X48477746Y-68672983D01*
X48768000Y-68238588D01*
X49058254Y-68672983D01*
X49507765Y-68973337D01*
X50038000Y-69078807D01*
X50568235Y-68973337D01*
X51017746Y-68672983D01*
X51308000Y-68238588D01*
X51598254Y-68672983D01*
X52047765Y-68973337D01*
X52578000Y-69078807D01*
X53108235Y-68973337D01*
X53557746Y-68672983D01*
X53848000Y-68238588D01*
X54138254Y-68672983D01*
X54358000Y-68819813D01*
X54358000Y-71108000D01*
X54376502Y-71201017D01*
X54170833Y-71200838D01*
X53827057Y-71342883D01*
X53563808Y-71605673D01*
X53553706Y-71630000D01*
X48099072Y-71630000D01*
X48037117Y-71480057D01*
X47774327Y-71216808D01*
X47430799Y-71074162D01*
X47058833Y-71073838D01*
X46715057Y-71215883D01*
X46451808Y-71478673D01*
X46309162Y-71822201D01*
X46308878Y-72147998D01*
X45536800Y-72147998D01*
X45512122Y-72123320D01*
X45512162Y-72077833D01*
X45370117Y-71734057D01*
X45107327Y-71470808D01*
X44763799Y-71328162D01*
X44391833Y-71327838D01*
X44048057Y-71469883D01*
X43784808Y-71732673D01*
X43642162Y-72076201D01*
X43641838Y-72448167D01*
X43745067Y-72698000D01*
X28666869Y-72698000D01*
X22425000Y-66456132D01*
X22425000Y-65115868D01*
X22735965Y-64804903D01*
X22733260Y-64818260D01*
X22733260Y-66118740D01*
X22777538Y-66354057D01*
X22916610Y-66570181D01*
X23128810Y-66715171D01*
X23380700Y-66766180D01*
X24879300Y-66766180D01*
X25114617Y-66721902D01*
X25330741Y-66582830D01*
X25475731Y-66370630D01*
X25504513Y-66228500D01*
X25943170Y-66228500D01*
X25975398Y-66399777D01*
X26114470Y-66615901D01*
X26326670Y-66760891D01*
X26578560Y-66811900D01*
X27777440Y-66811900D01*
X28012757Y-66767622D01*
X28228881Y-66628550D01*
X28373871Y-66416350D01*
X28424880Y-66164460D01*
X28424880Y-64965580D01*
X28380602Y-64730263D01*
X28241530Y-64514139D01*
X28233341Y-64508544D01*
X28315767Y-64426118D01*
X28412440Y-64192729D01*
X28412440Y-63752730D01*
X28253690Y-63593980D01*
X27305000Y-63593980D01*
X27305000Y-63613980D01*
X27051000Y-63613980D01*
X27051000Y-63593980D01*
X26102310Y-63593980D01*
X25943560Y-63752730D01*
X25943560Y-64192729D01*
X26040233Y-64426118D01*
X26122445Y-64508331D01*
X25985675Y-64708500D01*
X25506087Y-64708500D01*
X25482462Y-64582943D01*
X25440321Y-64517454D01*
X25475731Y-64465630D01*
X25526740Y-64213740D01*
X25526740Y-62913260D01*
X25494371Y-62741231D01*
X25943560Y-62741231D01*
X25943560Y-63181230D01*
X26102310Y-63339980D01*
X27051000Y-63339980D01*
X27051000Y-62391290D01*
X27305000Y-62391290D01*
X27305000Y-63339980D01*
X28253690Y-63339980D01*
X28412440Y-63181230D01*
X28412440Y-62741231D01*
X28315767Y-62507842D01*
X28137139Y-62329213D01*
X27903750Y-62232540D01*
X27463750Y-62232540D01*
X27305000Y-62391290D01*
X27051000Y-62391290D01*
X26892250Y-62232540D01*
X26452250Y-62232540D01*
X26218861Y-62329213D01*
X26040233Y-62507842D01*
X25943560Y-62741231D01*
X25494371Y-62741231D01*
X25482462Y-62677943D01*
X25343390Y-62461819D01*
X25131190Y-62316829D01*
X24965000Y-62283175D01*
X24965000Y-60555923D01*
X25079057Y-60534462D01*
X25144078Y-60492622D01*
X25321951Y-60566300D01*
X25812750Y-60566300D01*
X25971500Y-60407550D01*
X25971500Y-59309000D01*
X26225500Y-59309000D01*
X26225500Y-60407550D01*
X26384250Y-60566300D01*
X26875049Y-60566300D01*
X27108438Y-60469627D01*
X27287067Y-60290999D01*
X27383740Y-60057610D01*
X27383740Y-59467750D01*
X28496260Y-59467750D01*
X28496260Y-60057610D01*
X28592933Y-60290999D01*
X28771562Y-60469627D01*
X29004951Y-60566300D01*
X29495750Y-60566300D01*
X29654500Y-60407550D01*
X29654500Y-59309000D01*
X28655010Y-59309000D01*
X28496260Y-59467750D01*
X27383740Y-59467750D01*
X27224990Y-59309000D01*
X26225500Y-59309000D01*
X25971500Y-59309000D01*
X25951500Y-59309000D01*
X25951500Y-59055000D01*
X25971500Y-59055000D01*
X25971500Y-57956450D01*
X26225500Y-57956450D01*
X26225500Y-59055000D01*
X27224990Y-59055000D01*
X27383740Y-58896250D01*
X27383740Y-58306390D01*
X28496260Y-58306390D01*
X28496260Y-58896250D01*
X28655010Y-59055000D01*
X29654500Y-59055000D01*
X29654500Y-57956450D01*
X29495750Y-57797700D01*
X29004951Y-57797700D01*
X28771562Y-57894373D01*
X28592933Y-58073001D01*
X28496260Y-58306390D01*
X27383740Y-58306390D01*
X27287067Y-58073001D01*
X27108438Y-57894373D01*
X26875049Y-57797700D01*
X26384250Y-57797700D01*
X26225500Y-57956450D01*
X25971500Y-57956450D01*
X25812750Y-57797700D01*
X25321951Y-57797700D01*
X25145905Y-57870621D01*
X25095630Y-57836269D01*
X24965000Y-57809816D01*
X24965000Y-56304212D01*
X25196191Y-56208686D01*
X25462251Y-55943089D01*
X26786517Y-55943089D01*
X26915725Y-56235859D01*
X27615883Y-56504071D01*
X28365384Y-56483928D01*
X28964275Y-56235859D01*
X29093483Y-55943089D01*
X27940000Y-54789605D01*
X26786517Y-55943089D01*
X25462251Y-55943089D01*
X25726822Y-55678979D01*
X26014352Y-54986531D01*
X26014963Y-54285883D01*
X26045929Y-54285883D01*
X26066072Y-55035384D01*
X26314141Y-55634275D01*
X26606911Y-55763483D01*
X27760395Y-54610000D01*
X28119605Y-54610000D01*
X29273089Y-55763483D01*
X29565859Y-55634275D01*
X29834071Y-54934117D01*
X29813928Y-54184616D01*
X29565859Y-53585725D01*
X29273089Y-53456517D01*
X28119605Y-54610000D01*
X27760395Y-54610000D01*
X26606911Y-53456517D01*
X26314141Y-53585725D01*
X26045929Y-54285883D01*
X26014963Y-54285883D01*
X26015006Y-54236759D01*
X25728686Y-53543809D01*
X25198979Y-53013178D01*
X24506531Y-52725648D01*
X23756759Y-52724994D01*
X23063809Y-53011314D01*
X22533178Y-53541021D01*
X22245648Y-54233469D01*
X22244994Y-54983241D01*
X22531314Y-55676191D01*
X23061021Y-56206822D01*
X23295000Y-56303979D01*
X23295000Y-57837867D01*
X23091819Y-57968610D01*
X22946829Y-58180810D01*
X22895820Y-58432700D01*
X22895820Y-59931300D01*
X22940098Y-60166617D01*
X23079170Y-60382741D01*
X23291370Y-60527731D01*
X23295000Y-60528466D01*
X23295000Y-62281946D01*
X23145383Y-62310098D01*
X22929259Y-62449170D01*
X22784269Y-62661370D01*
X22769591Y-62733853D01*
X22476960Y-62792060D01*
X22206066Y-62973066D01*
X20999566Y-64179566D01*
X20818561Y-64450459D01*
X20755000Y-64770000D01*
X20755000Y-66802000D01*
X20818561Y-67121541D01*
X20946472Y-67312973D01*
X20999566Y-67392434D01*
X27147131Y-73540000D01*
X20710000Y-73540000D01*
X20710000Y-72324398D01*
X20814190Y-72324398D01*
X21024686Y-72833837D01*
X21414113Y-73223944D01*
X21923184Y-73435329D01*
X22474398Y-73435810D01*
X22983837Y-73225314D01*
X23373944Y-72835887D01*
X23585329Y-72326816D01*
X23585810Y-71775602D01*
X23375314Y-71266163D01*
X22985887Y-70876056D01*
X22476816Y-70664671D01*
X21925602Y-70664190D01*
X21416163Y-70874686D01*
X21026056Y-71264113D01*
X20814671Y-71773184D01*
X20814190Y-72324398D01*
X20710000Y-72324398D01*
X20710000Y-51459509D01*
X25930512Y-51459509D01*
X26235741Y-52198219D01*
X26800428Y-52763893D01*
X27123541Y-52898061D01*
X26915725Y-52984141D01*
X26786517Y-53276911D01*
X27940000Y-54430395D01*
X29093483Y-53276911D01*
X28964275Y-52984141D01*
X28748454Y-52901466D01*
X29076599Y-52765879D01*
X29642273Y-52201192D01*
X29948790Y-51463016D01*
X29949488Y-50663731D01*
X29644259Y-49925021D01*
X29079572Y-49359347D01*
X28341396Y-49052830D01*
X27542111Y-49052132D01*
X26803401Y-49357361D01*
X26237727Y-49922048D01*
X25931210Y-50660224D01*
X25930512Y-51459509D01*
X20710000Y-51459509D01*
X20710000Y-43244159D01*
X24031446Y-43244159D01*
X24117852Y-43500643D01*
X24691336Y-43710458D01*
X25301460Y-43684839D01*
X25746148Y-43500643D01*
X25832554Y-43244159D01*
X24932000Y-42343605D01*
X24031446Y-43244159D01*
X20710000Y-43244159D01*
X20710000Y-41923336D01*
X23385542Y-41923336D01*
X23411161Y-42533460D01*
X23595357Y-42978148D01*
X23851841Y-43064554D01*
X24752395Y-42164000D01*
X25111605Y-42164000D01*
X26012159Y-43064554D01*
X26268643Y-42978148D01*
X26478458Y-42404664D01*
X26452839Y-41794540D01*
X26268643Y-41349852D01*
X26013804Y-41264000D01*
X28384560Y-41264000D01*
X28384560Y-43064000D01*
X28428838Y-43299317D01*
X28567910Y-43515441D01*
X28780110Y-43660431D01*
X29032000Y-43711440D01*
X29097000Y-43711440D01*
X29097000Y-45426000D01*
X29160561Y-45745541D01*
X29267220Y-45905167D01*
X29341566Y-46016434D01*
X30915000Y-47589868D01*
X30915000Y-52915788D01*
X30683809Y-53011314D01*
X30153178Y-53541021D01*
X29865648Y-54233469D01*
X29864994Y-54983241D01*
X30151314Y-55676191D01*
X30681021Y-56206822D01*
X30915000Y-56303979D01*
X30915000Y-57808077D01*
X30800943Y-57829538D01*
X30735922Y-57871378D01*
X30558049Y-57797700D01*
X30067250Y-57797700D01*
X29908500Y-57956450D01*
X29908500Y-59055000D01*
X29928500Y-59055000D01*
X29928500Y-59309000D01*
X29908500Y-59309000D01*
X29908500Y-60407550D01*
X30067250Y-60566300D01*
X30558049Y-60566300D01*
X30734095Y-60493379D01*
X30784370Y-60527731D01*
X31036260Y-60578740D01*
X32336740Y-60578740D01*
X32572057Y-60534462D01*
X32788181Y-60395390D01*
X32933171Y-60183190D01*
X32984180Y-59931300D01*
X32984180Y-58432700D01*
X32939902Y-58197383D01*
X32800830Y-57981259D01*
X32588630Y-57836269D01*
X32585000Y-57835534D01*
X32585000Y-56304212D01*
X32816191Y-56208686D01*
X33346822Y-55678979D01*
X33634352Y-54986531D01*
X33635006Y-54236759D01*
X33348686Y-53543809D01*
X32818979Y-53013178D01*
X32585000Y-52916021D01*
X32585000Y-47244000D01*
X32521439Y-46924459D01*
X32340434Y-46653566D01*
X30991027Y-45304159D01*
X37707446Y-45304159D01*
X37793852Y-45560643D01*
X38367336Y-45770458D01*
X38977460Y-45744839D01*
X39422148Y-45560643D01*
X39508554Y-45304159D01*
X38608000Y-44403605D01*
X37707446Y-45304159D01*
X30991027Y-45304159D01*
X30767000Y-45080132D01*
X30767000Y-43983336D01*
X37061542Y-43983336D01*
X37087161Y-44593460D01*
X37271357Y-45038148D01*
X37527841Y-45124554D01*
X38428395Y-44224000D01*
X38787605Y-44224000D01*
X39688159Y-45124554D01*
X39944643Y-45038148D01*
X40154458Y-44464664D01*
X40128839Y-43854540D01*
X39944643Y-43409852D01*
X39688159Y-43323446D01*
X38787605Y-44224000D01*
X38428395Y-44224000D01*
X37527841Y-43323446D01*
X37271357Y-43409852D01*
X37061542Y-43983336D01*
X30767000Y-43983336D01*
X30767000Y-43711440D01*
X30832000Y-43711440D01*
X31067317Y-43667162D01*
X31283441Y-43528090D01*
X31428431Y-43315890D01*
X31463271Y-43143841D01*
X37707446Y-43143841D01*
X38608000Y-44044395D01*
X39508554Y-43143841D01*
X39422148Y-42887357D01*
X38848664Y-42677542D01*
X38238540Y-42703161D01*
X37793852Y-42887357D01*
X37707446Y-43143841D01*
X31463271Y-43143841D01*
X31479440Y-43064000D01*
X31479440Y-41264000D01*
X31435162Y-41028683D01*
X31296090Y-40812559D01*
X31128672Y-40698167D01*
X45927838Y-40698167D01*
X46069883Y-41041943D01*
X46332673Y-41305192D01*
X46676201Y-41447838D01*
X47048167Y-41448162D01*
X47391943Y-41306117D01*
X47425118Y-41273000D01*
X92870928Y-41273000D01*
X92932883Y-41422943D01*
X93195673Y-41686192D01*
X93539201Y-41828838D01*
X93911167Y-41829162D01*
X94254943Y-41687117D01*
X94518192Y-41424327D01*
X94660838Y-41080799D01*
X94661162Y-40708833D01*
X94519117Y-40365057D01*
X94256327Y-40101808D01*
X93912799Y-39959162D01*
X93857729Y-39959114D01*
X93635839Y-39810852D01*
X93345000Y-39753000D01*
X47425463Y-39753000D01*
X47393327Y-39720808D01*
X47049799Y-39578162D01*
X46677833Y-39577838D01*
X46334057Y-39719883D01*
X46070808Y-39982673D01*
X45928162Y-40326201D01*
X45927838Y-40698167D01*
X31128672Y-40698167D01*
X31083890Y-40667569D01*
X30832000Y-40616560D01*
X30767000Y-40616560D01*
X30767000Y-40263868D01*
X32398128Y-38632740D01*
X35078930Y-38632740D01*
X35078930Y-38848030D01*
X35123208Y-39083347D01*
X35262280Y-39299471D01*
X35474480Y-39444461D01*
X35726370Y-39495470D01*
X37425630Y-39495470D01*
X37660947Y-39451192D01*
X37877071Y-39312120D01*
X38022061Y-39099920D01*
X38073070Y-38848030D01*
X38073070Y-36747450D01*
X38028792Y-36512133D01*
X37889720Y-36296009D01*
X37677520Y-36151019D01*
X37425630Y-36100010D01*
X35726370Y-36100010D01*
X35491053Y-36144288D01*
X35274929Y-36283360D01*
X35129939Y-36495560D01*
X35078930Y-36747450D01*
X35078930Y-36962740D01*
X32052260Y-36962740D01*
X31732719Y-37026301D01*
X31461826Y-37207306D01*
X29341566Y-39327566D01*
X29160561Y-39598459D01*
X29097000Y-39918000D01*
X29097000Y-40616560D01*
X29032000Y-40616560D01*
X28796683Y-40660838D01*
X28580559Y-40799910D01*
X28435569Y-41012110D01*
X28384560Y-41264000D01*
X26013804Y-41264000D01*
X26012159Y-41263446D01*
X25111605Y-42164000D01*
X24752395Y-42164000D01*
X23851841Y-41263446D01*
X23595357Y-41349852D01*
X23385542Y-41923336D01*
X20710000Y-41923336D01*
X20710000Y-41083841D01*
X24031446Y-41083841D01*
X24932000Y-41984395D01*
X25832554Y-41083841D01*
X25746148Y-40827357D01*
X25172664Y-40617542D01*
X24562540Y-40643161D01*
X24117852Y-40827357D01*
X24031446Y-41083841D01*
X20710000Y-41083841D01*
X20710000Y-34383334D01*
X28595741Y-34383334D01*
X28626687Y-34511139D01*
X28939798Y-35068936D01*
X29442535Y-35464451D01*
X30058360Y-35637470D01*
X31059120Y-35637470D01*
X31059120Y-34129980D01*
X31313120Y-34129980D01*
X31313120Y-35637470D01*
X32313880Y-35637470D01*
X32929705Y-35464451D01*
X33432442Y-35068936D01*
X33745553Y-34511139D01*
X33776499Y-34383334D01*
X33657145Y-34129980D01*
X31313120Y-34129980D01*
X31059120Y-34129980D01*
X28715095Y-34129980D01*
X28595741Y-34383334D01*
X20710000Y-34383334D01*
X20710000Y-33622626D01*
X28595741Y-33622626D01*
X28715095Y-33875980D01*
X31059120Y-33875980D01*
X31059120Y-32368490D01*
X31313120Y-32368490D01*
X31313120Y-33875980D01*
X33657145Y-33875980D01*
X33776499Y-33622626D01*
X33745553Y-33494821D01*
X33432442Y-32937024D01*
X32929705Y-32541509D01*
X32313880Y-32368490D01*
X31313120Y-32368490D01*
X31059120Y-32368490D01*
X30058360Y-32368490D01*
X29442535Y-32541509D01*
X28939798Y-32937024D01*
X28626687Y-33494821D01*
X28595741Y-33622626D01*
X20710000Y-33622626D01*
X20710000Y-28829000D01*
X26300430Y-28829000D01*
X26300430Y-29829760D01*
X26473449Y-30445585D01*
X26868964Y-30948322D01*
X27426761Y-31261433D01*
X27554566Y-31292379D01*
X27807920Y-31173025D01*
X27807920Y-28829000D01*
X28061920Y-28829000D01*
X28061920Y-31173025D01*
X28315274Y-31292379D01*
X28443079Y-31261433D01*
X29000876Y-30948322D01*
X29396391Y-30445585D01*
X29569410Y-29829760D01*
X29569410Y-28829000D01*
X28061920Y-28829000D01*
X27807920Y-28829000D01*
X26300430Y-28829000D01*
X20710000Y-28829000D01*
X20710000Y-27574240D01*
X26300430Y-27574240D01*
X26300430Y-28575000D01*
X27807920Y-28575000D01*
X27807920Y-26230975D01*
X28061920Y-26230975D01*
X28061920Y-28575000D01*
X29569410Y-28575000D01*
X29569410Y-27574240D01*
X29518918Y-27394521D01*
X32302450Y-27394521D01*
X32302450Y-30009479D01*
X32426868Y-30634971D01*
X32781181Y-31165238D01*
X33311448Y-31519551D01*
X33936940Y-31643969D01*
X34562432Y-31519551D01*
X35092699Y-31165238D01*
X35447012Y-30634971D01*
X35571430Y-30009479D01*
X35571430Y-29894298D01*
X35741000Y-30063868D01*
X35741000Y-32640530D01*
X35726370Y-32640530D01*
X35491053Y-32684808D01*
X35274929Y-32823880D01*
X35129939Y-33036080D01*
X35078930Y-33287970D01*
X35078930Y-35388550D01*
X35123208Y-35623867D01*
X35262280Y-35839991D01*
X35474480Y-35984981D01*
X35726370Y-36035990D01*
X37425630Y-36035990D01*
X37660947Y-35991712D01*
X37877071Y-35852640D01*
X38022061Y-35640440D01*
X38073070Y-35388550D01*
X38073070Y-34533877D01*
X48246528Y-34533877D01*
X48406295Y-34852632D01*
X49197017Y-35162595D01*
X50046166Y-35146367D01*
X50755305Y-34852632D01*
X50915072Y-34533877D01*
X49580800Y-33199605D01*
X48246528Y-34533877D01*
X38073070Y-34533877D01*
X38073070Y-33287970D01*
X38028792Y-33052653D01*
X37889720Y-32836529D01*
X37677520Y-32691539D01*
X37425630Y-32640530D01*
X37411000Y-32640530D01*
X37411000Y-32636217D01*
X47438205Y-32636217D01*
X47454433Y-33485366D01*
X47748168Y-34194505D01*
X48066923Y-34354272D01*
X49401195Y-33020000D01*
X49760405Y-33020000D01*
X51094677Y-34354272D01*
X51413432Y-34194505D01*
X51723395Y-33403783D01*
X51707167Y-32554634D01*
X51413432Y-31845495D01*
X51094677Y-31685728D01*
X49760405Y-33020000D01*
X49401195Y-33020000D01*
X48066923Y-31685728D01*
X47748168Y-31845495D01*
X47438205Y-32636217D01*
X37411000Y-32636217D01*
X37411000Y-31506123D01*
X48246528Y-31506123D01*
X49580800Y-32840395D01*
X50915072Y-31506123D01*
X50755305Y-31187368D01*
X49964583Y-30877405D01*
X49115434Y-30893633D01*
X48406295Y-31187368D01*
X48246528Y-31506123D01*
X37411000Y-31506123D01*
X37411000Y-29718000D01*
X37347439Y-29398459D01*
X37166434Y-29127566D01*
X36150434Y-28111566D01*
X36095709Y-28075000D01*
X35879541Y-27930561D01*
X35571430Y-27869274D01*
X35571430Y-27394521D01*
X35447012Y-26769029D01*
X35092699Y-26238762D01*
X34562432Y-25884449D01*
X33936940Y-25760031D01*
X33311448Y-25884449D01*
X32781181Y-26238762D01*
X32426868Y-26769029D01*
X32302450Y-27394521D01*
X29518918Y-27394521D01*
X29396391Y-26958415D01*
X29000876Y-26455678D01*
X28443079Y-26142567D01*
X28315274Y-26111621D01*
X28061920Y-26230975D01*
X27807920Y-26230975D01*
X27554566Y-26111621D01*
X27426761Y-26142567D01*
X26868964Y-26455678D01*
X26473449Y-26958415D01*
X26300430Y-27574240D01*
X20710000Y-27574240D01*
X20710000Y-24524390D01*
X99362260Y-24524390D01*
X99362260Y-25114250D01*
X99521010Y-25273000D01*
X100520500Y-25273000D01*
X100520500Y-24174450D01*
X100361750Y-24015700D01*
X99870951Y-24015700D01*
X99637562Y-24112373D01*
X99458933Y-24291001D01*
X99362260Y-24524390D01*
X20710000Y-24524390D01*
X20710000Y-22474398D01*
X20814190Y-22474398D01*
X21024686Y-22983837D01*
X21414113Y-23373944D01*
X21923184Y-23585329D01*
X22474398Y-23585810D01*
X22983837Y-23375314D01*
X23373944Y-22985887D01*
X23585329Y-22476816D01*
X23585810Y-21925602D01*
X23375314Y-21416163D01*
X22985887Y-21026056D01*
X22476816Y-20814671D01*
X21925602Y-20814190D01*
X21416163Y-21024686D01*
X21026056Y-21414113D01*
X20814671Y-21923184D01*
X20814190Y-22474398D01*
X20710000Y-22474398D01*
X20710000Y-20710000D01*
X66120881Y-20710000D01*
X66120838Y-20759167D01*
X66120838Y-20759167D01*
G37*
X66120838Y-20759167D02*
X66262883Y-21102943D01*
X66525673Y-21366192D01*
X66869201Y-21508838D01*
X67241167Y-21509162D01*
X67483578Y-21409000D01*
X99857132Y-21409000D01*
X101717500Y-23269368D01*
X101717500Y-24038025D01*
X101666943Y-24047538D01*
X101601922Y-24089378D01*
X101424049Y-24015700D01*
X100933250Y-24015700D01*
X100774500Y-24174450D01*
X100774500Y-25273000D01*
X100794500Y-25273000D01*
X100794500Y-25527000D01*
X100774500Y-25527000D01*
X100774500Y-25547000D01*
X100520500Y-25547000D01*
X100520500Y-25527000D01*
X99521010Y-25527000D01*
X99362260Y-25685750D01*
X99362260Y-26275610D01*
X99368635Y-26291000D01*
X43307000Y-26291000D01*
X43016160Y-26348852D01*
X42794613Y-26496885D01*
X42740833Y-26496838D01*
X42397057Y-26638883D01*
X42133808Y-26901673D01*
X41991162Y-27245201D01*
X41991101Y-27315000D01*
X41394000Y-27315000D01*
X41103161Y-27372852D01*
X40893581Y-27512888D01*
X40835833Y-27512838D01*
X40492057Y-27654883D01*
X40228808Y-27917673D01*
X40086162Y-28261201D01*
X40085838Y-28633167D01*
X40227883Y-28976943D01*
X40490673Y-29240192D01*
X40834201Y-29382838D01*
X41206167Y-29383162D01*
X41549943Y-29241117D01*
X41813192Y-28978327D01*
X41872707Y-28835000D01*
X104201510Y-28835000D01*
X104353740Y-29062828D01*
X104776039Y-29345000D01*
X104353740Y-29627172D01*
X104201510Y-29855000D01*
X62707378Y-29855000D01*
X62642117Y-29697057D01*
X62379327Y-29433808D01*
X62035799Y-29291162D01*
X61663833Y-29290838D01*
X61320057Y-29432883D01*
X61056808Y-29695673D01*
X60914162Y-30039201D01*
X60913838Y-30411167D01*
X61055883Y-30754943D01*
X61318673Y-31018192D01*
X61662201Y-31160838D01*
X61713293Y-31160883D01*
X61947161Y-31317148D01*
X62238000Y-31375000D01*
X67962207Y-31375000D01*
X67932560Y-31521400D01*
X67932560Y-32185000D01*
X53086000Y-32185000D01*
X52766459Y-32248561D01*
X52593607Y-32364057D01*
X52495566Y-32429566D01*
X52416667Y-32508465D01*
X52176057Y-32607883D01*
X51912808Y-32870673D01*
X51770162Y-33214201D01*
X51769838Y-33586167D01*
X51911883Y-33929943D01*
X52174673Y-34193192D01*
X52518201Y-34335838D01*
X52890167Y-34336162D01*
X53233943Y-34194117D01*
X53497192Y-33931327D01*
X53528886Y-33855000D01*
X67932560Y-33855000D01*
X67932560Y-34518600D01*
X67976838Y-34753917D01*
X68115910Y-34970041D01*
X68328110Y-35115031D01*
X68580000Y-35166040D01*
X71577200Y-35166040D01*
X71812517Y-35121762D01*
X72028641Y-34982690D01*
X72173631Y-34770490D01*
X72224640Y-34518600D01*
X72224640Y-33855000D01*
X74315628Y-33855000D01*
X74399673Y-33939192D01*
X74743201Y-34081838D01*
X75115167Y-34082162D01*
X75458943Y-33940117D01*
X75722192Y-33677327D01*
X75864838Y-33333799D01*
X75865162Y-32961833D01*
X75723117Y-32618057D01*
X75460327Y-32354808D01*
X75116799Y-32212162D01*
X74938772Y-32212007D01*
X74803000Y-32185000D01*
X72224640Y-32185000D01*
X72224640Y-31521400D01*
X72197093Y-31375000D01*
X102303653Y-31375000D01*
X102204808Y-31473673D01*
X102062162Y-31817201D01*
X102061838Y-32189167D01*
X102146886Y-32395000D01*
X98468902Y-32395000D01*
X98456117Y-32364057D01*
X98193327Y-32100808D01*
X97849799Y-31958162D01*
X97477833Y-31957838D01*
X97134057Y-32099883D01*
X96870808Y-32362673D01*
X96728162Y-32706201D01*
X96727838Y-33078167D01*
X96869883Y-33421943D01*
X97104530Y-33657000D01*
X80064241Y-33657000D01*
X79905327Y-33497808D01*
X79561799Y-33355162D01*
X79189833Y-33354838D01*
X78846057Y-33496883D01*
X78582808Y-33759673D01*
X78440162Y-34103201D01*
X78439838Y-34475167D01*
X78554247Y-34752059D01*
X78300833Y-34751838D01*
X77957057Y-34893883D01*
X77693808Y-35156673D01*
X77551162Y-35500201D01*
X77550838Y-35872167D01*
X77692883Y-36215943D01*
X77955673Y-36479192D01*
X78299201Y-36621838D01*
X78671167Y-36622162D01*
X79014943Y-36480117D01*
X79048118Y-36447000D01*
X82758001Y-36447000D01*
X82757838Y-36634167D01*
X82899883Y-36977943D01*
X83162673Y-37241192D01*
X83506201Y-37383838D01*
X83878167Y-37384162D01*
X84221943Y-37242117D01*
X84255118Y-37209000D01*
X103190198Y-37209000D01*
X103475599Y-37494401D01*
X103722161Y-37659148D01*
X104013000Y-37717000D01*
X104047604Y-37717000D01*
X103944568Y-38235000D01*
X104050908Y-38769609D01*
X104353740Y-39222828D01*
X104776039Y-39505000D01*
X104353740Y-39787172D01*
X104050908Y-40240391D01*
X103944568Y-40775000D01*
X104050908Y-41309609D01*
X104353740Y-41762828D01*
X104776039Y-42045000D01*
X104353740Y-42327172D01*
X104050908Y-42780391D01*
X103944568Y-43315000D01*
X104050908Y-43849609D01*
X104353740Y-44302828D01*
X104776039Y-44585000D01*
X104353740Y-44867172D01*
X104050908Y-45320391D01*
X103944568Y-45855000D01*
X104044422Y-46357000D01*
X95300333Y-46357000D01*
X95407192Y-46250327D01*
X95549838Y-45906799D01*
X95550162Y-45534833D01*
X95408117Y-45191057D01*
X95145327Y-44927808D01*
X94801799Y-44785162D01*
X94429833Y-44784838D01*
X94086057Y-44926883D01*
X94052882Y-44960000D01*
X92891463Y-44960000D01*
X92859327Y-44927808D01*
X92515799Y-44785162D01*
X92143833Y-44784838D01*
X92123948Y-44793054D01*
X91966934Y-44558066D01*
X91697535Y-44288667D01*
X91598117Y-44048057D01*
X91335327Y-43784808D01*
X90991799Y-43642162D01*
X90619833Y-43641838D01*
X90276057Y-43783883D01*
X90012808Y-44046673D01*
X89870162Y-44390201D01*
X89869838Y-44762167D01*
X90011883Y-45105943D01*
X90274673Y-45369192D01*
X90516910Y-45469778D01*
X90541500Y-45494368D01*
X90541500Y-46390025D01*
X90490943Y-46399538D01*
X90425454Y-46441679D01*
X90373630Y-46406269D01*
X90121740Y-46355260D01*
X88821260Y-46355260D01*
X88585943Y-46399538D01*
X88369819Y-46538610D01*
X88224829Y-46750810D01*
X88175987Y-46992000D01*
X88117689Y-46992000D01*
X88103622Y-46917243D01*
X87964550Y-46701119D01*
X87752350Y-46556129D01*
X87500460Y-46505120D01*
X86301580Y-46505120D01*
X86066263Y-46549398D01*
X85850139Y-46688470D01*
X85849457Y-46689467D01*
X85654310Y-46556129D01*
X85402420Y-46505120D01*
X84203540Y-46505120D01*
X84072000Y-46529871D01*
X84072000Y-43488463D01*
X84104192Y-43456327D01*
X84246838Y-43112799D01*
X84247162Y-42740833D01*
X84105117Y-42397057D01*
X83842327Y-42133808D01*
X83498799Y-41991162D01*
X83126833Y-41990838D01*
X82783057Y-42132883D01*
X82519808Y-42395673D01*
X82377162Y-42739201D01*
X82376838Y-43111167D01*
X82518883Y-43454943D01*
X82552000Y-43488118D01*
X82552000Y-45154676D01*
X82529890Y-45139569D01*
X82278000Y-45088560D01*
X80278000Y-45088560D01*
X80135000Y-45115467D01*
X80135000Y-43615463D01*
X80167192Y-43583327D01*
X80309838Y-43239799D01*
X80310162Y-42867833D01*
X80168117Y-42524057D01*
X79905327Y-42260808D01*
X79561799Y-42118162D01*
X79189833Y-42117838D01*
X78846057Y-42259883D01*
X78803656Y-42302210D01*
X78762327Y-42260808D01*
X78418799Y-42118162D01*
X78046833Y-42117838D01*
X77703057Y-42259883D01*
X77439808Y-42522673D01*
X77297162Y-42866201D01*
X77296838Y-43238167D01*
X77438883Y-43581943D01*
X77472000Y-43615118D01*
X77472000Y-48078537D01*
X77439808Y-48110673D01*
X77301314Y-48444202D01*
X77292630Y-48438269D01*
X77040740Y-48387260D01*
X75740260Y-48387260D01*
X75504943Y-48431538D01*
X75439454Y-48473679D01*
X75387630Y-48438269D01*
X75135740Y-48387260D01*
X73835260Y-48387260D01*
X73599943Y-48431538D01*
X73383819Y-48570610D01*
X73238829Y-48782810D01*
X73202076Y-48964301D01*
X72959459Y-49012561D01*
X72755653Y-49148740D01*
X72688566Y-49193566D01*
X71579740Y-50302392D01*
X71579740Y-49815750D01*
X71420990Y-49657000D01*
X70421500Y-49657000D01*
X70421500Y-49677000D01*
X70167500Y-49677000D01*
X70167500Y-49657000D01*
X70147500Y-49657000D01*
X70147500Y-49403000D01*
X70167500Y-49403000D01*
X70167500Y-48304450D01*
X70421500Y-48304450D01*
X70421500Y-49403000D01*
X71420990Y-49403000D01*
X71579740Y-49244250D01*
X71579740Y-48654390D01*
X71483067Y-48421001D01*
X71380225Y-48318160D01*
X73135490Y-48318160D01*
X73370807Y-48273882D01*
X73586931Y-48134810D01*
X73589534Y-48131000D01*
X74523000Y-48131000D01*
X74813839Y-48073148D01*
X74997044Y-47950735D01*
X75146675Y-47920971D01*
X75433790Y-47729128D01*
X75625633Y-47442013D01*
X75693000Y-47103338D01*
X75693000Y-47068662D01*
X75626829Y-46736000D01*
X75693000Y-46403338D01*
X75693000Y-46368662D01*
X75625633Y-46029987D01*
X75433790Y-45742872D01*
X75146675Y-45551029D01*
X74997044Y-45521265D01*
X74930035Y-45476491D01*
X75012434Y-45421434D01*
X75520434Y-44913435D01*
X75655028Y-44712000D01*
X75701439Y-44642541D01*
X75765000Y-44323000D01*
X75765000Y-43480234D01*
X75864838Y-43239799D01*
X75865162Y-42867833D01*
X75723117Y-42524057D01*
X75460327Y-42260808D01*
X75116799Y-42118162D01*
X74744833Y-42117838D01*
X74401057Y-42259883D01*
X74137808Y-42522673D01*
X73995162Y-42866201D01*
X73994838Y-43238167D01*
X74095000Y-43480578D01*
X74095000Y-43977131D01*
X74076132Y-43996000D01*
X73766774Y-43996000D01*
X73770490Y-43987029D01*
X73770490Y-43846750D01*
X73611740Y-43688000D01*
X72263000Y-43688000D01*
X72263000Y-43708000D01*
X72009000Y-43708000D01*
X72009000Y-43688000D01*
X70660260Y-43688000D01*
X70501510Y-43846750D01*
X70501510Y-43987029D01*
X70591461Y-44204190D01*
X70540079Y-44279390D01*
X70489070Y-44531280D01*
X70489070Y-45130720D01*
X70533348Y-45366037D01*
X70597374Y-45465536D01*
X70540079Y-45549390D01*
X70489070Y-45801280D01*
X70489070Y-46400720D01*
X70533348Y-46636037D01*
X70597374Y-46735536D01*
X70540079Y-46819390D01*
X70489070Y-47071280D01*
X70489070Y-47670720D01*
X70533348Y-47906037D01*
X70672420Y-48122161D01*
X70706870Y-48145700D01*
X70580250Y-48145700D01*
X70421500Y-48304450D01*
X70167500Y-48304450D01*
X70008750Y-48145700D01*
X69517951Y-48145700D01*
X69341905Y-48218621D01*
X69291630Y-48184269D01*
X69224500Y-48170675D01*
X69224500Y-47840320D01*
X69362943Y-47783117D01*
X69626192Y-47520327D01*
X69768838Y-47176799D01*
X69769162Y-46804833D01*
X69627117Y-46461057D01*
X69364327Y-46197808D01*
X69020799Y-46055162D01*
X68648833Y-46054838D01*
X68305057Y-46196883D01*
X68194930Y-46306818D01*
X68194930Y-45801280D01*
X68150652Y-45565963D01*
X68086626Y-45466464D01*
X68143921Y-45382610D01*
X68194930Y-45130720D01*
X68194930Y-44531280D01*
X68150652Y-44295963D01*
X68086626Y-44196464D01*
X68143921Y-44112610D01*
X68194930Y-43860720D01*
X68194930Y-43261280D01*
X68171164Y-43134971D01*
X70501510Y-43134971D01*
X70501510Y-43275250D01*
X70660260Y-43434000D01*
X72009000Y-43434000D01*
X72009000Y-42785030D01*
X72263000Y-42785030D01*
X72263000Y-43434000D01*
X73611740Y-43434000D01*
X73770490Y-43275250D01*
X73770490Y-43134971D01*
X73673817Y-42901582D01*
X73495189Y-42722953D01*
X73261800Y-42626280D01*
X72421750Y-42626280D01*
X72263000Y-42785030D01*
X72009000Y-42785030D01*
X71850250Y-42626280D01*
X71010200Y-42626280D01*
X70776811Y-42722953D01*
X70598183Y-42901582D01*
X70501510Y-43134971D01*
X68171164Y-43134971D01*
X68150652Y-43025963D01*
X68011580Y-42809839D01*
X67799380Y-42664849D01*
X67547490Y-42613840D01*
X65548510Y-42613840D01*
X65313193Y-42658118D01*
X65097069Y-42797190D01*
X65094466Y-42801000D01*
X64389000Y-42801000D01*
X64098161Y-42858852D01*
X63851599Y-43023599D01*
X63216599Y-43658599D01*
X63051852Y-43905161D01*
X62994000Y-44196000D01*
X62994000Y-45928001D01*
X62806833Y-45927838D01*
X62463057Y-46069883D01*
X62199808Y-46332673D01*
X62084236Y-46611000D01*
X48441463Y-46611000D01*
X48409327Y-46578808D01*
X48065799Y-46436162D01*
X47693833Y-46435838D01*
X47350057Y-46577883D01*
X47086808Y-46840673D01*
X46944162Y-47184201D01*
X46943952Y-47425000D01*
X45212000Y-47425000D01*
X45076304Y-47451992D01*
X44899833Y-47451838D01*
X44556057Y-47593883D01*
X44292808Y-47856673D01*
X44150162Y-48200201D01*
X44149838Y-48572167D01*
X44200591Y-48695000D01*
X44033868Y-48695000D01*
X42472434Y-47133566D01*
X42428694Y-47104340D01*
X42201541Y-46952561D01*
X41882000Y-46889000D01*
X40155440Y-46889000D01*
X40155440Y-46824000D01*
X40111162Y-46588683D01*
X39972090Y-46372559D01*
X39759890Y-46227569D01*
X39508000Y-46176560D01*
X37708000Y-46176560D01*
X37472683Y-46220838D01*
X37256559Y-46359910D01*
X37111569Y-46572110D01*
X37060560Y-46824000D01*
X37060560Y-48624000D01*
X37104838Y-48859317D01*
X37243910Y-49075441D01*
X37456110Y-49220431D01*
X37708000Y-49271440D01*
X39508000Y-49271440D01*
X39743317Y-49227162D01*
X39959441Y-49088090D01*
X40104431Y-48875890D01*
X40155440Y-48624000D01*
X40155440Y-48559000D01*
X41536132Y-48559000D01*
X43097566Y-50120434D01*
X43368460Y-50301440D01*
X43688000Y-50365000D01*
X62056766Y-50365000D01*
X62297201Y-50464838D01*
X62669167Y-50465162D01*
X62911578Y-50365000D01*
X67107946Y-50365000D01*
X67136098Y-50514617D01*
X67275170Y-50730741D01*
X67487370Y-50875731D01*
X67554500Y-50889325D01*
X67554500Y-50990500D01*
X67618061Y-51310041D01*
X67791193Y-51569151D01*
X67799066Y-51580934D01*
X67988280Y-51770148D01*
X67632833Y-51769838D01*
X67289057Y-51911883D01*
X67025808Y-52174673D01*
X66883162Y-52518201D01*
X66882838Y-52890167D01*
X67024883Y-53233943D01*
X67058000Y-53267118D01*
X67058000Y-53975000D01*
X67115852Y-54265839D01*
X67280599Y-54512401D01*
X67947000Y-55178802D01*
X67947000Y-55565198D01*
X67673241Y-55838957D01*
X67736838Y-55685799D01*
X67737162Y-55313833D01*
X67595117Y-54970057D01*
X67332327Y-54706808D01*
X66988799Y-54564162D01*
X66616833Y-54563838D01*
X66273057Y-54705883D01*
X66009808Y-54968673D01*
X65867162Y-55312201D01*
X65866838Y-55684167D01*
X66008883Y-56027943D01*
X66042000Y-56061118D01*
X66042000Y-56708198D01*
X66010599Y-56739599D01*
X65845852Y-56986161D01*
X65788000Y-57277000D01*
X65788000Y-58022638D01*
X65278000Y-57921193D01*
X64768000Y-58022638D01*
X64768000Y-53848000D01*
X64710148Y-53557161D01*
X64545401Y-53310599D01*
X64308122Y-53073320D01*
X64308162Y-53027833D01*
X64166117Y-52684057D01*
X63903327Y-52420808D01*
X63559799Y-52278162D01*
X63187833Y-52277838D01*
X62844057Y-52419883D01*
X62756790Y-52506998D01*
X62756790Y-52086510D01*
X62712512Y-51851193D01*
X62573440Y-51635069D01*
X62361240Y-51490079D01*
X62109350Y-51439070D01*
X56610250Y-51439070D01*
X56374933Y-51483348D01*
X56158809Y-51622420D01*
X56013819Y-51834620D01*
X55962810Y-52086510D01*
X55962810Y-54085490D01*
X56007088Y-54320807D01*
X56146160Y-54536931D01*
X56358360Y-54681921D01*
X56610250Y-54732930D01*
X58492268Y-54732930D01*
X58105198Y-55120000D01*
X57712463Y-55120000D01*
X57680327Y-55087808D01*
X57336799Y-54945162D01*
X56964833Y-54944838D01*
X56621057Y-55086883D01*
X56574415Y-55133444D01*
X56399414Y-55168254D01*
X56351160Y-55177852D01*
X56104599Y-55342599D01*
X54580599Y-56866599D01*
X54415852Y-57113161D01*
X54358000Y-57404000D01*
X54358000Y-58180187D01*
X54138254Y-58327017D01*
X53848000Y-58761412D01*
X53557746Y-58327017D01*
X53338000Y-58180187D01*
X53338000Y-57404000D01*
X53318439Y-57305660D01*
X53280148Y-57113160D01*
X53115401Y-56866599D01*
X51227122Y-54978320D01*
X51227162Y-54932833D01*
X51144564Y-54732930D01*
X52609750Y-54732930D01*
X52845067Y-54688652D01*
X53061191Y-54549580D01*
X53206181Y-54337380D01*
X53257190Y-54085490D01*
X53257190Y-52086510D01*
X53212912Y-51851193D01*
X53073840Y-51635069D01*
X52861640Y-51490079D01*
X52609750Y-51439070D01*
X47110650Y-51439070D01*
X46875333Y-51483348D01*
X46659209Y-51622420D01*
X46514219Y-51834620D01*
X46463210Y-52086510D01*
X46463210Y-54085490D01*
X46507488Y-54320807D01*
X46646560Y-54536931D01*
X46858760Y-54681921D01*
X47110650Y-54732930D01*
X49109495Y-54732930D01*
X49158052Y-54977039D01*
X49322799Y-55223601D01*
X49356878Y-55257680D01*
X49356838Y-55303167D01*
X49498883Y-55646943D01*
X49761673Y-55910192D01*
X50105201Y-56052838D01*
X50152077Y-56052879D01*
X51818000Y-57718802D01*
X51818000Y-58180187D01*
X51598254Y-58327017D01*
X51308000Y-58761412D01*
X51017746Y-58327017D01*
X50568235Y-58026663D01*
X50038000Y-57921193D01*
X49507765Y-58026663D01*
X49058254Y-58327017D01*
X48768000Y-58761412D01*
X48477746Y-58327017D01*
X48028235Y-58026663D01*
X47498000Y-57921193D01*
X46967765Y-58026663D01*
X46518254Y-58327017D01*
X46228000Y-58761412D01*
X45937746Y-58327017D01*
X45488235Y-58026663D01*
X44958000Y-57921193D01*
X44427765Y-58026663D01*
X43978254Y-58327017D01*
X43688000Y-58761412D01*
X43397746Y-58327017D01*
X42948235Y-58026663D01*
X42418000Y-57921193D01*
X41887765Y-58026663D01*
X41438254Y-58327017D01*
X41137900Y-58776528D01*
X41032430Y-59306763D01*
X41032430Y-60073237D01*
X41137900Y-60603472D01*
X41438254Y-61052983D01*
X41887765Y-61353337D01*
X42418000Y-61458807D01*
X42948235Y-61353337D01*
X43397746Y-61052983D01*
X43688000Y-60618588D01*
X43978254Y-61052983D01*
X44427765Y-61353337D01*
X44958000Y-61458807D01*
X45488235Y-61353337D01*
X45937746Y-61052983D01*
X46228000Y-60618588D01*
X46518254Y-61052983D01*
X46967765Y-61353337D01*
X47498000Y-61458807D01*
X48028235Y-61353337D01*
X48477746Y-61052983D01*
X48768000Y-60618588D01*
X49058254Y-61052983D01*
X49507765Y-61353337D01*
X50038000Y-61458807D01*
X50568235Y-61353337D01*
X51017746Y-61052983D01*
X51308000Y-60618588D01*
X51598254Y-61052983D01*
X52047765Y-61353337D01*
X52578000Y-61458807D01*
X53108235Y-61353337D01*
X53557746Y-61052983D01*
X53848000Y-60618588D01*
X54138254Y-61052983D01*
X54587765Y-61353337D01*
X55118000Y-61458807D01*
X55648235Y-61353337D01*
X56097746Y-61052983D01*
X56398100Y-60603472D01*
X56399601Y-60595928D01*
X56426501Y-60686817D01*
X56768056Y-61108798D01*
X57245097Y-61367950D01*
X57316725Y-61382133D01*
X57531000Y-61259479D01*
X57531000Y-59817000D01*
X57511000Y-59817000D01*
X57511000Y-59563000D01*
X57531000Y-59563000D01*
X57531000Y-58120521D01*
X57316725Y-57997867D01*
X57245097Y-58012050D01*
X56768056Y-58271202D01*
X56426501Y-58693183D01*
X56399601Y-58784072D01*
X56398100Y-58776528D01*
X56097746Y-58327017D01*
X55878000Y-58180187D01*
X55878000Y-57718802D01*
X56835140Y-56761662D01*
X56963201Y-56814838D01*
X57335167Y-56815162D01*
X57678943Y-56673117D01*
X57712118Y-56640000D01*
X58420000Y-56640000D01*
X58710839Y-56582148D01*
X58957401Y-56417401D01*
X59897201Y-55477601D01*
X60061948Y-55231039D01*
X60119800Y-54940200D01*
X60119800Y-54732930D01*
X62109350Y-54732930D01*
X62344667Y-54688652D01*
X62560791Y-54549580D01*
X62705781Y-54337380D01*
X62756790Y-54085490D01*
X62756790Y-53919159D01*
X62842673Y-54005192D01*
X63186201Y-54147838D01*
X63233077Y-54147879D01*
X63248000Y-54162802D01*
X63248000Y-58022638D01*
X62738000Y-57921193D01*
X62207765Y-58026663D01*
X61758254Y-58327017D01*
X61468000Y-58761412D01*
X61177746Y-58327017D01*
X60728235Y-58026663D01*
X60198000Y-57921193D01*
X59667765Y-58026663D01*
X59218254Y-58327017D01*
X58917900Y-58776528D01*
X58916399Y-58784072D01*
X58889499Y-58693183D01*
X58547944Y-58271202D01*
X58070903Y-58012050D01*
X57999275Y-57997867D01*
X57785000Y-58120521D01*
X57785000Y-59563000D01*
X57805000Y-59563000D01*
X57805000Y-59817000D01*
X57785000Y-59817000D01*
X57785000Y-61259479D01*
X57999275Y-61382133D01*
X58070903Y-61367950D01*
X58547944Y-61108798D01*
X58889499Y-60686817D01*
X58916399Y-60595928D01*
X58917900Y-60603472D01*
X59218254Y-61052983D01*
X59667765Y-61353337D01*
X60198000Y-61458807D01*
X60728235Y-61353337D01*
X61177746Y-61052983D01*
X61468000Y-60618588D01*
X61758254Y-61052983D01*
X62207765Y-61353337D01*
X62738000Y-61458807D01*
X63248000Y-61357362D01*
X63248000Y-61849000D01*
X63305852Y-62139839D01*
X63470599Y-62386401D01*
X64518000Y-63433802D01*
X64518000Y-65800187D01*
X64298254Y-65947017D01*
X64008000Y-66381412D01*
X63717746Y-65947017D01*
X63268235Y-65646663D01*
X62738000Y-65541193D01*
X62207765Y-65646663D01*
X61758254Y-65947017D01*
X61457900Y-66396528D01*
X61456399Y-66404072D01*
X61429499Y-66313183D01*
X61087944Y-65891202D01*
X60610903Y-65632050D01*
X60539275Y-65617867D01*
X60325000Y-65740521D01*
X60325000Y-67183000D01*
X60345000Y-67183000D01*
X60345000Y-67437000D01*
X60325000Y-67437000D01*
X60325000Y-68879479D01*
X60539275Y-69002133D01*
X60610903Y-68987950D01*
X61087944Y-68728798D01*
X61429499Y-68306817D01*
X61456399Y-68215928D01*
X61457900Y-68223472D01*
X61758254Y-68672983D01*
X62207765Y-68973337D01*
X62738000Y-69078807D01*
X63268235Y-68973337D01*
X63717746Y-68672983D01*
X64008000Y-68238588D01*
X64298254Y-68672983D01*
X64747765Y-68973337D01*
X65278000Y-69078807D01*
X65808235Y-68973337D01*
X66257746Y-68672983D01*
X66548000Y-68238588D01*
X66838254Y-68672983D01*
X67287765Y-68973337D01*
X67818000Y-69078807D01*
X68348235Y-68973337D01*
X68797746Y-68672983D01*
X69088000Y-68238588D01*
X69378254Y-68672983D01*
X69827765Y-68973337D01*
X70358000Y-69078807D01*
X70888235Y-68973337D01*
X71337746Y-68672983D01*
X71628000Y-68238588D01*
X71918254Y-68672983D01*
X72138000Y-68819813D01*
X72138000Y-69303367D01*
X71814799Y-69169162D01*
X71442833Y-69168838D01*
X71099057Y-69310883D01*
X71065882Y-69344000D01*
X69469000Y-69344000D01*
X69178160Y-69401852D01*
X68931599Y-69566599D01*
X67884198Y-70614000D01*
X59871463Y-70614000D01*
X59839327Y-70581808D01*
X59495799Y-70439162D01*
X59123833Y-70438838D01*
X58780057Y-70580883D01*
X58516808Y-70843673D01*
X58374162Y-71187201D01*
X58374005Y-71367892D01*
X58360130Y-71381742D01*
X58355482Y-71306587D01*
X58226164Y-70994383D01*
X58000735Y-70944870D01*
X57317605Y-71628000D01*
X57331748Y-71642143D01*
X57152143Y-71821748D01*
X57138000Y-71807605D01*
X57123858Y-71821748D01*
X56944253Y-71642143D01*
X56958395Y-71628000D01*
X56944253Y-71613858D01*
X57123858Y-71434253D01*
X57138000Y-71448395D01*
X57821130Y-70765265D01*
X57771617Y-70539836D01*
X57306964Y-70380193D01*
X56816587Y-70410518D01*
X56594010Y-70502711D01*
X56489890Y-70431569D01*
X56238000Y-70380560D01*
X55878000Y-70380560D01*
X55878000Y-68819813D01*
X56097746Y-68672983D01*
X56398100Y-68223472D01*
X56399601Y-68215928D01*
X56426501Y-68306817D01*
X56768056Y-68728798D01*
X57245097Y-68987950D01*
X57316725Y-69002133D01*
X57531000Y-68879479D01*
X57531000Y-67437000D01*
X57785000Y-67437000D01*
X57785000Y-68879479D01*
X57999275Y-69002133D01*
X58070903Y-68987950D01*
X58547944Y-68728798D01*
X58889499Y-68306817D01*
X58928000Y-68176732D01*
X58966501Y-68306817D01*
X59308056Y-68728798D01*
X59785097Y-68987950D01*
X59856725Y-69002133D01*
X60071000Y-68879479D01*
X60071000Y-67437000D01*
X57785000Y-67437000D01*
X57531000Y-67437000D01*
X57511000Y-67437000D01*
X57511000Y-67183000D01*
X57531000Y-67183000D01*
X57531000Y-65740521D01*
X57785000Y-65740521D01*
X57785000Y-67183000D01*
X60071000Y-67183000D01*
X60071000Y-65740521D01*
X59856725Y-65617867D01*
X59785097Y-65632050D01*
X59308056Y-65891202D01*
X58966501Y-66313183D01*
X58928000Y-66443268D01*
X58889499Y-66313183D01*
X58547944Y-65891202D01*
X58070903Y-65632050D01*
X57999275Y-65617867D01*
X57785000Y-65740521D01*
X57531000Y-65740521D01*
X57316725Y-65617867D01*
X57245097Y-65632050D01*
X56768056Y-65891202D01*
X56426501Y-66313183D01*
X56399601Y-66404072D01*
X56398100Y-66396528D01*
X56097746Y-65947017D01*
X55648235Y-65646663D01*
X55118000Y-65541193D01*
X54587765Y-65646663D01*
X54138254Y-65947017D01*
X53848000Y-66381412D01*
X53557746Y-65947017D01*
X53108235Y-65646663D01*
X52578000Y-65541193D01*
X52047765Y-65646663D01*
X51598254Y-65947017D01*
X51308000Y-66381412D01*
X51017746Y-65947017D01*
X50568235Y-65646663D01*
X50038000Y-65541193D01*
X49507765Y-65646663D01*
X49058254Y-65947017D01*
X48768000Y-66381412D01*
X48477746Y-65947017D01*
X48028235Y-65646663D01*
X47498000Y-65541193D01*
X46967765Y-65646663D01*
X46518254Y-65947017D01*
X46228000Y-66381412D01*
X45937746Y-65947017D01*
X45488235Y-65646663D01*
X44958000Y-65541193D01*
X44427765Y-65646663D01*
X43978254Y-65947017D01*
X43688000Y-66381412D01*
X43397746Y-65947017D01*
X42948235Y-65646663D01*
X42418000Y-65541193D01*
X41887765Y-65646663D01*
X41438254Y-65947017D01*
X41137900Y-66396528D01*
X41032430Y-66926763D01*
X41032430Y-67693237D01*
X41137900Y-68223472D01*
X41438254Y-68672983D01*
X41887765Y-68973337D01*
X42418000Y-69078807D01*
X42948235Y-68973337D01*
X43397746Y-68672983D01*
X43688000Y-68238588D01*
X43978254Y-68672983D01*
X44427765Y-68973337D01*
X44958000Y-69078807D01*
X45488235Y-68973337D01*
X45937746Y-68672983D01*
X46228000Y-68238588D01*
X46518254Y-68672983D01*
X46967765Y-68973337D01*
X47498000Y-69078807D01*
X48028235Y-68973337D01*
X48477746Y-68672983D01*
X48768000Y-68238588D01*
X49058254Y-68672983D01*
X49507765Y-68973337D01*
X50038000Y-69078807D01*
X50568235Y-68973337D01*
X51017746Y-68672983D01*
X51308000Y-68238588D01*
X51598254Y-68672983D01*
X52047765Y-68973337D01*
X52578000Y-69078807D01*
X53108235Y-68973337D01*
X53557746Y-68672983D01*
X53848000Y-68238588D01*
X54138254Y-68672983D01*
X54358000Y-68819813D01*
X54358000Y-71108000D01*
X54376502Y-71201017D01*
X54170833Y-71200838D01*
X53827057Y-71342883D01*
X53563808Y-71605673D01*
X53553706Y-71630000D01*
X48099072Y-71630000D01*
X48037117Y-71480057D01*
X47774327Y-71216808D01*
X47430799Y-71074162D01*
X47058833Y-71073838D01*
X46715057Y-71215883D01*
X46451808Y-71478673D01*
X46309162Y-71822201D01*
X46308878Y-72147998D01*
X45536800Y-72147998D01*
X45512122Y-72123320D01*
X45512162Y-72077833D01*
X45370117Y-71734057D01*
X45107327Y-71470808D01*
X44763799Y-71328162D01*
X44391833Y-71327838D01*
X44048057Y-71469883D01*
X43784808Y-71732673D01*
X43642162Y-72076201D01*
X43641838Y-72448167D01*
X43745067Y-72698000D01*
X28666869Y-72698000D01*
X22425000Y-66456132D01*
X22425000Y-65115868D01*
X22735965Y-64804903D01*
X22733260Y-64818260D01*
X22733260Y-66118740D01*
X22777538Y-66354057D01*
X22916610Y-66570181D01*
X23128810Y-66715171D01*
X23380700Y-66766180D01*
X24879300Y-66766180D01*
X25114617Y-66721902D01*
X25330741Y-66582830D01*
X25475731Y-66370630D01*
X25504513Y-66228500D01*
X25943170Y-66228500D01*
X25975398Y-66399777D01*
X26114470Y-66615901D01*
X26326670Y-66760891D01*
X26578560Y-66811900D01*
X27777440Y-66811900D01*
X28012757Y-66767622D01*
X28228881Y-66628550D01*
X28373871Y-66416350D01*
X28424880Y-66164460D01*
X28424880Y-64965580D01*
X28380602Y-64730263D01*
X28241530Y-64514139D01*
X28233341Y-64508544D01*
X28315767Y-64426118D01*
X28412440Y-64192729D01*
X28412440Y-63752730D01*
X28253690Y-63593980D01*
X27305000Y-63593980D01*
X27305000Y-63613980D01*
X27051000Y-63613980D01*
X27051000Y-63593980D01*
X26102310Y-63593980D01*
X25943560Y-63752730D01*
X25943560Y-64192729D01*
X26040233Y-64426118D01*
X26122445Y-64508331D01*
X25985675Y-64708500D01*
X25506087Y-64708500D01*
X25482462Y-64582943D01*
X25440321Y-64517454D01*
X25475731Y-64465630D01*
X25526740Y-64213740D01*
X25526740Y-62913260D01*
X25494371Y-62741231D01*
X25943560Y-62741231D01*
X25943560Y-63181230D01*
X26102310Y-63339980D01*
X27051000Y-63339980D01*
X27051000Y-62391290D01*
X27305000Y-62391290D01*
X27305000Y-63339980D01*
X28253690Y-63339980D01*
X28412440Y-63181230D01*
X28412440Y-62741231D01*
X28315767Y-62507842D01*
X28137139Y-62329213D01*
X27903750Y-62232540D01*
X27463750Y-62232540D01*
X27305000Y-62391290D01*
X27051000Y-62391290D01*
X26892250Y-62232540D01*
X26452250Y-62232540D01*
X26218861Y-62329213D01*
X26040233Y-62507842D01*
X25943560Y-62741231D01*
X25494371Y-62741231D01*
X25482462Y-62677943D01*
X25343390Y-62461819D01*
X25131190Y-62316829D01*
X24965000Y-62283175D01*
X24965000Y-60555923D01*
X25079057Y-60534462D01*
X25144078Y-60492622D01*
X25321951Y-60566300D01*
X25812750Y-60566300D01*
X25971500Y-60407550D01*
X25971500Y-59309000D01*
X26225500Y-59309000D01*
X26225500Y-60407550D01*
X26384250Y-60566300D01*
X26875049Y-60566300D01*
X27108438Y-60469627D01*
X27287067Y-60290999D01*
X27383740Y-60057610D01*
X27383740Y-59467750D01*
X28496260Y-59467750D01*
X28496260Y-60057610D01*
X28592933Y-60290999D01*
X28771562Y-60469627D01*
X29004951Y-60566300D01*
X29495750Y-60566300D01*
X29654500Y-60407550D01*
X29654500Y-59309000D01*
X28655010Y-59309000D01*
X28496260Y-59467750D01*
X27383740Y-59467750D01*
X27224990Y-59309000D01*
X26225500Y-59309000D01*
X25971500Y-59309000D01*
X25951500Y-59309000D01*
X25951500Y-59055000D01*
X25971500Y-59055000D01*
X25971500Y-57956450D01*
X26225500Y-57956450D01*
X26225500Y-59055000D01*
X27224990Y-59055000D01*
X27383740Y-58896250D01*
X27383740Y-58306390D01*
X28496260Y-58306390D01*
X28496260Y-58896250D01*
X28655010Y-59055000D01*
X29654500Y-59055000D01*
X29654500Y-57956450D01*
X29495750Y-57797700D01*
X29004951Y-57797700D01*
X28771562Y-57894373D01*
X28592933Y-58073001D01*
X28496260Y-58306390D01*
X27383740Y-58306390D01*
X27287067Y-58073001D01*
X27108438Y-57894373D01*
X26875049Y-57797700D01*
X26384250Y-57797700D01*
X26225500Y-57956450D01*
X25971500Y-57956450D01*
X25812750Y-57797700D01*
X25321951Y-57797700D01*
X25145905Y-57870621D01*
X25095630Y-57836269D01*
X24965000Y-57809816D01*
X24965000Y-56304212D01*
X25196191Y-56208686D01*
X25462251Y-55943089D01*
X26786517Y-55943089D01*
X26915725Y-56235859D01*
X27615883Y-56504071D01*
X28365384Y-56483928D01*
X28964275Y-56235859D01*
X29093483Y-55943089D01*
X27940000Y-54789605D01*
X26786517Y-55943089D01*
X25462251Y-55943089D01*
X25726822Y-55678979D01*
X26014352Y-54986531D01*
X26014963Y-54285883D01*
X26045929Y-54285883D01*
X26066072Y-55035384D01*
X26314141Y-55634275D01*
X26606911Y-55763483D01*
X27760395Y-54610000D01*
X28119605Y-54610000D01*
X29273089Y-55763483D01*
X29565859Y-55634275D01*
X29834071Y-54934117D01*
X29813928Y-54184616D01*
X29565859Y-53585725D01*
X29273089Y-53456517D01*
X28119605Y-54610000D01*
X27760395Y-54610000D01*
X26606911Y-53456517D01*
X26314141Y-53585725D01*
X26045929Y-54285883D01*
X26014963Y-54285883D01*
X26015006Y-54236759D01*
X25728686Y-53543809D01*
X25198979Y-53013178D01*
X24506531Y-52725648D01*
X23756759Y-52724994D01*
X23063809Y-53011314D01*
X22533178Y-53541021D01*
X22245648Y-54233469D01*
X22244994Y-54983241D01*
X22531314Y-55676191D01*
X23061021Y-56206822D01*
X23295000Y-56303979D01*
X23295000Y-57837867D01*
X23091819Y-57968610D01*
X22946829Y-58180810D01*
X22895820Y-58432700D01*
X22895820Y-59931300D01*
X22940098Y-60166617D01*
X23079170Y-60382741D01*
X23291370Y-60527731D01*
X23295000Y-60528466D01*
X23295000Y-62281946D01*
X23145383Y-62310098D01*
X22929259Y-62449170D01*
X22784269Y-62661370D01*
X22769591Y-62733853D01*
X22476960Y-62792060D01*
X22206066Y-62973066D01*
X20999566Y-64179566D01*
X20818561Y-64450459D01*
X20755000Y-64770000D01*
X20755000Y-66802000D01*
X20818561Y-67121541D01*
X20946472Y-67312973D01*
X20999566Y-67392434D01*
X27147131Y-73540000D01*
X20710000Y-73540000D01*
X20710000Y-72324398D01*
X20814190Y-72324398D01*
X21024686Y-72833837D01*
X21414113Y-73223944D01*
X21923184Y-73435329D01*
X22474398Y-73435810D01*
X22983837Y-73225314D01*
X23373944Y-72835887D01*
X23585329Y-72326816D01*
X23585810Y-71775602D01*
X23375314Y-71266163D01*
X22985887Y-70876056D01*
X22476816Y-70664671D01*
X21925602Y-70664190D01*
X21416163Y-70874686D01*
X21026056Y-71264113D01*
X20814671Y-71773184D01*
X20814190Y-72324398D01*
X20710000Y-72324398D01*
X20710000Y-51459509D01*
X25930512Y-51459509D01*
X26235741Y-52198219D01*
X26800428Y-52763893D01*
X27123541Y-52898061D01*
X26915725Y-52984141D01*
X26786517Y-53276911D01*
X27940000Y-54430395D01*
X29093483Y-53276911D01*
X28964275Y-52984141D01*
X28748454Y-52901466D01*
X29076599Y-52765879D01*
X29642273Y-52201192D01*
X29948790Y-51463016D01*
X29949488Y-50663731D01*
X29644259Y-49925021D01*
X29079572Y-49359347D01*
X28341396Y-49052830D01*
X27542111Y-49052132D01*
X26803401Y-49357361D01*
X26237727Y-49922048D01*
X25931210Y-50660224D01*
X25930512Y-51459509D01*
X20710000Y-51459509D01*
X20710000Y-43244159D01*
X24031446Y-43244159D01*
X24117852Y-43500643D01*
X24691336Y-43710458D01*
X25301460Y-43684839D01*
X25746148Y-43500643D01*
X25832554Y-43244159D01*
X24932000Y-42343605D01*
X24031446Y-43244159D01*
X20710000Y-43244159D01*
X20710000Y-41923336D01*
X23385542Y-41923336D01*
X23411161Y-42533460D01*
X23595357Y-42978148D01*
X23851841Y-43064554D01*
X24752395Y-42164000D01*
X25111605Y-42164000D01*
X26012159Y-43064554D01*
X26268643Y-42978148D01*
X26478458Y-42404664D01*
X26452839Y-41794540D01*
X26268643Y-41349852D01*
X26013804Y-41264000D01*
X28384560Y-41264000D01*
X28384560Y-43064000D01*
X28428838Y-43299317D01*
X28567910Y-43515441D01*
X28780110Y-43660431D01*
X29032000Y-43711440D01*
X29097000Y-43711440D01*
X29097000Y-45426000D01*
X29160561Y-45745541D01*
X29267220Y-45905167D01*
X29341566Y-46016434D01*
X30915000Y-47589868D01*
X30915000Y-52915788D01*
X30683809Y-53011314D01*
X30153178Y-53541021D01*
X29865648Y-54233469D01*
X29864994Y-54983241D01*
X30151314Y-55676191D01*
X30681021Y-56206822D01*
X30915000Y-56303979D01*
X30915000Y-57808077D01*
X30800943Y-57829538D01*
X30735922Y-57871378D01*
X30558049Y-57797700D01*
X30067250Y-57797700D01*
X29908500Y-57956450D01*
X29908500Y-59055000D01*
X29928500Y-59055000D01*
X29928500Y-59309000D01*
X29908500Y-59309000D01*
X29908500Y-60407550D01*
X30067250Y-60566300D01*
X30558049Y-60566300D01*
X30734095Y-60493379D01*
X30784370Y-60527731D01*
X31036260Y-60578740D01*
X32336740Y-60578740D01*
X32572057Y-60534462D01*
X32788181Y-60395390D01*
X32933171Y-60183190D01*
X32984180Y-59931300D01*
X32984180Y-58432700D01*
X32939902Y-58197383D01*
X32800830Y-57981259D01*
X32588630Y-57836269D01*
X32585000Y-57835534D01*
X32585000Y-56304212D01*
X32816191Y-56208686D01*
X33346822Y-55678979D01*
X33634352Y-54986531D01*
X33635006Y-54236759D01*
X33348686Y-53543809D01*
X32818979Y-53013178D01*
X32585000Y-52916021D01*
X32585000Y-47244000D01*
X32521439Y-46924459D01*
X32340434Y-46653566D01*
X30991027Y-45304159D01*
X37707446Y-45304159D01*
X37793852Y-45560643D01*
X38367336Y-45770458D01*
X38977460Y-45744839D01*
X39422148Y-45560643D01*
X39508554Y-45304159D01*
X38608000Y-44403605D01*
X37707446Y-45304159D01*
X30991027Y-45304159D01*
X30767000Y-45080132D01*
X30767000Y-43983336D01*
X37061542Y-43983336D01*
X37087161Y-44593460D01*
X37271357Y-45038148D01*
X37527841Y-45124554D01*
X38428395Y-44224000D01*
X38787605Y-44224000D01*
X39688159Y-45124554D01*
X39944643Y-45038148D01*
X40154458Y-44464664D01*
X40128839Y-43854540D01*
X39944643Y-43409852D01*
X39688159Y-43323446D01*
X38787605Y-44224000D01*
X38428395Y-44224000D01*
X37527841Y-43323446D01*
X37271357Y-43409852D01*
X37061542Y-43983336D01*
X30767000Y-43983336D01*
X30767000Y-43711440D01*
X30832000Y-43711440D01*
X31067317Y-43667162D01*
X31283441Y-43528090D01*
X31428431Y-43315890D01*
X31463271Y-43143841D01*
X37707446Y-43143841D01*
X38608000Y-44044395D01*
X39508554Y-43143841D01*
X39422148Y-42887357D01*
X38848664Y-42677542D01*
X38238540Y-42703161D01*
X37793852Y-42887357D01*
X37707446Y-43143841D01*
X31463271Y-43143841D01*
X31479440Y-43064000D01*
X31479440Y-41264000D01*
X31435162Y-41028683D01*
X31296090Y-40812559D01*
X31128672Y-40698167D01*
X45927838Y-40698167D01*
X46069883Y-41041943D01*
X46332673Y-41305192D01*
X46676201Y-41447838D01*
X47048167Y-41448162D01*
X47391943Y-41306117D01*
X47425118Y-41273000D01*
X92870928Y-41273000D01*
X92932883Y-41422943D01*
X93195673Y-41686192D01*
X93539201Y-41828838D01*
X93911167Y-41829162D01*
X94254943Y-41687117D01*
X94518192Y-41424327D01*
X94660838Y-41080799D01*
X94661162Y-40708833D01*
X94519117Y-40365057D01*
X94256327Y-40101808D01*
X93912799Y-39959162D01*
X93857729Y-39959114D01*
X93635839Y-39810852D01*
X93345000Y-39753000D01*
X47425463Y-39753000D01*
X47393327Y-39720808D01*
X47049799Y-39578162D01*
X46677833Y-39577838D01*
X46334057Y-39719883D01*
X46070808Y-39982673D01*
X45928162Y-40326201D01*
X45927838Y-40698167D01*
X31128672Y-40698167D01*
X31083890Y-40667569D01*
X30832000Y-40616560D01*
X30767000Y-40616560D01*
X30767000Y-40263868D01*
X32398128Y-38632740D01*
X35078930Y-38632740D01*
X35078930Y-38848030D01*
X35123208Y-39083347D01*
X35262280Y-39299471D01*
X35474480Y-39444461D01*
X35726370Y-39495470D01*
X37425630Y-39495470D01*
X37660947Y-39451192D01*
X37877071Y-39312120D01*
X38022061Y-39099920D01*
X38073070Y-38848030D01*
X38073070Y-36747450D01*
X38028792Y-36512133D01*
X37889720Y-36296009D01*
X37677520Y-36151019D01*
X37425630Y-36100010D01*
X35726370Y-36100010D01*
X35491053Y-36144288D01*
X35274929Y-36283360D01*
X35129939Y-36495560D01*
X35078930Y-36747450D01*
X35078930Y-36962740D01*
X32052260Y-36962740D01*
X31732719Y-37026301D01*
X31461826Y-37207306D01*
X29341566Y-39327566D01*
X29160561Y-39598459D01*
X29097000Y-39918000D01*
X29097000Y-40616560D01*
X29032000Y-40616560D01*
X28796683Y-40660838D01*
X28580559Y-40799910D01*
X28435569Y-41012110D01*
X28384560Y-41264000D01*
X26013804Y-41264000D01*
X26012159Y-41263446D01*
X25111605Y-42164000D01*
X24752395Y-42164000D01*
X23851841Y-41263446D01*
X23595357Y-41349852D01*
X23385542Y-41923336D01*
X20710000Y-41923336D01*
X20710000Y-41083841D01*
X24031446Y-41083841D01*
X24932000Y-41984395D01*
X25832554Y-41083841D01*
X25746148Y-40827357D01*
X25172664Y-40617542D01*
X24562540Y-40643161D01*
X24117852Y-40827357D01*
X24031446Y-41083841D01*
X20710000Y-41083841D01*
X20710000Y-34383334D01*
X28595741Y-34383334D01*
X28626687Y-34511139D01*
X28939798Y-35068936D01*
X29442535Y-35464451D01*
X30058360Y-35637470D01*
X31059120Y-35637470D01*
X31059120Y-34129980D01*
X31313120Y-34129980D01*
X31313120Y-35637470D01*
X32313880Y-35637470D01*
X32929705Y-35464451D01*
X33432442Y-35068936D01*
X33745553Y-34511139D01*
X33776499Y-34383334D01*
X33657145Y-34129980D01*
X31313120Y-34129980D01*
X31059120Y-34129980D01*
X28715095Y-34129980D01*
X28595741Y-34383334D01*
X20710000Y-34383334D01*
X20710000Y-33622626D01*
X28595741Y-33622626D01*
X28715095Y-33875980D01*
X31059120Y-33875980D01*
X31059120Y-32368490D01*
X31313120Y-32368490D01*
X31313120Y-33875980D01*
X33657145Y-33875980D01*
X33776499Y-33622626D01*
X33745553Y-33494821D01*
X33432442Y-32937024D01*
X32929705Y-32541509D01*
X32313880Y-32368490D01*
X31313120Y-32368490D01*
X31059120Y-32368490D01*
X30058360Y-32368490D01*
X29442535Y-32541509D01*
X28939798Y-32937024D01*
X28626687Y-33494821D01*
X28595741Y-33622626D01*
X20710000Y-33622626D01*
X20710000Y-28829000D01*
X26300430Y-28829000D01*
X26300430Y-29829760D01*
X26473449Y-30445585D01*
X26868964Y-30948322D01*
X27426761Y-31261433D01*
X27554566Y-31292379D01*
X27807920Y-31173025D01*
X27807920Y-28829000D01*
X28061920Y-28829000D01*
X28061920Y-31173025D01*
X28315274Y-31292379D01*
X28443079Y-31261433D01*
X29000876Y-30948322D01*
X29396391Y-30445585D01*
X29569410Y-29829760D01*
X29569410Y-28829000D01*
X28061920Y-28829000D01*
X27807920Y-28829000D01*
X26300430Y-28829000D01*
X20710000Y-28829000D01*
X20710000Y-27574240D01*
X26300430Y-27574240D01*
X26300430Y-28575000D01*
X27807920Y-28575000D01*
X27807920Y-26230975D01*
X28061920Y-26230975D01*
X28061920Y-28575000D01*
X29569410Y-28575000D01*
X29569410Y-27574240D01*
X29518918Y-27394521D01*
X32302450Y-27394521D01*
X32302450Y-30009479D01*
X32426868Y-30634971D01*
X32781181Y-31165238D01*
X33311448Y-31519551D01*
X33936940Y-31643969D01*
X34562432Y-31519551D01*
X35092699Y-31165238D01*
X35447012Y-30634971D01*
X35571430Y-30009479D01*
X35571430Y-29894298D01*
X35741000Y-30063868D01*
X35741000Y-32640530D01*
X35726370Y-32640530D01*
X35491053Y-32684808D01*
X35274929Y-32823880D01*
X35129939Y-33036080D01*
X35078930Y-33287970D01*
X35078930Y-35388550D01*
X35123208Y-35623867D01*
X35262280Y-35839991D01*
X35474480Y-35984981D01*
X35726370Y-36035990D01*
X37425630Y-36035990D01*
X37660947Y-35991712D01*
X37877071Y-35852640D01*
X38022061Y-35640440D01*
X38073070Y-35388550D01*
X38073070Y-34533877D01*
X48246528Y-34533877D01*
X48406295Y-34852632D01*
X49197017Y-35162595D01*
X50046166Y-35146367D01*
X50755305Y-34852632D01*
X50915072Y-34533877D01*
X49580800Y-33199605D01*
X48246528Y-34533877D01*
X38073070Y-34533877D01*
X38073070Y-33287970D01*
X38028792Y-33052653D01*
X37889720Y-32836529D01*
X37677520Y-32691539D01*
X37425630Y-32640530D01*
X37411000Y-32640530D01*
X37411000Y-32636217D01*
X47438205Y-32636217D01*
X47454433Y-33485366D01*
X47748168Y-34194505D01*
X48066923Y-34354272D01*
X49401195Y-33020000D01*
X49760405Y-33020000D01*
X51094677Y-34354272D01*
X51413432Y-34194505D01*
X51723395Y-33403783D01*
X51707167Y-32554634D01*
X51413432Y-31845495D01*
X51094677Y-31685728D01*
X49760405Y-33020000D01*
X49401195Y-33020000D01*
X48066923Y-31685728D01*
X47748168Y-31845495D01*
X47438205Y-32636217D01*
X37411000Y-32636217D01*
X37411000Y-31506123D01*
X48246528Y-31506123D01*
X49580800Y-32840395D01*
X50915072Y-31506123D01*
X50755305Y-31187368D01*
X49964583Y-30877405D01*
X49115434Y-30893633D01*
X48406295Y-31187368D01*
X48246528Y-31506123D01*
X37411000Y-31506123D01*
X37411000Y-29718000D01*
X37347439Y-29398459D01*
X37166434Y-29127566D01*
X36150434Y-28111566D01*
X36095709Y-28075000D01*
X35879541Y-27930561D01*
X35571430Y-27869274D01*
X35571430Y-27394521D01*
X35447012Y-26769029D01*
X35092699Y-26238762D01*
X34562432Y-25884449D01*
X33936940Y-25760031D01*
X33311448Y-25884449D01*
X32781181Y-26238762D01*
X32426868Y-26769029D01*
X32302450Y-27394521D01*
X29518918Y-27394521D01*
X29396391Y-26958415D01*
X29000876Y-26455678D01*
X28443079Y-26142567D01*
X28315274Y-26111621D01*
X28061920Y-26230975D01*
X27807920Y-26230975D01*
X27554566Y-26111621D01*
X27426761Y-26142567D01*
X26868964Y-26455678D01*
X26473449Y-26958415D01*
X26300430Y-27574240D01*
X20710000Y-27574240D01*
X20710000Y-24524390D01*
X99362260Y-24524390D01*
X99362260Y-25114250D01*
X99521010Y-25273000D01*
X100520500Y-25273000D01*
X100520500Y-24174450D01*
X100361750Y-24015700D01*
X99870951Y-24015700D01*
X99637562Y-24112373D01*
X99458933Y-24291001D01*
X99362260Y-24524390D01*
X20710000Y-24524390D01*
X20710000Y-22474398D01*
X20814190Y-22474398D01*
X21024686Y-22983837D01*
X21414113Y-23373944D01*
X21923184Y-23585329D01*
X22474398Y-23585810D01*
X22983837Y-23375314D01*
X23373944Y-22985887D01*
X23585329Y-22476816D01*
X23585810Y-21925602D01*
X23375314Y-21416163D01*
X22985887Y-21026056D01*
X22476816Y-20814671D01*
X21925602Y-20814190D01*
X21416163Y-21024686D01*
X21026056Y-21414113D01*
X20814671Y-21923184D01*
X20814190Y-22474398D01*
X20710000Y-22474398D01*
X20710000Y-20710000D01*
X66120881Y-20710000D01*
X66120838Y-20759167D01*
G36*
X94399569Y-57925540D02*
X94348560Y-58177430D01*
X94348560Y-60176410D01*
X94392838Y-60411727D01*
X94531910Y-60627851D01*
X94744110Y-60772841D01*
X94996000Y-60823850D01*
X96520000Y-60823850D01*
X96755317Y-60779572D01*
X96971441Y-60640500D01*
X97116431Y-60428300D01*
X97160565Y-60210358D01*
X97310172Y-60434260D01*
X97763391Y-60737092D01*
X97856903Y-60755693D01*
X97744162Y-61027201D01*
X97743887Y-61343000D01*
X93532802Y-61343000D01*
X93264122Y-61074320D01*
X93264162Y-61028833D01*
X93122117Y-60685057D01*
X92859327Y-60421808D01*
X92515799Y-60279162D01*
X92143833Y-60278838D01*
X91800057Y-60420883D01*
X91536808Y-60683673D01*
X91486615Y-60804550D01*
X91370438Y-60688373D01*
X91137049Y-60591700D01*
X90646250Y-60591700D01*
X90487500Y-60750450D01*
X90487500Y-61849000D01*
X91486990Y-61849000D01*
X91564440Y-61771550D01*
X91798673Y-62006192D01*
X92142201Y-62148838D01*
X92189077Y-62148879D01*
X92680599Y-62640401D01*
X92927161Y-62805148D01*
X93218000Y-62863000D01*
X97899897Y-62863000D01*
X97871162Y-62932201D01*
X97870897Y-63236412D01*
X97815100Y-63213243D01*
X97259339Y-63212758D01*
X96745697Y-63424990D01*
X96352371Y-63817630D01*
X96286100Y-63977228D01*
X96221010Y-63819697D01*
X95828370Y-63426371D01*
X95315100Y-63213243D01*
X94759339Y-63212758D01*
X94245697Y-63424990D01*
X93852371Y-63817630D01*
X93639243Y-64330900D01*
X93638758Y-64886661D01*
X93676526Y-64978067D01*
X93413833Y-64977838D01*
X93070057Y-65119883D01*
X92806808Y-65382673D01*
X92664162Y-65726201D01*
X92663838Y-66098167D01*
X92805883Y-66441943D01*
X93068673Y-66705192D01*
X93412201Y-66847838D01*
X93784167Y-66848162D01*
X94127943Y-66706117D01*
X94161118Y-66673000D01*
X97028000Y-66673000D01*
X97318839Y-66615148D01*
X97565401Y-66450401D01*
X98073401Y-65942401D01*
X98112992Y-65883148D01*
X98326303Y-65795010D01*
X98719629Y-65402370D01*
X98785900Y-65242772D01*
X98850990Y-65400303D01*
X99243630Y-65793629D01*
X99756900Y-66006757D01*
X100312661Y-66007242D01*
X100826303Y-65795010D01*
X101219629Y-65402370D01*
X101233070Y-65370000D01*
X102276819Y-65370000D01*
X101960057Y-65500883D01*
X101696808Y-65763673D01*
X101554162Y-66107201D01*
X101553838Y-66479167D01*
X101695883Y-66822943D01*
X101958673Y-67086192D01*
X102302201Y-67228838D01*
X102325024Y-67228858D01*
X102316162Y-67250201D01*
X102315838Y-67622167D01*
X102457883Y-67965943D01*
X102720673Y-68229192D01*
X103064201Y-68371838D01*
X103436167Y-68372162D01*
X103779943Y-68230117D01*
X103940340Y-68070000D01*
X104153905Y-68070000D01*
X104036118Y-68280272D01*
X104019370Y-68371930D01*
X104141870Y-68588000D01*
X105484080Y-68588000D01*
X105484080Y-68568000D01*
X105738080Y-68568000D01*
X105738080Y-68588000D01*
X107080290Y-68588000D01*
X107130000Y-68500320D01*
X107179710Y-68588000D01*
X108521920Y-68588000D01*
X108521920Y-68568000D01*
X108775920Y-68568000D01*
X108775920Y-68588000D01*
X108795920Y-68588000D01*
X108795920Y-68842000D01*
X108775920Y-68842000D01*
X108775920Y-69958254D01*
X108996602Y-70117027D01*
X109210000Y-70056867D01*
X109210000Y-73540000D01*
X76834740Y-73540000D01*
X76834740Y-72810355D01*
X77156201Y-72943838D01*
X77528167Y-72944162D01*
X77871943Y-72802117D01*
X77905118Y-72769000D01*
X101727000Y-72769000D01*
X102017839Y-72711148D01*
X102264401Y-72546401D01*
X102374680Y-72436122D01*
X102420167Y-72436162D01*
X102690657Y-72324398D01*
X106334190Y-72324398D01*
X106544686Y-72833837D01*
X106934113Y-73223944D01*
X107443184Y-73435329D01*
X107994398Y-73435810D01*
X108503837Y-73225314D01*
X108893944Y-72835887D01*
X109105329Y-72326816D01*
X109105810Y-71775602D01*
X108895314Y-71266163D01*
X108505887Y-70876056D01*
X107996816Y-70664671D01*
X107445602Y-70664190D01*
X106936163Y-70874686D01*
X106546056Y-71264113D01*
X106334671Y-71773184D01*
X106334190Y-72324398D01*
X102690657Y-72324398D01*
X102763943Y-72294117D01*
X103027192Y-72031327D01*
X103169838Y-71687799D01*
X103170162Y-71315833D01*
X103028117Y-70972057D01*
X102765327Y-70708808D01*
X102421799Y-70566162D01*
X102049833Y-70565838D01*
X101706057Y-70707883D01*
X101442808Y-70970673D01*
X101327236Y-71249000D01*
X100695637Y-71249000D01*
X100826303Y-71195010D01*
X101219629Y-70802370D01*
X101432757Y-70289100D01*
X101433242Y-69733339D01*
X101221010Y-69219697D01*
X101059665Y-69058070D01*
X104019370Y-69058070D01*
X104036118Y-69149728D01*
X104304290Y-69628465D01*
X104735253Y-69968135D01*
X105263398Y-70117027D01*
X105484080Y-69958254D01*
X105484080Y-68842000D01*
X105738080Y-68842000D01*
X105738080Y-69958254D01*
X105958762Y-70117027D01*
X106486907Y-69968135D01*
X106917870Y-69628465D01*
X107130000Y-69249773D01*
X107342130Y-69628465D01*
X107773093Y-69968135D01*
X108301238Y-70117027D01*
X108521920Y-69958254D01*
X108521920Y-68842000D01*
X107179710Y-68842000D01*
X107130000Y-68929680D01*
X107080290Y-68842000D01*
X105738080Y-68842000D01*
X105484080Y-68842000D01*
X104141870Y-68842000D01*
X104019370Y-69058070D01*
X101059665Y-69058070D01*
X100828370Y-68826371D01*
X100315100Y-68613243D01*
X99759339Y-68612758D01*
X99245697Y-68824990D01*
X98852371Y-69217630D01*
X98786100Y-69377228D01*
X98721010Y-69219697D01*
X98328370Y-68826371D01*
X97815100Y-68613243D01*
X97259339Y-68612758D01*
X96745697Y-68824990D01*
X96352371Y-69217630D01*
X96286100Y-69377228D01*
X96221010Y-69219697D01*
X95828370Y-68826371D01*
X95315100Y-68613243D01*
X94759339Y-68612758D01*
X94245697Y-68824990D01*
X93852371Y-69217630D01*
X93687454Y-69614796D01*
X93531799Y-69550162D01*
X93159833Y-69549838D01*
X92816057Y-69691883D01*
X92552808Y-69954673D01*
X92437236Y-70233000D01*
X89619122Y-70233000D01*
X89695093Y-70157161D01*
X89982672Y-69464595D01*
X89983326Y-68714695D01*
X89696957Y-68021628D01*
X89167161Y-67490907D01*
X88933000Y-67393675D01*
X88933000Y-65238000D01*
X88869439Y-64918459D01*
X88688434Y-64647566D01*
X88268535Y-64227667D01*
X88169117Y-63987057D01*
X87906327Y-63723808D01*
X87664090Y-63623222D01*
X87385500Y-63344632D01*
X87385500Y-63337975D01*
X87436057Y-63328462D01*
X87501546Y-63286321D01*
X87553370Y-63321731D01*
X87805260Y-63372740D01*
X89105740Y-63372740D01*
X89341057Y-63328462D01*
X89406078Y-63286622D01*
X89583951Y-63360300D01*
X90074750Y-63360300D01*
X90233500Y-63201550D01*
X90233500Y-62103000D01*
X90487500Y-62103000D01*
X90487500Y-63201550D01*
X90646250Y-63360300D01*
X91137049Y-63360300D01*
X91370438Y-63263627D01*
X91549067Y-63084999D01*
X91645740Y-62851610D01*
X91645740Y-62261750D01*
X91486990Y-62103000D01*
X90487500Y-62103000D01*
X90233500Y-62103000D01*
X90213500Y-62103000D01*
X90213500Y-61849000D01*
X90233500Y-61849000D01*
X90233500Y-60750450D01*
X90074750Y-60591700D01*
X89583951Y-60591700D01*
X89407905Y-60664621D01*
X89357630Y-60630269D01*
X89105740Y-60579260D01*
X87805260Y-60579260D01*
X87569943Y-60623538D01*
X87504454Y-60665679D01*
X87452630Y-60630269D01*
X87200740Y-60579260D01*
X85900260Y-60579260D01*
X85664943Y-60623538D01*
X85599454Y-60665679D01*
X85547630Y-60630269D01*
X85480500Y-60616675D01*
X85480500Y-60487845D01*
X85491943Y-60483117D01*
X85755192Y-60220327D01*
X85897838Y-59876799D01*
X85898162Y-59504833D01*
X85756117Y-59161057D01*
X85681580Y-59086390D01*
X85853861Y-58975530D01*
X85854543Y-58974533D01*
X86049690Y-59107871D01*
X86301580Y-59158880D01*
X87500460Y-59158880D01*
X87735777Y-59114602D01*
X87951901Y-58975530D01*
X88096891Y-58763330D01*
X88115386Y-58672000D01*
X88175833Y-58672000D01*
X88218098Y-58896617D01*
X88357170Y-59112741D01*
X88569370Y-59257731D01*
X88821260Y-59308740D01*
X90121740Y-59308740D01*
X90357057Y-59264462D01*
X90422546Y-59222321D01*
X90474370Y-59257731D01*
X90726260Y-59308740D01*
X92026740Y-59308740D01*
X92262057Y-59264462D01*
X92478181Y-59125390D01*
X92623171Y-58913190D01*
X92656825Y-58747000D01*
X93218000Y-58747000D01*
X93537541Y-58683439D01*
X93808434Y-58502434D01*
X94430291Y-57880577D01*
X94399569Y-57925540D01*
X94399569Y-57925540D01*
G37*
X94399569Y-57925540D02*
X94348560Y-58177430D01*
X94348560Y-60176410D01*
X94392838Y-60411727D01*
X94531910Y-60627851D01*
X94744110Y-60772841D01*
X94996000Y-60823850D01*
X96520000Y-60823850D01*
X96755317Y-60779572D01*
X96971441Y-60640500D01*
X97116431Y-60428300D01*
X97160565Y-60210358D01*
X97310172Y-60434260D01*
X97763391Y-60737092D01*
X97856903Y-60755693D01*
X97744162Y-61027201D01*
X97743887Y-61343000D01*
X93532802Y-61343000D01*
X93264122Y-61074320D01*
X93264162Y-61028833D01*
X93122117Y-60685057D01*
X92859327Y-60421808D01*
X92515799Y-60279162D01*
X92143833Y-60278838D01*
X91800057Y-60420883D01*
X91536808Y-60683673D01*
X91486615Y-60804550D01*
X91370438Y-60688373D01*
X91137049Y-60591700D01*
X90646250Y-60591700D01*
X90487500Y-60750450D01*
X90487500Y-61849000D01*
X91486990Y-61849000D01*
X91564440Y-61771550D01*
X91798673Y-62006192D01*
X92142201Y-62148838D01*
X92189077Y-62148879D01*
X92680599Y-62640401D01*
X92927161Y-62805148D01*
X93218000Y-62863000D01*
X97899897Y-62863000D01*
X97871162Y-62932201D01*
X97870897Y-63236412D01*
X97815100Y-63213243D01*
X97259339Y-63212758D01*
X96745697Y-63424990D01*
X96352371Y-63817630D01*
X96286100Y-63977228D01*
X96221010Y-63819697D01*
X95828370Y-63426371D01*
X95315100Y-63213243D01*
X94759339Y-63212758D01*
X94245697Y-63424990D01*
X93852371Y-63817630D01*
X93639243Y-64330900D01*
X93638758Y-64886661D01*
X93676526Y-64978067D01*
X93413833Y-64977838D01*
X93070057Y-65119883D01*
X92806808Y-65382673D01*
X92664162Y-65726201D01*
X92663838Y-66098167D01*
X92805883Y-66441943D01*
X93068673Y-66705192D01*
X93412201Y-66847838D01*
X93784167Y-66848162D01*
X94127943Y-66706117D01*
X94161118Y-66673000D01*
X97028000Y-66673000D01*
X97318839Y-66615148D01*
X97565401Y-66450401D01*
X98073401Y-65942401D01*
X98112992Y-65883148D01*
X98326303Y-65795010D01*
X98719629Y-65402370D01*
X98785900Y-65242772D01*
X98850990Y-65400303D01*
X99243630Y-65793629D01*
X99756900Y-66006757D01*
X100312661Y-66007242D01*
X100826303Y-65795010D01*
X101219629Y-65402370D01*
X101233070Y-65370000D01*
X102276819Y-65370000D01*
X101960057Y-65500883D01*
X101696808Y-65763673D01*
X101554162Y-66107201D01*
X101553838Y-66479167D01*
X101695883Y-66822943D01*
X101958673Y-67086192D01*
X102302201Y-67228838D01*
X102325024Y-67228858D01*
X102316162Y-67250201D01*
X102315838Y-67622167D01*
X102457883Y-67965943D01*
X102720673Y-68229192D01*
X103064201Y-68371838D01*
X103436167Y-68372162D01*
X103779943Y-68230117D01*
X103940340Y-68070000D01*
X104153905Y-68070000D01*
X104036118Y-68280272D01*
X104019370Y-68371930D01*
X104141870Y-68588000D01*
X105484080Y-68588000D01*
X105484080Y-68568000D01*
X105738080Y-68568000D01*
X105738080Y-68588000D01*
X107080290Y-68588000D01*
X107130000Y-68500320D01*
X107179710Y-68588000D01*
X108521920Y-68588000D01*
X108521920Y-68568000D01*
X108775920Y-68568000D01*
X108775920Y-68588000D01*
X108795920Y-68588000D01*
X108795920Y-68842000D01*
X108775920Y-68842000D01*
X108775920Y-69958254D01*
X108996602Y-70117027D01*
X109210000Y-70056867D01*
X109210000Y-73540000D01*
X76834740Y-73540000D01*
X76834740Y-72810355D01*
X77156201Y-72943838D01*
X77528167Y-72944162D01*
X77871943Y-72802117D01*
X77905118Y-72769000D01*
X101727000Y-72769000D01*
X102017839Y-72711148D01*
X102264401Y-72546401D01*
X102374680Y-72436122D01*
X102420167Y-72436162D01*
X102690657Y-72324398D01*
X106334190Y-72324398D01*
X106544686Y-72833837D01*
X106934113Y-73223944D01*
X107443184Y-73435329D01*
X107994398Y-73435810D01*
X108503837Y-73225314D01*
X108893944Y-72835887D01*
X109105329Y-72326816D01*
X109105810Y-71775602D01*
X108895314Y-71266163D01*
X108505887Y-70876056D01*
X107996816Y-70664671D01*
X107445602Y-70664190D01*
X106936163Y-70874686D01*
X106546056Y-71264113D01*
X106334671Y-71773184D01*
X106334190Y-72324398D01*
X102690657Y-72324398D01*
X102763943Y-72294117D01*
X103027192Y-72031327D01*
X103169838Y-71687799D01*
X103170162Y-71315833D01*
X103028117Y-70972057D01*
X102765327Y-70708808D01*
X102421799Y-70566162D01*
X102049833Y-70565838D01*
X101706057Y-70707883D01*
X101442808Y-70970673D01*
X101327236Y-71249000D01*
X100695637Y-71249000D01*
X100826303Y-71195010D01*
X101219629Y-70802370D01*
X101432757Y-70289100D01*
X101433242Y-69733339D01*
X101221010Y-69219697D01*
X101059665Y-69058070D01*
X104019370Y-69058070D01*
X104036118Y-69149728D01*
X104304290Y-69628465D01*
X104735253Y-69968135D01*
X105263398Y-70117027D01*
X105484080Y-69958254D01*
X105484080Y-68842000D01*
X105738080Y-68842000D01*
X105738080Y-69958254D01*
X105958762Y-70117027D01*
X106486907Y-69968135D01*
X106917870Y-69628465D01*
X107130000Y-69249773D01*
X107342130Y-69628465D01*
X107773093Y-69968135D01*
X108301238Y-70117027D01*
X108521920Y-69958254D01*
X108521920Y-68842000D01*
X107179710Y-68842000D01*
X107130000Y-68929680D01*
X107080290Y-68842000D01*
X105738080Y-68842000D01*
X105484080Y-68842000D01*
X104141870Y-68842000D01*
X104019370Y-69058070D01*
X101059665Y-69058070D01*
X100828370Y-68826371D01*
X100315100Y-68613243D01*
X99759339Y-68612758D01*
X99245697Y-68824990D01*
X98852371Y-69217630D01*
X98786100Y-69377228D01*
X98721010Y-69219697D01*
X98328370Y-68826371D01*
X97815100Y-68613243D01*
X97259339Y-68612758D01*
X96745697Y-68824990D01*
X96352371Y-69217630D01*
X96286100Y-69377228D01*
X96221010Y-69219697D01*
X95828370Y-68826371D01*
X95315100Y-68613243D01*
X94759339Y-68612758D01*
X94245697Y-68824990D01*
X93852371Y-69217630D01*
X93687454Y-69614796D01*
X93531799Y-69550162D01*
X93159833Y-69549838D01*
X92816057Y-69691883D01*
X92552808Y-69954673D01*
X92437236Y-70233000D01*
X89619122Y-70233000D01*
X89695093Y-70157161D01*
X89982672Y-69464595D01*
X89983326Y-68714695D01*
X89696957Y-68021628D01*
X89167161Y-67490907D01*
X88933000Y-67393675D01*
X88933000Y-65238000D01*
X88869439Y-64918459D01*
X88688434Y-64647566D01*
X88268535Y-64227667D01*
X88169117Y-63987057D01*
X87906327Y-63723808D01*
X87664090Y-63623222D01*
X87385500Y-63344632D01*
X87385500Y-63337975D01*
X87436057Y-63328462D01*
X87501546Y-63286321D01*
X87553370Y-63321731D01*
X87805260Y-63372740D01*
X89105740Y-63372740D01*
X89341057Y-63328462D01*
X89406078Y-63286622D01*
X89583951Y-63360300D01*
X90074750Y-63360300D01*
X90233500Y-63201550D01*
X90233500Y-62103000D01*
X90487500Y-62103000D01*
X90487500Y-63201550D01*
X90646250Y-63360300D01*
X91137049Y-63360300D01*
X91370438Y-63263627D01*
X91549067Y-63084999D01*
X91645740Y-62851610D01*
X91645740Y-62261750D01*
X91486990Y-62103000D01*
X90487500Y-62103000D01*
X90233500Y-62103000D01*
X90213500Y-62103000D01*
X90213500Y-61849000D01*
X90233500Y-61849000D01*
X90233500Y-60750450D01*
X90074750Y-60591700D01*
X89583951Y-60591700D01*
X89407905Y-60664621D01*
X89357630Y-60630269D01*
X89105740Y-60579260D01*
X87805260Y-60579260D01*
X87569943Y-60623538D01*
X87504454Y-60665679D01*
X87452630Y-60630269D01*
X87200740Y-60579260D01*
X85900260Y-60579260D01*
X85664943Y-60623538D01*
X85599454Y-60665679D01*
X85547630Y-60630269D01*
X85480500Y-60616675D01*
X85480500Y-60487845D01*
X85491943Y-60483117D01*
X85755192Y-60220327D01*
X85897838Y-59876799D01*
X85898162Y-59504833D01*
X85756117Y-59161057D01*
X85681580Y-59086390D01*
X85853861Y-58975530D01*
X85854543Y-58974533D01*
X86049690Y-59107871D01*
X86301580Y-59158880D01*
X87500460Y-59158880D01*
X87735777Y-59114602D01*
X87951901Y-58975530D01*
X88096891Y-58763330D01*
X88115386Y-58672000D01*
X88175833Y-58672000D01*
X88218098Y-58896617D01*
X88357170Y-59112741D01*
X88569370Y-59257731D01*
X88821260Y-59308740D01*
X90121740Y-59308740D01*
X90357057Y-59264462D01*
X90422546Y-59222321D01*
X90474370Y-59257731D01*
X90726260Y-59308740D01*
X92026740Y-59308740D01*
X92262057Y-59264462D01*
X92478181Y-59125390D01*
X92623171Y-58913190D01*
X92656825Y-58747000D01*
X93218000Y-58747000D01*
X93537541Y-58683439D01*
X93808434Y-58502434D01*
X94430291Y-57880577D01*
X94399569Y-57925540D01*
G36*
X93553162Y-48581201D02*
X93552838Y-48953167D01*
X93614650Y-49102763D01*
X93578057Y-49117883D01*
X93314808Y-49380673D01*
X93172162Y-49724201D01*
X93171838Y-50096167D01*
X93313883Y-50439943D01*
X93576673Y-50703192D01*
X93920201Y-50845838D01*
X94292167Y-50846162D01*
X94635943Y-50704117D01*
X94899192Y-50441327D01*
X94909294Y-50417000D01*
X104047604Y-50417000D01*
X103944568Y-50935000D01*
X104050908Y-51469609D01*
X104353740Y-51922828D01*
X104776039Y-52205000D01*
X104353740Y-52487172D01*
X104050908Y-52940391D01*
X103944568Y-53475000D01*
X104050908Y-54009609D01*
X104353740Y-54462828D01*
X104776039Y-54745000D01*
X104353740Y-55027172D01*
X104050908Y-55480391D01*
X103944568Y-56015000D01*
X104050908Y-56549609D01*
X104353740Y-57002828D01*
X104776039Y-57285000D01*
X104353740Y-57567172D01*
X104050908Y-58020391D01*
X103944568Y-58555000D01*
X104050908Y-59089609D01*
X104353740Y-59542828D01*
X104776039Y-59825000D01*
X104353740Y-60107172D01*
X104050908Y-60560391D01*
X103944568Y-61095000D01*
X104050908Y-61629609D01*
X104353740Y-62082828D01*
X104767060Y-62359000D01*
X101437368Y-62359000D01*
X101518838Y-62162799D01*
X101519002Y-61974000D01*
X102434537Y-61974000D01*
X102466673Y-62006192D01*
X102810201Y-62148838D01*
X103182167Y-62149162D01*
X103525943Y-62007117D01*
X103789192Y-61744327D01*
X103931838Y-61400799D01*
X103932162Y-61028833D01*
X103790117Y-60685057D01*
X103527327Y-60421808D01*
X103183799Y-60279162D01*
X102811833Y-60278838D01*
X102468057Y-60420883D01*
X102434882Y-60454000D01*
X101796285Y-60454000D01*
X101825828Y-60434260D01*
X102128660Y-59981041D01*
X102235000Y-59446432D01*
X102235000Y-58907408D01*
X102128660Y-58372799D01*
X101825828Y-57919580D01*
X101406267Y-57639238D01*
X101751465Y-57445870D01*
X102091135Y-57014907D01*
X102240027Y-56486762D01*
X102081254Y-56266080D01*
X100965000Y-56266080D01*
X100965000Y-56286080D01*
X100711000Y-56286080D01*
X100711000Y-56266080D01*
X100691000Y-56266080D01*
X100691000Y-56012080D01*
X100711000Y-56012080D01*
X100711000Y-54669870D01*
X100965000Y-54669870D01*
X100965000Y-56012080D01*
X102081254Y-56012080D01*
X102240027Y-55791398D01*
X102091135Y-55263253D01*
X101751465Y-54832290D01*
X101272728Y-54564118D01*
X101181070Y-54547370D01*
X100965000Y-54669870D01*
X100711000Y-54669870D01*
X100494930Y-54547370D01*
X100403272Y-54564118D01*
X99924535Y-54832290D01*
X99584865Y-55263253D01*
X99571774Y-55309688D01*
X99285828Y-54881740D01*
X98832609Y-54578908D01*
X98298000Y-54472568D01*
X97763391Y-54578908D01*
X97310172Y-54881740D01*
X97028000Y-55304039D01*
X96745828Y-54881740D01*
X96292609Y-54578908D01*
X95758000Y-54472568D01*
X95223391Y-54578908D01*
X94770172Y-54881740D01*
X94467340Y-55334959D01*
X94409620Y-55625140D01*
X94232390Y-55743561D01*
X94151566Y-55797566D01*
X92872132Y-57077000D01*
X92658054Y-57077000D01*
X92629902Y-56927383D01*
X92490830Y-56711259D01*
X92278630Y-56566269D01*
X92026740Y-56515260D01*
X91979759Y-56515260D01*
X91966934Y-56496066D01*
X91395434Y-55924566D01*
X91328736Y-55880000D01*
X91124541Y-55743561D01*
X90805000Y-55680000D01*
X87548843Y-55680000D01*
X87549072Y-55417720D01*
X88360250Y-55417720D01*
X88519000Y-55258970D01*
X88519000Y-54610000D01*
X88773000Y-54610000D01*
X88773000Y-55258970D01*
X88931750Y-55417720D01*
X89771800Y-55417720D01*
X90005189Y-55321047D01*
X90183817Y-55142418D01*
X90280490Y-54909029D01*
X90280490Y-54768750D01*
X90121740Y-54610000D01*
X88773000Y-54610000D01*
X88519000Y-54610000D01*
X88499000Y-54610000D01*
X88499000Y-54356000D01*
X88519000Y-54356000D01*
X88519000Y-54336000D01*
X88773000Y-54336000D01*
X88773000Y-54356000D01*
X90121740Y-54356000D01*
X90280490Y-54197250D01*
X90280490Y-54056971D01*
X90190539Y-53839810D01*
X90241921Y-53764610D01*
X90292930Y-53512720D01*
X90292930Y-52913280D01*
X90248652Y-52677963D01*
X90184626Y-52578464D01*
X90241921Y-52494610D01*
X90292930Y-52242720D01*
X90292930Y-51643280D01*
X90268892Y-51515527D01*
X90491201Y-51607838D01*
X90863167Y-51608162D01*
X91206943Y-51466117D01*
X91470192Y-51203327D01*
X91570778Y-50961090D01*
X91966934Y-50564934D01*
X92019542Y-50486201D01*
X92147939Y-50294041D01*
X92211500Y-49974500D01*
X92211500Y-49113975D01*
X92262057Y-49104462D01*
X92478181Y-48965390D01*
X92623171Y-48753190D01*
X92647513Y-48632986D01*
X92777201Y-48686838D01*
X93149167Y-48687162D01*
X93492943Y-48545117D01*
X93621388Y-48416896D01*
X93553162Y-48581201D01*
X93553162Y-48581201D01*
G37*
X93553162Y-48581201D02*
X93552838Y-48953167D01*
X93614650Y-49102763D01*
X93578057Y-49117883D01*
X93314808Y-49380673D01*
X93172162Y-49724201D01*
X93171838Y-50096167D01*
X93313883Y-50439943D01*
X93576673Y-50703192D01*
X93920201Y-50845838D01*
X94292167Y-50846162D01*
X94635943Y-50704117D01*
X94899192Y-50441327D01*
X94909294Y-50417000D01*
X104047604Y-50417000D01*
X103944568Y-50935000D01*
X104050908Y-51469609D01*
X104353740Y-51922828D01*
X104776039Y-52205000D01*
X104353740Y-52487172D01*
X104050908Y-52940391D01*
X103944568Y-53475000D01*
X104050908Y-54009609D01*
X104353740Y-54462828D01*
X104776039Y-54745000D01*
X104353740Y-55027172D01*
X104050908Y-55480391D01*
X103944568Y-56015000D01*
X104050908Y-56549609D01*
X104353740Y-57002828D01*
X104776039Y-57285000D01*
X104353740Y-57567172D01*
X104050908Y-58020391D01*
X103944568Y-58555000D01*
X104050908Y-59089609D01*
X104353740Y-59542828D01*
X104776039Y-59825000D01*
X104353740Y-60107172D01*
X104050908Y-60560391D01*
X103944568Y-61095000D01*
X104050908Y-61629609D01*
X104353740Y-62082828D01*
X104767060Y-62359000D01*
X101437368Y-62359000D01*
X101518838Y-62162799D01*
X101519002Y-61974000D01*
X102434537Y-61974000D01*
X102466673Y-62006192D01*
X102810201Y-62148838D01*
X103182167Y-62149162D01*
X103525943Y-62007117D01*
X103789192Y-61744327D01*
X103931838Y-61400799D01*
X103932162Y-61028833D01*
X103790117Y-60685057D01*
X103527327Y-60421808D01*
X103183799Y-60279162D01*
X102811833Y-60278838D01*
X102468057Y-60420883D01*
X102434882Y-60454000D01*
X101796285Y-60454000D01*
X101825828Y-60434260D01*
X102128660Y-59981041D01*
X102235000Y-59446432D01*
X102235000Y-58907408D01*
X102128660Y-58372799D01*
X101825828Y-57919580D01*
X101406267Y-57639238D01*
X101751465Y-57445870D01*
X102091135Y-57014907D01*
X102240027Y-56486762D01*
X102081254Y-56266080D01*
X100965000Y-56266080D01*
X100965000Y-56286080D01*
X100711000Y-56286080D01*
X100711000Y-56266080D01*
X100691000Y-56266080D01*
X100691000Y-56012080D01*
X100711000Y-56012080D01*
X100711000Y-54669870D01*
X100965000Y-54669870D01*
X100965000Y-56012080D01*
X102081254Y-56012080D01*
X102240027Y-55791398D01*
X102091135Y-55263253D01*
X101751465Y-54832290D01*
X101272728Y-54564118D01*
X101181070Y-54547370D01*
X100965000Y-54669870D01*
X100711000Y-54669870D01*
X100494930Y-54547370D01*
X100403272Y-54564118D01*
X99924535Y-54832290D01*
X99584865Y-55263253D01*
X99571774Y-55309688D01*
X99285828Y-54881740D01*
X98832609Y-54578908D01*
X98298000Y-54472568D01*
X97763391Y-54578908D01*
X97310172Y-54881740D01*
X97028000Y-55304039D01*
X96745828Y-54881740D01*
X96292609Y-54578908D01*
X95758000Y-54472568D01*
X95223391Y-54578908D01*
X94770172Y-54881740D01*
X94467340Y-55334959D01*
X94409620Y-55625140D01*
X94232390Y-55743561D01*
X94151566Y-55797566D01*
X92872132Y-57077000D01*
X92658054Y-57077000D01*
X92629902Y-56927383D01*
X92490830Y-56711259D01*
X92278630Y-56566269D01*
X92026740Y-56515260D01*
X91979759Y-56515260D01*
X91966934Y-56496066D01*
X91395434Y-55924566D01*
X91328736Y-55880000D01*
X91124541Y-55743561D01*
X90805000Y-55680000D01*
X87548843Y-55680000D01*
X87549072Y-55417720D01*
X88360250Y-55417720D01*
X88519000Y-55258970D01*
X88519000Y-54610000D01*
X88773000Y-54610000D01*
X88773000Y-55258970D01*
X88931750Y-55417720D01*
X89771800Y-55417720D01*
X90005189Y-55321047D01*
X90183817Y-55142418D01*
X90280490Y-54909029D01*
X90280490Y-54768750D01*
X90121740Y-54610000D01*
X88773000Y-54610000D01*
X88519000Y-54610000D01*
X88499000Y-54610000D01*
X88499000Y-54356000D01*
X88519000Y-54356000D01*
X88519000Y-54336000D01*
X88773000Y-54336000D01*
X88773000Y-54356000D01*
X90121740Y-54356000D01*
X90280490Y-54197250D01*
X90280490Y-54056971D01*
X90190539Y-53839810D01*
X90241921Y-53764610D01*
X90292930Y-53512720D01*
X90292930Y-52913280D01*
X90248652Y-52677963D01*
X90184626Y-52578464D01*
X90241921Y-52494610D01*
X90292930Y-52242720D01*
X90292930Y-51643280D01*
X90268892Y-51515527D01*
X90491201Y-51607838D01*
X90863167Y-51608162D01*
X91206943Y-51466117D01*
X91470192Y-51203327D01*
X91570778Y-50961090D01*
X91966934Y-50564934D01*
X92019542Y-50486201D01*
X92147939Y-50294041D01*
X92211500Y-49974500D01*
X92211500Y-49113975D01*
X92262057Y-49104462D01*
X92478181Y-48965390D01*
X92623171Y-48753190D01*
X92647513Y-48632986D01*
X92777201Y-48686838D01*
X93149167Y-48687162D01*
X93492943Y-48545117D01*
X93621388Y-48416896D01*
X93553162Y-48581201D01*
G36*
X80345162Y-51756201D02*
X80344838Y-52128167D01*
X80486883Y-52471943D01*
X80749673Y-52735192D01*
X81093201Y-52877838D01*
X81418190Y-52878121D01*
X81411070Y-52913280D01*
X81411070Y-53512720D01*
X81455348Y-53748037D01*
X81519374Y-53847536D01*
X81462079Y-53931390D01*
X81411070Y-54183280D01*
X81411070Y-54782720D01*
X81455348Y-55018037D01*
X81594420Y-55234161D01*
X81806620Y-55379151D01*
X81841902Y-55386296D01*
X81600198Y-55628000D01*
X78702167Y-55628000D01*
X78659902Y-55403383D01*
X78520830Y-55187259D01*
X78308630Y-55042269D01*
X78222449Y-55024817D01*
X78244547Y-55002719D01*
X78341220Y-54769330D01*
X78341220Y-54428390D01*
X78182470Y-54269640D01*
X77533500Y-54269640D01*
X77533500Y-54289640D01*
X77279500Y-54289640D01*
X77279500Y-54269640D01*
X76630530Y-54269640D01*
X76471780Y-54428390D01*
X76471780Y-54769330D01*
X76568453Y-55002719D01*
X76588551Y-55022817D01*
X76520943Y-55035538D01*
X76455454Y-55077679D01*
X76403630Y-55042269D01*
X76309930Y-55023294D01*
X76397651Y-54894910D01*
X76448660Y-54643020D01*
X76448660Y-53719000D01*
X76471780Y-53719000D01*
X76471780Y-53856890D01*
X76630530Y-54015640D01*
X77279500Y-54015640D01*
X77279500Y-53995640D01*
X77533500Y-53995640D01*
X77533500Y-54015640D01*
X78182470Y-54015640D01*
X78341220Y-53856890D01*
X78341220Y-53515950D01*
X78312116Y-53445686D01*
X80324802Y-51433000D01*
X80479367Y-51433000D01*
X80345162Y-51756201D01*
X80345162Y-51756201D01*
G37*
X80345162Y-51756201D02*
X80344838Y-52128167D01*
X80486883Y-52471943D01*
X80749673Y-52735192D01*
X81093201Y-52877838D01*
X81418190Y-52878121D01*
X81411070Y-52913280D01*
X81411070Y-53512720D01*
X81455348Y-53748037D01*
X81519374Y-53847536D01*
X81462079Y-53931390D01*
X81411070Y-54183280D01*
X81411070Y-54782720D01*
X81455348Y-55018037D01*
X81594420Y-55234161D01*
X81806620Y-55379151D01*
X81841902Y-55386296D01*
X81600198Y-55628000D01*
X78702167Y-55628000D01*
X78659902Y-55403383D01*
X78520830Y-55187259D01*
X78308630Y-55042269D01*
X78222449Y-55024817D01*
X78244547Y-55002719D01*
X78341220Y-54769330D01*
X78341220Y-54428390D01*
X78182470Y-54269640D01*
X77533500Y-54269640D01*
X77533500Y-54289640D01*
X77279500Y-54289640D01*
X77279500Y-54269640D01*
X76630530Y-54269640D01*
X76471780Y-54428390D01*
X76471780Y-54769330D01*
X76568453Y-55002719D01*
X76588551Y-55022817D01*
X76520943Y-55035538D01*
X76455454Y-55077679D01*
X76403630Y-55042269D01*
X76309930Y-55023294D01*
X76397651Y-54894910D01*
X76448660Y-54643020D01*
X76448660Y-53719000D01*
X76471780Y-53719000D01*
X76471780Y-53856890D01*
X76630530Y-54015640D01*
X77279500Y-54015640D01*
X77279500Y-53995640D01*
X77533500Y-53995640D01*
X77533500Y-54015640D01*
X78182470Y-54015640D01*
X78341220Y-53856890D01*
X78341220Y-53515950D01*
X78312116Y-53445686D01*
X80324802Y-51433000D01*
X80479367Y-51433000D01*
X80345162Y-51756201D01*
M02*
