G04 #@! TF.FileFunction,Legend,Top*
%FSLAX46Y46*%
G04 Gerber Fmt 4.6, Leading zero omitted, Abs format (unit mm)*
G04 Created by KiCad (PCBNEW 4.0.6) date 06/21/17 15:37:43*
%MOMM*%
%LPD*%
G01*
G04 APERTURE LIST*
%ADD10C,0.100000*%
%ADD11C,0.254000*%
%ADD12C,0.398780*%
%ADD13C,0.304800*%
%ADD14C,0.500000*%
%ADD15C,0.300000*%
%ADD16C,0.127000*%
%ADD17C,0.381000*%
%ADD18C,0.150000*%
%ADD19C,0.299720*%
G04 APERTURE END LIST*
D10*
D11*
X22200000Y-70780000D02*
X22200000Y-73320000D01*
X20930000Y-72050000D02*
X23470000Y-72050000D01*
X23223907Y-72050000D02*
G75*
G03X23223907Y-72050000I-1023907J0D01*
G01*
X46507400Y-40741600D02*
X47421800Y-39903400D01*
X46507400Y-25298400D02*
X47447200Y-26162000D01*
X56692800Y-31648400D02*
G75*
G03X53492400Y-31191200I-1828800J-1371600D01*
G01*
X53492400Y-34848800D02*
G75*
G03X56692800Y-34391600I1371600J1828800D01*
G01*
X52578000Y-33020000D02*
G75*
G03X54864000Y-35306000I2286000J0D01*
G01*
X54864000Y-30734000D02*
G75*
G03X52578000Y-33020000I0J-2286000D01*
G01*
X53492400Y-39217600D02*
G75*
G03X61061600Y-34391600I1371600J6197600D01*
G01*
X61061600Y-31623000D02*
G75*
G03X53467000Y-26822400I-6197600J-1397000D01*
G01*
X48514000Y-33020000D02*
G75*
G03X54864000Y-39370000I6350000J0D01*
G01*
X54838600Y-26670000D02*
G75*
G03X48514000Y-33045400I25400J-6350000D01*
G01*
X64897000Y-31673800D02*
G75*
G03X53517800Y-22987000I-10033000J-1346200D01*
G01*
X53517800Y-43053000D02*
G75*
G03X64897000Y-34366200I1346200J10033000D01*
G01*
X44754800Y-33020000D02*
G75*
G03X54864000Y-43129200I10109200J0D01*
G01*
X54864000Y-22910800D02*
G75*
G03X44754800Y-33020000I0J-10109200D01*
G01*
X66548000Y-30099000D02*
X71755000Y-30099000D01*
X65684400Y-29438600D02*
G75*
G03X51282600Y-22199600I-10820400J-3581400D01*
G01*
X71755000Y-35941000D02*
X66548000Y-35941000D01*
X51257200Y-43815000D02*
G75*
G03X65659000Y-36626800I3606800J10795000D01*
G01*
X72186800Y-30480000D02*
X72186800Y-35509200D01*
X43484800Y-33020000D02*
G75*
G03X54864000Y-44399200I11379200J0D01*
G01*
X54864000Y-21640800D02*
G75*
G03X43484800Y-33020000I0J-11379200D01*
G01*
X70063360Y-34320480D02*
X53863240Y-34320480D01*
X53863240Y-31719520D02*
X70063360Y-31719520D01*
X65709800Y-29464000D02*
G75*
G03X66598800Y-30099000I762000J127000D01*
G01*
X66548000Y-35941000D02*
G75*
G03X65659000Y-36576000I-127000J-762000D01*
G01*
D12*
X69702680Y-28511500D02*
X71704200Y-28511500D01*
X70705980Y-29514800D02*
X70705980Y-27510740D01*
D11*
X52562760Y-33020000D02*
G75*
G03X53863240Y-34320480I1300480J0D01*
G01*
X53863240Y-31719520D02*
G75*
G03X52562760Y-33020000I0J-1300480D01*
G01*
X70070980Y-31719520D02*
X70070980Y-34320480D01*
X71777860Y-35928300D02*
G75*
G03X72179180Y-35526980I0J401320D01*
G01*
X72179180Y-30513020D02*
G75*
G03X71777860Y-30111700I-401320J0D01*
G01*
D13*
X33932000Y-42164000D02*
G75*
G03X33932000Y-42164000I-6500000J0D01*
G01*
X21732000Y-45264000D02*
X21732000Y-39064000D01*
X21532000Y-39764000D02*
X21532000Y-44564000D01*
X21332000Y-40164000D02*
X21332000Y-44164000D01*
X21132000Y-43564000D02*
X21132000Y-40764000D01*
D14*
X23932000Y-40664000D02*
X23932000Y-39164000D01*
D13*
X58488000Y-70928000D02*
X58488000Y-72328000D01*
X58288000Y-70428000D02*
X58288000Y-72828000D01*
X58088000Y-70128000D02*
X58088000Y-73128000D01*
D15*
X57188000Y-72628000D02*
X57188000Y-73228000D01*
D13*
X58688000Y-71628000D02*
G75*
G03X58688000Y-71628000I-2300000J0D01*
G01*
D16*
X31369000Y-58547000D02*
X31369000Y-59817000D01*
X30099000Y-58547000D02*
X30099000Y-59791600D01*
X29718000Y-58547000D02*
X31750000Y-58547000D01*
X31750000Y-58547000D02*
X31750000Y-59817000D01*
X31750000Y-59817000D02*
X29718000Y-59817000D01*
X29718000Y-59817000D02*
X29718000Y-58547000D01*
X24511000Y-59817000D02*
X24511000Y-58547000D01*
X25781000Y-59817000D02*
X25781000Y-58572400D01*
X26162000Y-59817000D02*
X24130000Y-59817000D01*
X24130000Y-59817000D02*
X24130000Y-58547000D01*
X24130000Y-58547000D02*
X26162000Y-58547000D01*
X26162000Y-58547000D02*
X26162000Y-59817000D01*
D13*
X36208000Y-42474000D02*
X41008000Y-42474000D01*
X42908000Y-45974000D02*
G75*
G03X42908000Y-45974000I-4300000J0D01*
G01*
X36808000Y-42274000D02*
X40408000Y-42274000D01*
X37208000Y-42074000D02*
X40008000Y-42074000D01*
X37808000Y-41874000D02*
X39508000Y-41874000D01*
D15*
X39908000Y-43774000D02*
X41108000Y-43774000D01*
D16*
X68707000Y-50165000D02*
X68707000Y-48895000D01*
X69977000Y-50165000D02*
X69977000Y-48920400D01*
X70358000Y-50165000D02*
X68326000Y-50165000D01*
X68326000Y-50165000D02*
X68326000Y-48895000D01*
X68326000Y-48895000D02*
X70358000Y-48895000D01*
X70358000Y-48895000D02*
X70358000Y-50165000D01*
X102235000Y-24765000D02*
X102235000Y-26035000D01*
X100965000Y-24765000D02*
X100965000Y-26009600D01*
X100584000Y-24765000D02*
X102616000Y-24765000D01*
X102616000Y-24765000D02*
X102616000Y-26035000D01*
X102616000Y-26035000D02*
X100584000Y-26035000D01*
X100584000Y-26035000D02*
X100584000Y-24765000D01*
X35176460Y-38168580D02*
X37975540Y-38168580D01*
X37975540Y-38066980D02*
X35176460Y-38066980D01*
X35176460Y-37967920D02*
X37975540Y-37967920D01*
X37975540Y-37868860D02*
X35176460Y-37868860D01*
X37975540Y-37767260D02*
X35176460Y-37767260D01*
X37975540Y-38267640D02*
X37975540Y-33868360D01*
X37975540Y-33868360D02*
X35176460Y-33868360D01*
X35176460Y-33868360D02*
X35176460Y-38267640D01*
X35176460Y-38267640D02*
X37975540Y-38267640D01*
X27178000Y-64315340D02*
X26878280Y-64615060D01*
X26878280Y-64615060D02*
X27477720Y-64615060D01*
X27477720Y-64615060D02*
X27178000Y-64315340D01*
X27277060Y-64416940D02*
X27078940Y-64416940D01*
X26977340Y-64516000D02*
X27378660Y-64516000D01*
X27978100Y-64216280D02*
X26377900Y-64216280D01*
X26377900Y-64815720D02*
X27978100Y-64815720D01*
X26377900Y-65516760D02*
X26377900Y-63515240D01*
X26377900Y-63515240D02*
X27978100Y-63515240D01*
X27978100Y-63515240D02*
X27978100Y-65516760D01*
X27978100Y-65516760D02*
X26377900Y-65516760D01*
X85651340Y-57912000D02*
X85951060Y-58211720D01*
X85951060Y-58211720D02*
X85951060Y-57612280D01*
X85951060Y-57612280D02*
X85651340Y-57912000D01*
X85752940Y-57812940D02*
X85752940Y-58011060D01*
X85852000Y-58112660D02*
X85852000Y-57711340D01*
X85552280Y-57111900D02*
X85552280Y-58712100D01*
X86151720Y-58712100D02*
X86151720Y-57111900D01*
X86852760Y-58712100D02*
X84851240Y-58712100D01*
X84851240Y-58712100D02*
X84851240Y-57111900D01*
X84851240Y-57111900D02*
X86852760Y-57111900D01*
X86852760Y-57111900D02*
X86852760Y-58712100D01*
X85651340Y-47752000D02*
X85951060Y-48051720D01*
X85951060Y-48051720D02*
X85951060Y-47452280D01*
X85951060Y-47452280D02*
X85651340Y-47752000D01*
X85752940Y-47652940D02*
X85752940Y-47851060D01*
X85852000Y-47952660D02*
X85852000Y-47551340D01*
X85552280Y-46951900D02*
X85552280Y-48552100D01*
X86151720Y-48552100D02*
X86151720Y-46951900D01*
X86852760Y-48552100D02*
X84851240Y-48552100D01*
X84851240Y-48552100D02*
X84851240Y-46951900D01*
X84851240Y-46951900D02*
X86852760Y-46951900D01*
X86852760Y-46951900D02*
X86852760Y-48552100D01*
D17*
X24886920Y-24201120D02*
X24886920Y-33202880D01*
X20386040Y-24201120D02*
X20386040Y-33202880D01*
X20386040Y-33202880D02*
X34985960Y-33202880D01*
X34985960Y-33202880D02*
X34985960Y-24201120D01*
X34985960Y-24201120D02*
X20386040Y-24201120D01*
X85598000Y-73188000D02*
X85598000Y-73688000D01*
X90098000Y-69188000D02*
G75*
G03X90098000Y-69188000I-2000000J0D01*
G01*
X85098000Y-69188000D02*
G75*
G03X85098000Y-69188000I-2000000J0D01*
G01*
X80598000Y-71688000D02*
X90598000Y-71688000D01*
X80598000Y-66788000D02*
X90598000Y-66788000D01*
X80598000Y-73188000D02*
X90598000Y-73188000D01*
X80598000Y-73688000D02*
X90598000Y-73688000D01*
X90598000Y-73688000D02*
X90598000Y-63888000D01*
X90598000Y-63888000D02*
X80598000Y-63888000D01*
X80598000Y-63888000D02*
X80598000Y-73688000D01*
D13*
X94488000Y-55118000D02*
X102108000Y-55118000D01*
X102108000Y-55118000D02*
X102108000Y-60198000D01*
X102108000Y-60198000D02*
X94488000Y-60198000D01*
X94488000Y-57658000D02*
X97028000Y-57658000D01*
X97028000Y-57658000D02*
X97028000Y-60198000D01*
X94488000Y-55118000D02*
X94488000Y-60198000D01*
D16*
X77406500Y-53784500D02*
X77406500Y-54444900D01*
X75501500Y-53784500D02*
X75501500Y-54444900D01*
X76454000Y-52387500D02*
X76454000Y-51727100D01*
X74955400Y-52387500D02*
X77952600Y-52387500D01*
X77952600Y-52387500D02*
X77952600Y-53784500D01*
X77952600Y-53784500D02*
X74955400Y-53784500D01*
X74955400Y-53784500D02*
X74955400Y-52387500D01*
X24765000Y-65151000D02*
X23495000Y-65151000D01*
X24765000Y-63881000D02*
X23520400Y-63881000D01*
X24765000Y-63500000D02*
X24765000Y-65532000D01*
X24765000Y-65532000D02*
X23495000Y-65532000D01*
X23495000Y-65532000D02*
X23495000Y-63500000D01*
X23495000Y-63500000D02*
X24765000Y-63500000D01*
X69723000Y-53975000D02*
X70993000Y-53975000D01*
X69723000Y-55245000D02*
X70967600Y-55245000D01*
X69723000Y-55626000D02*
X69723000Y-53594000D01*
X69723000Y-53594000D02*
X70993000Y-53594000D01*
X70993000Y-53594000D02*
X70993000Y-55626000D01*
X70993000Y-55626000D02*
X69723000Y-55626000D01*
X76073000Y-49149000D02*
X76073000Y-50419000D01*
X74803000Y-49149000D02*
X74803000Y-50393600D01*
X74422000Y-49149000D02*
X76454000Y-49149000D01*
X76454000Y-49149000D02*
X76454000Y-50419000D01*
X76454000Y-50419000D02*
X74422000Y-50419000D01*
X74422000Y-50419000D02*
X74422000Y-49149000D01*
X72263000Y-53975000D02*
X73533000Y-53975000D01*
X72263000Y-55245000D02*
X73507600Y-55245000D01*
X72263000Y-55626000D02*
X72263000Y-53594000D01*
X72263000Y-53594000D02*
X73533000Y-53594000D01*
X73533000Y-53594000D02*
X73533000Y-55626000D01*
X73533000Y-55626000D02*
X72263000Y-55626000D01*
X75819000Y-57023000D02*
X75819000Y-55753000D01*
X77089000Y-57023000D02*
X77089000Y-55778400D01*
X77470000Y-57023000D02*
X75438000Y-57023000D01*
X75438000Y-57023000D02*
X75438000Y-55753000D01*
X75438000Y-55753000D02*
X77470000Y-55753000D01*
X77470000Y-55753000D02*
X77470000Y-57023000D01*
X89789000Y-58547000D02*
X89789000Y-57277000D01*
X91059000Y-58547000D02*
X91059000Y-57302400D01*
X91440000Y-58547000D02*
X89408000Y-58547000D01*
X89408000Y-58547000D02*
X89408000Y-57277000D01*
X89408000Y-57277000D02*
X91440000Y-57277000D01*
X91440000Y-57277000D02*
X91440000Y-58547000D01*
X89789000Y-48387000D02*
X89789000Y-47117000D01*
X91059000Y-48387000D02*
X91059000Y-47142400D01*
X91440000Y-48387000D02*
X89408000Y-48387000D01*
X89408000Y-48387000D02*
X89408000Y-47117000D01*
X89408000Y-47117000D02*
X91440000Y-47117000D01*
X91440000Y-47117000D02*
X91440000Y-48387000D01*
X82423000Y-61341000D02*
X82423000Y-62611000D01*
X81153000Y-61341000D02*
X81153000Y-62585600D01*
X80772000Y-61341000D02*
X82804000Y-61341000D01*
X82804000Y-61341000D02*
X82804000Y-62611000D01*
X82804000Y-62611000D02*
X80772000Y-62611000D01*
X80772000Y-62611000D02*
X80772000Y-61341000D01*
X86233000Y-61341000D02*
X86233000Y-62611000D01*
X84963000Y-61341000D02*
X84963000Y-62585600D01*
X84582000Y-61341000D02*
X86614000Y-61341000D01*
X86614000Y-61341000D02*
X86614000Y-62611000D01*
X86614000Y-62611000D02*
X84582000Y-62611000D01*
X84582000Y-62611000D02*
X84582000Y-61341000D01*
X90043000Y-61341000D02*
X90043000Y-62611000D01*
X88773000Y-61341000D02*
X88773000Y-62585600D01*
X88392000Y-61341000D02*
X90424000Y-61341000D01*
X90424000Y-61341000D02*
X90424000Y-62611000D01*
X90424000Y-62611000D02*
X88392000Y-62611000D01*
X88392000Y-62611000D02*
X88392000Y-61341000D01*
D13*
X24688800Y-50609500D02*
X24688800Y-50109120D01*
X24688800Y-50109120D02*
X31191200Y-50109120D01*
X31191200Y-50109120D02*
X31191200Y-50609500D01*
X22440900Y-63360300D02*
X22440900Y-52110640D01*
X22440900Y-52110640D02*
X22689820Y-51859180D01*
X22689820Y-51859180D02*
X33190180Y-51859180D01*
X33190180Y-51859180D02*
X33439100Y-52110640D01*
X33439100Y-52110640D02*
X33439100Y-63360300D01*
X21191220Y-51610260D02*
X21191220Y-63360300D01*
X33690560Y-50609500D02*
X22189440Y-50609500D01*
X33690560Y-50609500D02*
X34190940Y-50860960D01*
X34190940Y-50860960D02*
X34439860Y-51109880D01*
X34439860Y-51109880D02*
X34688780Y-51610260D01*
X34688780Y-51610260D02*
X34688780Y-63360300D01*
X21191220Y-51610260D02*
X21440140Y-51109880D01*
X21440140Y-51109880D02*
X21689060Y-50860960D01*
X21689060Y-50860960D02*
X22189440Y-50609500D01*
X34688780Y-63360300D02*
X33439100Y-63360300D01*
X22440900Y-63360300D02*
X21191220Y-63360300D01*
D11*
X22860000Y-52578000D02*
X33020000Y-52578000D01*
X22860000Y-53340000D02*
X22860000Y-57150000D01*
X22860000Y-57150000D02*
X33020000Y-57150000D01*
X33020000Y-57150000D02*
X33020000Y-52070000D01*
X33020000Y-52070000D02*
X22860000Y-52070000D01*
X22860000Y-52070000D02*
X22860000Y-53340000D01*
D17*
X76708000Y-68580000D02*
X41148000Y-68580000D01*
X40132000Y-66802000D02*
X77724000Y-66802000D01*
X76708000Y-58420000D02*
X41148000Y-58420000D01*
X40132000Y-60198000D02*
X77724000Y-60198000D01*
D11*
X73660000Y-62230000D02*
X44196000Y-62230000D01*
X44196000Y-64770000D02*
X73660000Y-64770000D01*
X57658000Y-64770000D02*
X57658000Y-62230000D01*
X60198000Y-64770000D02*
X60198000Y-62230000D01*
D17*
X76708000Y-64770000D02*
X76708000Y-62230000D01*
D11*
X75438000Y-63500000D02*
G75*
G03X76708000Y-64770000I1270000J0D01*
G01*
X76708000Y-62230000D02*
G75*
G03X75438000Y-63500000I0J-1270000D01*
G01*
D17*
X76708000Y-62230000D02*
X77724000Y-62230000D01*
X76708000Y-64770000D02*
X77724000Y-64770000D01*
D11*
X73660000Y-64770000D02*
X73660000Y-62230000D01*
X44196000Y-62230000D02*
X44196000Y-64770000D01*
D17*
X41148000Y-68580000D02*
X41148000Y-58420000D01*
X76708000Y-58420000D02*
X76708000Y-68580000D01*
X40132000Y-66802000D02*
X40132000Y-60198000D01*
X77724000Y-60198000D02*
X77724000Y-66802000D01*
D16*
X67360800Y-47879000D02*
X71323200Y-47879000D01*
X71323200Y-47879000D02*
X71323200Y-43053000D01*
X71323200Y-43053000D02*
X67360800Y-43053000D01*
X67360800Y-43053000D02*
X67360800Y-47879000D01*
X67360800Y-47371000D02*
X66268600Y-47371000D01*
X67360800Y-46101000D02*
X66268600Y-46101000D01*
X67360800Y-44831000D02*
X66268600Y-44831000D01*
X66268600Y-43561000D02*
X67360800Y-43561000D01*
X71323200Y-43561000D02*
X72415400Y-43561000D01*
X72415400Y-44831000D02*
X71323200Y-44831000D01*
X72415400Y-46101000D02*
X71323200Y-46101000D01*
X72415400Y-47371000D02*
X71323200Y-47371000D01*
X71059067Y-47142400D02*
G75*
G03X71059067Y-47142400I-472467J0D01*
G01*
D18*
X101286000Y-70010000D02*
X101286000Y-64660000D01*
X100036000Y-71260000D02*
G75*
G03X101286000Y-70010000I0J1250000D01*
G01*
X95036000Y-71260000D02*
X100036000Y-71260000D01*
X93786000Y-70010000D02*
G75*
G03X95036000Y-71260000I1250000J0D01*
G01*
X93786000Y-64660000D02*
X93786000Y-70010000D01*
X101286000Y-64660000D02*
G75*
G03X100086000Y-63360000I-1250000J50000D01*
G01*
X94986000Y-63360000D02*
X100086000Y-63360000D01*
X94986000Y-63360000D02*
G75*
G03X93786000Y-64660000I50000J-1250000D01*
G01*
D16*
X87833200Y-50165000D02*
X83870800Y-50165000D01*
X83870800Y-50165000D02*
X83870800Y-54991000D01*
X83870800Y-54991000D02*
X87833200Y-54991000D01*
X87833200Y-54991000D02*
X87833200Y-50165000D01*
X87833200Y-50673000D02*
X88925400Y-50673000D01*
X87833200Y-51943000D02*
X88925400Y-51943000D01*
X87833200Y-53213000D02*
X88925400Y-53213000D01*
X88925400Y-54483000D02*
X87833200Y-54483000D01*
X83870800Y-54483000D02*
X82778600Y-54483000D01*
X82778600Y-53213000D02*
X83870800Y-53213000D01*
X82778600Y-51943000D02*
X83870800Y-51943000D01*
X82778600Y-50673000D02*
X83870800Y-50673000D01*
X85079867Y-50901600D02*
G75*
G03X85079867Y-50901600I-472467J0D01*
G01*
D19*
X60408820Y-55585360D02*
X60408820Y-50586640D01*
X60408820Y-50586640D02*
X48811180Y-50586640D01*
X48811180Y-50586640D02*
X48811180Y-55585360D01*
X48811180Y-55585360D02*
X60408820Y-55585360D01*
D11*
X49022000Y-53086000D02*
G75*
G03X51308000Y-55372000I2286000J0D01*
G01*
X57912000Y-51308000D02*
X51308000Y-51308000D01*
X51308000Y-54864000D02*
X57912000Y-54864000D01*
X51308000Y-51308000D02*
G75*
G03X49530000Y-53086000I0J-1778000D01*
G01*
X49530000Y-53086000D02*
G75*
G03X51308000Y-54864000I1778000J0D01*
G01*
X59690000Y-53086000D02*
G75*
G03X57912000Y-51308000I-1778000J0D01*
G01*
X57912000Y-54864000D02*
G75*
G03X59690000Y-53086000I0J1778000D01*
G01*
X51308000Y-50800000D02*
G75*
G03X49022000Y-53086000I0J-2286000D01*
G01*
X51308000Y-50800000D02*
X57912000Y-50800000D01*
X57912000Y-55372000D02*
X51308000Y-55372000D01*
X60198000Y-53086000D02*
G75*
G03X57912000Y-50800000I-2286000J0D01*
G01*
X57912000Y-55372000D02*
G75*
G03X60198000Y-53086000I0J2286000D01*
G01*
X75278000Y-47736000D02*
X81278000Y-47736000D01*
X75278000Y-47736000D02*
X75278000Y-45736000D01*
X75278000Y-45736000D02*
X81278000Y-45736000D01*
X81278000Y-47736000D02*
X81278000Y-45736000D01*
X22200000Y-20930000D02*
X22200000Y-23470000D01*
X20930000Y-22200000D02*
X23470000Y-22200000D01*
X23223907Y-22200000D02*
G75*
G03X23223907Y-22200000I-1023907J0D01*
G01*
X107720000Y-20930000D02*
X107720000Y-23470000D01*
X106450000Y-22200000D02*
X108990000Y-22200000D01*
X108743907Y-22200000D02*
G75*
G03X108743907Y-22200000I-1023907J0D01*
G01*
X107720000Y-70780000D02*
X107720000Y-73320000D01*
X106450000Y-72050000D02*
X108990000Y-72050000D01*
X108743907Y-72050000D02*
G75*
G03X108743907Y-72050000I-1023907J0D01*
G01*
D16*
X72263000Y-71501000D02*
X73533000Y-71501000D01*
X72263000Y-72771000D02*
X73507600Y-72771000D01*
X72263000Y-73152000D02*
X72263000Y-71120000D01*
X72263000Y-71120000D02*
X73533000Y-71120000D01*
X73533000Y-71120000D02*
X73533000Y-73152000D01*
X73533000Y-73152000D02*
X72263000Y-73152000D01*
X74803000Y-71501000D02*
X76073000Y-71501000D01*
X74803000Y-72771000D02*
X76047600Y-72771000D01*
X74803000Y-73152000D02*
X74803000Y-71120000D01*
X74803000Y-71120000D02*
X76073000Y-71120000D01*
X76073000Y-71120000D02*
X76073000Y-73152000D01*
X76073000Y-73152000D02*
X74803000Y-73152000D01*
D18*
X43410286Y-24820571D02*
X43553143Y-24868190D01*
X43600762Y-24915810D01*
X43648381Y-25011048D01*
X43648381Y-25153905D01*
X43600762Y-25249143D01*
X43553143Y-25296762D01*
X43457905Y-25344381D01*
X43076952Y-25344381D01*
X43076952Y-24344381D01*
X43410286Y-24344381D01*
X43505524Y-24392000D01*
X43553143Y-24439619D01*
X43600762Y-24534857D01*
X43600762Y-24630095D01*
X43553143Y-24725333D01*
X43505524Y-24772952D01*
X43410286Y-24820571D01*
X43076952Y-24820571D01*
X43934095Y-24344381D02*
X44505524Y-24344381D01*
X44219809Y-25344381D02*
X44219809Y-24344381D01*
X45362667Y-25344381D02*
X44791238Y-25344381D01*
X45076952Y-25344381D02*
X45076952Y-24344381D01*
X44981714Y-24487238D01*
X44886476Y-24582476D01*
X44791238Y-24630095D01*
X20915334Y-38203143D02*
X20867715Y-38250762D01*
X20724858Y-38298381D01*
X20629620Y-38298381D01*
X20486762Y-38250762D01*
X20391524Y-38155524D01*
X20343905Y-38060286D01*
X20296286Y-37869810D01*
X20296286Y-37726952D01*
X20343905Y-37536476D01*
X20391524Y-37441238D01*
X20486762Y-37346000D01*
X20629620Y-37298381D01*
X20724858Y-37298381D01*
X20867715Y-37346000D01*
X20915334Y-37393619D01*
X21867715Y-38298381D02*
X21296286Y-38298381D01*
X21582000Y-38298381D02*
X21582000Y-37298381D01*
X21486762Y-37441238D01*
X21391524Y-37536476D01*
X21296286Y-37584095D01*
X60345143Y-71794666D02*
X60392762Y-71842285D01*
X60440381Y-71985142D01*
X60440381Y-72080380D01*
X60392762Y-72223238D01*
X60297524Y-72318476D01*
X60202286Y-72366095D01*
X60011810Y-72413714D01*
X59868952Y-72413714D01*
X59678476Y-72366095D01*
X59583238Y-72318476D01*
X59488000Y-72223238D01*
X59440381Y-72080380D01*
X59440381Y-71985142D01*
X59488000Y-71842285D01*
X59535619Y-71794666D01*
X59535619Y-71413714D02*
X59488000Y-71366095D01*
X59440381Y-71270857D01*
X59440381Y-71032761D01*
X59488000Y-70937523D01*
X59535619Y-70889904D01*
X59630857Y-70842285D01*
X59726095Y-70842285D01*
X59868952Y-70889904D01*
X60440381Y-71461333D01*
X60440381Y-70842285D01*
X30567334Y-61317143D02*
X30519715Y-61364762D01*
X30376858Y-61412381D01*
X30281620Y-61412381D01*
X30138762Y-61364762D01*
X30043524Y-61269524D01*
X29995905Y-61174286D01*
X29948286Y-60983810D01*
X29948286Y-60840952D01*
X29995905Y-60650476D01*
X30043524Y-60555238D01*
X30138762Y-60460000D01*
X30281620Y-60412381D01*
X30376858Y-60412381D01*
X30519715Y-60460000D01*
X30567334Y-60507619D01*
X30900667Y-60412381D02*
X31519715Y-60412381D01*
X31186381Y-60793333D01*
X31329239Y-60793333D01*
X31424477Y-60840952D01*
X31472096Y-60888571D01*
X31519715Y-60983810D01*
X31519715Y-61221905D01*
X31472096Y-61317143D01*
X31424477Y-61364762D01*
X31329239Y-61412381D01*
X31043524Y-61412381D01*
X30948286Y-61364762D01*
X30900667Y-61317143D01*
X24979334Y-61317143D02*
X24931715Y-61364762D01*
X24788858Y-61412381D01*
X24693620Y-61412381D01*
X24550762Y-61364762D01*
X24455524Y-61269524D01*
X24407905Y-61174286D01*
X24360286Y-60983810D01*
X24360286Y-60840952D01*
X24407905Y-60650476D01*
X24455524Y-60555238D01*
X24550762Y-60460000D01*
X24693620Y-60412381D01*
X24788858Y-60412381D01*
X24931715Y-60460000D01*
X24979334Y-60507619D01*
X25884096Y-60412381D02*
X25407905Y-60412381D01*
X25360286Y-60888571D01*
X25407905Y-60840952D01*
X25503143Y-60793333D01*
X25741239Y-60793333D01*
X25836477Y-60840952D01*
X25884096Y-60888571D01*
X25931715Y-60983810D01*
X25931715Y-61221905D01*
X25884096Y-61317143D01*
X25836477Y-61364762D01*
X25741239Y-61412381D01*
X25503143Y-61412381D01*
X25407905Y-61364762D01*
X25360286Y-61317143D01*
X41997334Y-42013143D02*
X41949715Y-42060762D01*
X41806858Y-42108381D01*
X41711620Y-42108381D01*
X41568762Y-42060762D01*
X41473524Y-41965524D01*
X41425905Y-41870286D01*
X41378286Y-41679810D01*
X41378286Y-41536952D01*
X41425905Y-41346476D01*
X41473524Y-41251238D01*
X41568762Y-41156000D01*
X41711620Y-41108381D01*
X41806858Y-41108381D01*
X41949715Y-41156000D01*
X41997334Y-41203619D01*
X42330667Y-41108381D02*
X42997334Y-41108381D01*
X42568762Y-42108381D01*
X68699143Y-51665143D02*
X68651524Y-51712762D01*
X68508667Y-51760381D01*
X68413429Y-51760381D01*
X68270571Y-51712762D01*
X68175333Y-51617524D01*
X68127714Y-51522286D01*
X68080095Y-51331810D01*
X68080095Y-51188952D01*
X68127714Y-50998476D01*
X68175333Y-50903238D01*
X68270571Y-50808000D01*
X68413429Y-50760381D01*
X68508667Y-50760381D01*
X68651524Y-50808000D01*
X68699143Y-50855619D01*
X69651524Y-51760381D02*
X69080095Y-51760381D01*
X69365809Y-51760381D02*
X69365809Y-50760381D01*
X69270571Y-50903238D01*
X69175333Y-50998476D01*
X69080095Y-51046095D01*
X70603905Y-51760381D02*
X70032476Y-51760381D01*
X70318190Y-51760381D02*
X70318190Y-50760381D01*
X70222952Y-50903238D01*
X70127714Y-50998476D01*
X70032476Y-51046095D01*
X100957143Y-23979143D02*
X100909524Y-24026762D01*
X100766667Y-24074381D01*
X100671429Y-24074381D01*
X100528571Y-24026762D01*
X100433333Y-23931524D01*
X100385714Y-23836286D01*
X100338095Y-23645810D01*
X100338095Y-23502952D01*
X100385714Y-23312476D01*
X100433333Y-23217238D01*
X100528571Y-23122000D01*
X100671429Y-23074381D01*
X100766667Y-23074381D01*
X100909524Y-23122000D01*
X100957143Y-23169619D01*
X101909524Y-24074381D02*
X101338095Y-24074381D01*
X101623809Y-24074381D02*
X101623809Y-23074381D01*
X101528571Y-23217238D01*
X101433333Y-23312476D01*
X101338095Y-23360095D01*
X102290476Y-23169619D02*
X102338095Y-23122000D01*
X102433333Y-23074381D01*
X102671429Y-23074381D01*
X102766667Y-23122000D01*
X102814286Y-23169619D01*
X102861905Y-23264857D01*
X102861905Y-23360095D01*
X102814286Y-23502952D01*
X102242857Y-24074381D01*
X102861905Y-24074381D01*
X35837905Y-40330381D02*
X35837905Y-39330381D01*
X36076000Y-39330381D01*
X36218858Y-39378000D01*
X36314096Y-39473238D01*
X36361715Y-39568476D01*
X36409334Y-39758952D01*
X36409334Y-39901810D01*
X36361715Y-40092286D01*
X36314096Y-40187524D01*
X36218858Y-40282762D01*
X36076000Y-40330381D01*
X35837905Y-40330381D01*
X37361715Y-40330381D02*
X36790286Y-40330381D01*
X37076000Y-40330381D02*
X37076000Y-39330381D01*
X36980762Y-39473238D01*
X36885524Y-39568476D01*
X36790286Y-39616095D01*
X27630381Y-68302095D02*
X26630381Y-68302095D01*
X26630381Y-68064000D01*
X26678000Y-67921142D01*
X26773238Y-67825904D01*
X26868476Y-67778285D01*
X27058952Y-67730666D01*
X27201810Y-67730666D01*
X27392286Y-67778285D01*
X27487524Y-67825904D01*
X27582762Y-67921142D01*
X27630381Y-68064000D01*
X27630381Y-68302095D01*
X26725619Y-67349714D02*
X26678000Y-67302095D01*
X26630381Y-67206857D01*
X26630381Y-66968761D01*
X26678000Y-66873523D01*
X26725619Y-66825904D01*
X26820857Y-66778285D01*
X26916095Y-66778285D01*
X27058952Y-66825904D01*
X27630381Y-67397333D01*
X27630381Y-66778285D01*
X29408381Y-65849333D02*
X28408381Y-65849333D01*
X28408381Y-65468380D01*
X28456000Y-65373142D01*
X28503619Y-65325523D01*
X28598857Y-65277904D01*
X28741714Y-65277904D01*
X28836952Y-65325523D01*
X28884571Y-65373142D01*
X28932190Y-65468380D01*
X28932190Y-65849333D01*
X28408381Y-64944571D02*
X29408381Y-64706476D01*
X28694095Y-64515999D01*
X29408381Y-64325523D01*
X28408381Y-64087428D01*
X29408381Y-63135047D02*
X28932190Y-63468381D01*
X29408381Y-63706476D02*
X28408381Y-63706476D01*
X28408381Y-63325523D01*
X28456000Y-63230285D01*
X28503619Y-63182666D01*
X28598857Y-63135047D01*
X28741714Y-63135047D01*
X28836952Y-63182666D01*
X28884571Y-63230285D01*
X28932190Y-63325523D01*
X28932190Y-63706476D01*
X82065905Y-58364381D02*
X82065905Y-57364381D01*
X82304000Y-57364381D01*
X82446858Y-57412000D01*
X82542096Y-57507238D01*
X82589715Y-57602476D01*
X82637334Y-57792952D01*
X82637334Y-57935810D01*
X82589715Y-58126286D01*
X82542096Y-58221524D01*
X82446858Y-58316762D01*
X82304000Y-58364381D01*
X82065905Y-58364381D01*
X82970667Y-57364381D02*
X83589715Y-57364381D01*
X83256381Y-57745333D01*
X83399239Y-57745333D01*
X83494477Y-57792952D01*
X83542096Y-57840571D01*
X83589715Y-57935810D01*
X83589715Y-58173905D01*
X83542096Y-58269143D01*
X83494477Y-58316762D01*
X83399239Y-58364381D01*
X83113524Y-58364381D01*
X83018286Y-58316762D01*
X82970667Y-58269143D01*
X85090095Y-55563521D02*
X85661524Y-55563521D01*
X85375809Y-56563521D02*
X85375809Y-55563521D01*
X85899619Y-55563521D02*
X86566286Y-56563521D01*
X86566286Y-55563521D02*
X85899619Y-56563521D01*
X85113905Y-49855381D02*
X85113905Y-48855381D01*
X85352000Y-48855381D01*
X85494858Y-48903000D01*
X85590096Y-48998238D01*
X85637715Y-49093476D01*
X85685334Y-49283952D01*
X85685334Y-49426810D01*
X85637715Y-49617286D01*
X85590096Y-49712524D01*
X85494858Y-49807762D01*
X85352000Y-49855381D01*
X85113905Y-49855381D01*
X86542477Y-49188714D02*
X86542477Y-49855381D01*
X86304381Y-48807762D02*
X86066286Y-49522048D01*
X86685334Y-49522048D01*
X85685334Y-46403521D02*
X85352000Y-45927330D01*
X85113905Y-46403521D02*
X85113905Y-45403521D01*
X85494858Y-45403521D01*
X85590096Y-45451140D01*
X85637715Y-45498759D01*
X85685334Y-45593997D01*
X85685334Y-45736854D01*
X85637715Y-45832092D01*
X85590096Y-45879711D01*
X85494858Y-45927330D01*
X85113905Y-45927330D01*
X86018667Y-45403521D02*
X86685334Y-46403521D01*
X86685334Y-45403521D02*
X86018667Y-46403521D01*
X35988667Y-24344381D02*
X35988667Y-25058667D01*
X35941047Y-25201524D01*
X35845809Y-25296762D01*
X35702952Y-25344381D01*
X35607714Y-25344381D01*
X36988667Y-25344381D02*
X36417238Y-25344381D01*
X36702952Y-25344381D02*
X36702952Y-24344381D01*
X36607714Y-24487238D01*
X36512476Y-24582476D01*
X36417238Y-24630095D01*
X91360667Y-72604381D02*
X91360667Y-73318667D01*
X91313047Y-73461524D01*
X91217809Y-73556762D01*
X91074952Y-73604381D01*
X90979714Y-73604381D01*
X91789238Y-72699619D02*
X91836857Y-72652000D01*
X91932095Y-72604381D01*
X92170191Y-72604381D01*
X92265429Y-72652000D01*
X92313048Y-72699619D01*
X92360667Y-72794857D01*
X92360667Y-72890095D01*
X92313048Y-73032952D01*
X91741619Y-73604381D01*
X92360667Y-73604381D01*
X97964667Y-53300381D02*
X97964667Y-54014667D01*
X97917047Y-54157524D01*
X97821809Y-54252762D01*
X97678952Y-54300381D01*
X97583714Y-54300381D01*
X98345619Y-53300381D02*
X98964667Y-53300381D01*
X98631333Y-53681333D01*
X98774191Y-53681333D01*
X98869429Y-53728952D01*
X98917048Y-53776571D01*
X98964667Y-53871810D01*
X98964667Y-54109905D01*
X98917048Y-54205143D01*
X98869429Y-54252762D01*
X98774191Y-54300381D01*
X98488476Y-54300381D01*
X98393238Y-54252762D01*
X98345619Y-54205143D01*
X79406762Y-53633619D02*
X79311524Y-53586000D01*
X79216286Y-53490762D01*
X79073429Y-53347905D01*
X78978190Y-53300286D01*
X78882952Y-53300286D01*
X78930571Y-53538381D02*
X78835333Y-53490762D01*
X78740095Y-53395524D01*
X78692476Y-53205048D01*
X78692476Y-52871714D01*
X78740095Y-52681238D01*
X78835333Y-52586000D01*
X78930571Y-52538381D01*
X79121048Y-52538381D01*
X79216286Y-52586000D01*
X79311524Y-52681238D01*
X79359143Y-52871714D01*
X79359143Y-53205048D01*
X79311524Y-53395524D01*
X79216286Y-53490762D01*
X79121048Y-53538381D01*
X78930571Y-53538381D01*
X80311524Y-53538381D02*
X79740095Y-53538381D01*
X80025809Y-53538381D02*
X80025809Y-52538381D01*
X79930571Y-52681238D01*
X79835333Y-52776476D01*
X79740095Y-52824095D01*
X24582381Y-67476666D02*
X24106190Y-67810000D01*
X24582381Y-68048095D02*
X23582381Y-68048095D01*
X23582381Y-67667142D01*
X23630000Y-67571904D01*
X23677619Y-67524285D01*
X23772857Y-67476666D01*
X23915714Y-67476666D01*
X24010952Y-67524285D01*
X24058571Y-67571904D01*
X24106190Y-67667142D01*
X24106190Y-68048095D01*
X24582381Y-66524285D02*
X24582381Y-67095714D01*
X24582381Y-66810000D02*
X23582381Y-66810000D01*
X23725238Y-66905238D01*
X23820476Y-67000476D01*
X23868095Y-67095714D01*
X69032381Y-54776666D02*
X68556190Y-55110000D01*
X69032381Y-55348095D02*
X68032381Y-55348095D01*
X68032381Y-54967142D01*
X68080000Y-54871904D01*
X68127619Y-54824285D01*
X68222857Y-54776666D01*
X68365714Y-54776666D01*
X68460952Y-54824285D01*
X68508571Y-54871904D01*
X68556190Y-54967142D01*
X68556190Y-55348095D01*
X68127619Y-54395714D02*
X68080000Y-54348095D01*
X68032381Y-54252857D01*
X68032381Y-54014761D01*
X68080000Y-53919523D01*
X68127619Y-53871904D01*
X68222857Y-53824285D01*
X68318095Y-53824285D01*
X68460952Y-53871904D01*
X69032381Y-54443333D01*
X69032381Y-53824285D01*
X78319334Y-50236381D02*
X77986000Y-49760190D01*
X77747905Y-50236381D02*
X77747905Y-49236381D01*
X78128858Y-49236381D01*
X78224096Y-49284000D01*
X78271715Y-49331619D01*
X78319334Y-49426857D01*
X78319334Y-49569714D01*
X78271715Y-49664952D01*
X78224096Y-49712571D01*
X78128858Y-49760190D01*
X77747905Y-49760190D01*
X78652667Y-49236381D02*
X79271715Y-49236381D01*
X78938381Y-49617333D01*
X79081239Y-49617333D01*
X79176477Y-49664952D01*
X79224096Y-49712571D01*
X79271715Y-49807810D01*
X79271715Y-50045905D01*
X79224096Y-50141143D01*
X79176477Y-50188762D01*
X79081239Y-50236381D01*
X78795524Y-50236381D01*
X78700286Y-50188762D01*
X78652667Y-50141143D01*
X72731334Y-52522381D02*
X72398000Y-52046190D01*
X72159905Y-52522381D02*
X72159905Y-51522381D01*
X72540858Y-51522381D01*
X72636096Y-51570000D01*
X72683715Y-51617619D01*
X72731334Y-51712857D01*
X72731334Y-51855714D01*
X72683715Y-51950952D01*
X72636096Y-51998571D01*
X72540858Y-52046190D01*
X72159905Y-52046190D01*
X73588477Y-51855714D02*
X73588477Y-52522381D01*
X73350381Y-51474762D02*
X73112286Y-52189048D01*
X73731334Y-52189048D01*
X79589334Y-56840381D02*
X79256000Y-56364190D01*
X79017905Y-56840381D02*
X79017905Y-55840381D01*
X79398858Y-55840381D01*
X79494096Y-55888000D01*
X79541715Y-55935619D01*
X79589334Y-56030857D01*
X79589334Y-56173714D01*
X79541715Y-56268952D01*
X79494096Y-56316571D01*
X79398858Y-56364190D01*
X79017905Y-56364190D01*
X80494096Y-55840381D02*
X80017905Y-55840381D01*
X79970286Y-56316571D01*
X80017905Y-56268952D01*
X80113143Y-56221333D01*
X80351239Y-56221333D01*
X80446477Y-56268952D01*
X80494096Y-56316571D01*
X80541715Y-56411810D01*
X80541715Y-56649905D01*
X80494096Y-56745143D01*
X80446477Y-56792762D01*
X80351239Y-56840381D01*
X80113143Y-56840381D01*
X80017905Y-56792762D01*
X79970286Y-56745143D01*
X91527334Y-56586381D02*
X91194000Y-56110190D01*
X90955905Y-56586381D02*
X90955905Y-55586381D01*
X91336858Y-55586381D01*
X91432096Y-55634000D01*
X91479715Y-55681619D01*
X91527334Y-55776857D01*
X91527334Y-55919714D01*
X91479715Y-56014952D01*
X91432096Y-56062571D01*
X91336858Y-56110190D01*
X90955905Y-56110190D01*
X92384477Y-55586381D02*
X92194000Y-55586381D01*
X92098762Y-55634000D01*
X92051143Y-55681619D01*
X91955905Y-55824476D01*
X91908286Y-56014952D01*
X91908286Y-56395905D01*
X91955905Y-56491143D01*
X92003524Y-56538762D01*
X92098762Y-56586381D01*
X92289239Y-56586381D01*
X92384477Y-56538762D01*
X92432096Y-56491143D01*
X92479715Y-56395905D01*
X92479715Y-56157810D01*
X92432096Y-56062571D01*
X92384477Y-56014952D01*
X92289239Y-55967333D01*
X92098762Y-55967333D01*
X92003524Y-56014952D01*
X91955905Y-56062571D01*
X91908286Y-56157810D01*
X90257334Y-46426381D02*
X89924000Y-45950190D01*
X89685905Y-46426381D02*
X89685905Y-45426381D01*
X90066858Y-45426381D01*
X90162096Y-45474000D01*
X90209715Y-45521619D01*
X90257334Y-45616857D01*
X90257334Y-45759714D01*
X90209715Y-45854952D01*
X90162096Y-45902571D01*
X90066858Y-45950190D01*
X89685905Y-45950190D01*
X90590667Y-45426381D02*
X91257334Y-45426381D01*
X90828762Y-46426381D01*
X81621334Y-60650381D02*
X81288000Y-60174190D01*
X81049905Y-60650381D02*
X81049905Y-59650381D01*
X81430858Y-59650381D01*
X81526096Y-59698000D01*
X81573715Y-59745619D01*
X81621334Y-59840857D01*
X81621334Y-59983714D01*
X81573715Y-60078952D01*
X81526096Y-60126571D01*
X81430858Y-60174190D01*
X81049905Y-60174190D01*
X82192762Y-60078952D02*
X82097524Y-60031333D01*
X82049905Y-59983714D01*
X82002286Y-59888476D01*
X82002286Y-59840857D01*
X82049905Y-59745619D01*
X82097524Y-59698000D01*
X82192762Y-59650381D01*
X82383239Y-59650381D01*
X82478477Y-59698000D01*
X82526096Y-59745619D01*
X82573715Y-59840857D01*
X82573715Y-59888476D01*
X82526096Y-59983714D01*
X82478477Y-60031333D01*
X82383239Y-60078952D01*
X82192762Y-60078952D01*
X82097524Y-60126571D01*
X82049905Y-60174190D01*
X82002286Y-60269429D01*
X82002286Y-60459905D01*
X82049905Y-60555143D01*
X82097524Y-60602762D01*
X82192762Y-60650381D01*
X82383239Y-60650381D01*
X82478477Y-60602762D01*
X82526096Y-60555143D01*
X82573715Y-60459905D01*
X82573715Y-60269429D01*
X82526096Y-60174190D01*
X82478477Y-60126571D01*
X82383239Y-60078952D01*
X85431334Y-60650381D02*
X85098000Y-60174190D01*
X84859905Y-60650381D02*
X84859905Y-59650381D01*
X85240858Y-59650381D01*
X85336096Y-59698000D01*
X85383715Y-59745619D01*
X85431334Y-59840857D01*
X85431334Y-59983714D01*
X85383715Y-60078952D01*
X85336096Y-60126571D01*
X85240858Y-60174190D01*
X84859905Y-60174190D01*
X85907524Y-60650381D02*
X86098000Y-60650381D01*
X86193239Y-60602762D01*
X86240858Y-60555143D01*
X86336096Y-60412286D01*
X86383715Y-60221810D01*
X86383715Y-59840857D01*
X86336096Y-59745619D01*
X86288477Y-59698000D01*
X86193239Y-59650381D01*
X86002762Y-59650381D01*
X85907524Y-59698000D01*
X85859905Y-59745619D01*
X85812286Y-59840857D01*
X85812286Y-60078952D01*
X85859905Y-60174190D01*
X85907524Y-60221810D01*
X86002762Y-60269429D01*
X86193239Y-60269429D01*
X86288477Y-60221810D01*
X86336096Y-60174190D01*
X86383715Y-60078952D01*
X88765143Y-60650381D02*
X88431809Y-60174190D01*
X88193714Y-60650381D02*
X88193714Y-59650381D01*
X88574667Y-59650381D01*
X88669905Y-59698000D01*
X88717524Y-59745619D01*
X88765143Y-59840857D01*
X88765143Y-59983714D01*
X88717524Y-60078952D01*
X88669905Y-60126571D01*
X88574667Y-60174190D01*
X88193714Y-60174190D01*
X89717524Y-60650381D02*
X89146095Y-60650381D01*
X89431809Y-60650381D02*
X89431809Y-59650381D01*
X89336571Y-59793238D01*
X89241333Y-59888476D01*
X89146095Y-59936095D01*
X90336571Y-59650381D02*
X90431810Y-59650381D01*
X90527048Y-59698000D01*
X90574667Y-59745619D01*
X90622286Y-59840857D01*
X90669905Y-60031333D01*
X90669905Y-60269429D01*
X90622286Y-60459905D01*
X90574667Y-60555143D01*
X90527048Y-60602762D01*
X90431810Y-60650381D01*
X90336571Y-60650381D01*
X90241333Y-60602762D01*
X90193714Y-60555143D01*
X90146095Y-60459905D01*
X90098476Y-60269429D01*
X90098476Y-60031333D01*
X90146095Y-59840857D01*
X90193714Y-59745619D01*
X90241333Y-59698000D01*
X90336571Y-59650381D01*
X32766095Y-48982381D02*
X32766095Y-49791905D01*
X32813714Y-49887143D01*
X32861333Y-49934762D01*
X32956571Y-49982381D01*
X33147048Y-49982381D01*
X33242286Y-49934762D01*
X33289905Y-49887143D01*
X33337524Y-49791905D01*
X33337524Y-48982381D01*
X34337524Y-49982381D02*
X33766095Y-49982381D01*
X34051809Y-49982381D02*
X34051809Y-48982381D01*
X33956571Y-49125238D01*
X33861333Y-49220476D01*
X33766095Y-49268095D01*
X39878095Y-56348381D02*
X39878095Y-57157905D01*
X39925714Y-57253143D01*
X39973333Y-57300762D01*
X40068571Y-57348381D01*
X40259048Y-57348381D01*
X40354286Y-57300762D01*
X40401905Y-57253143D01*
X40449524Y-57157905D01*
X40449524Y-56348381D01*
X40878095Y-56443619D02*
X40925714Y-56396000D01*
X41020952Y-56348381D01*
X41259048Y-56348381D01*
X41354286Y-56396000D01*
X41401905Y-56443619D01*
X41449524Y-56538857D01*
X41449524Y-56634095D01*
X41401905Y-56776952D01*
X40830476Y-57348381D01*
X41449524Y-57348381D01*
X68580095Y-41616381D02*
X68580095Y-42425905D01*
X68627714Y-42521143D01*
X68675333Y-42568762D01*
X68770571Y-42616381D01*
X68961048Y-42616381D01*
X69056286Y-42568762D01*
X69103905Y-42521143D01*
X69151524Y-42425905D01*
X69151524Y-41616381D01*
X69532476Y-41616381D02*
X70151524Y-41616381D01*
X69818190Y-41997333D01*
X69961048Y-41997333D01*
X70056286Y-42044952D01*
X70103905Y-42092571D01*
X70151524Y-42187810D01*
X70151524Y-42425905D01*
X70103905Y-42521143D01*
X70056286Y-42568762D01*
X69961048Y-42616381D01*
X69675333Y-42616381D01*
X69580095Y-42568762D01*
X69532476Y-42521143D01*
X96774095Y-72096381D02*
X96774095Y-72905905D01*
X96821714Y-73001143D01*
X96869333Y-73048762D01*
X96964571Y-73096381D01*
X97155048Y-73096381D01*
X97250286Y-73048762D01*
X97297905Y-73001143D01*
X97345524Y-72905905D01*
X97345524Y-72096381D01*
X98250286Y-72429714D02*
X98250286Y-73096381D01*
X98012190Y-72048762D02*
X97774095Y-72763048D01*
X98393143Y-72763048D01*
X88138095Y-55332381D02*
X88138095Y-56141905D01*
X88185714Y-56237143D01*
X88233333Y-56284762D01*
X88328571Y-56332381D01*
X88519048Y-56332381D01*
X88614286Y-56284762D01*
X88661905Y-56237143D01*
X88709524Y-56141905D01*
X88709524Y-55332381D01*
X89661905Y-55332381D02*
X89185714Y-55332381D01*
X89138095Y-55808571D01*
X89185714Y-55760952D01*
X89280952Y-55713333D01*
X89519048Y-55713333D01*
X89614286Y-55760952D01*
X89661905Y-55808571D01*
X89709524Y-55903810D01*
X89709524Y-56141905D01*
X89661905Y-56237143D01*
X89614286Y-56284762D01*
X89519048Y-56332381D01*
X89280952Y-56332381D01*
X89185714Y-56284762D01*
X89138095Y-56237143D01*
X49307809Y-48490190D02*
X49307809Y-48966381D01*
X48974476Y-47966381D02*
X49307809Y-48490190D01*
X49641143Y-47966381D01*
X50498286Y-48966381D02*
X49926857Y-48966381D01*
X50212571Y-48966381D02*
X50212571Y-47966381D01*
X50117333Y-48109238D01*
X50022095Y-48204476D01*
X49926857Y-48252095D01*
X79279809Y-44680190D02*
X79279809Y-45156381D01*
X78946476Y-44156381D02*
X79279809Y-44680190D01*
X79613143Y-44156381D01*
X79898857Y-44251619D02*
X79946476Y-44204000D01*
X80041714Y-44156381D01*
X80279810Y-44156381D01*
X80375048Y-44204000D01*
X80422667Y-44251619D01*
X80470286Y-44346857D01*
X80470286Y-44442095D01*
X80422667Y-44584952D01*
X79851238Y-45156381D01*
X80470286Y-45156381D01*
X71572381Y-72778857D02*
X71096190Y-73112191D01*
X71572381Y-73350286D02*
X70572381Y-73350286D01*
X70572381Y-72969333D01*
X70620000Y-72874095D01*
X70667619Y-72826476D01*
X70762857Y-72778857D01*
X70905714Y-72778857D01*
X71000952Y-72826476D01*
X71048571Y-72874095D01*
X71096190Y-72969333D01*
X71096190Y-73350286D01*
X71572381Y-71826476D02*
X71572381Y-72397905D01*
X71572381Y-72112191D02*
X70572381Y-72112191D01*
X70715238Y-72207429D01*
X70810476Y-72302667D01*
X70858095Y-72397905D01*
X71572381Y-70874095D02*
X71572381Y-71445524D01*
X71572381Y-71159810D02*
X70572381Y-71159810D01*
X70715238Y-71255048D01*
X70810476Y-71350286D01*
X70858095Y-71445524D01*
X77668381Y-72778857D02*
X77192190Y-73112191D01*
X77668381Y-73350286D02*
X76668381Y-73350286D01*
X76668381Y-72969333D01*
X76716000Y-72874095D01*
X76763619Y-72826476D01*
X76858857Y-72778857D01*
X77001714Y-72778857D01*
X77096952Y-72826476D01*
X77144571Y-72874095D01*
X77192190Y-72969333D01*
X77192190Y-73350286D01*
X77668381Y-71826476D02*
X77668381Y-72397905D01*
X77668381Y-72112191D02*
X76668381Y-72112191D01*
X76811238Y-72207429D01*
X76906476Y-72302667D01*
X76954095Y-72397905D01*
X76763619Y-71445524D02*
X76716000Y-71397905D01*
X76668381Y-71302667D01*
X76668381Y-71064571D01*
X76716000Y-70969333D01*
X76763619Y-70921714D01*
X76858857Y-70874095D01*
X76954095Y-70874095D01*
X77096952Y-70921714D01*
X77668381Y-71493143D01*
X77668381Y-70874095D01*
M02*
