G04 #@! TF.FileFunction,Soldermask,Bot*
%FSLAX46Y46*%
G04 Gerber Fmt 4.6, Leading zero omitted, Abs format (unit mm)*
G04 Created by KiCad (PCBNEW 4.0.6) date 06/21/17 15:37:43*
%MOMM*%
%LPD*%
G01*
G04 APERTURE LIST*
%ADD10C,0.100000*%
%ADD11C,3.399740*%
%ADD12R,3.397200X3.397200*%
%ADD13R,2.200000X2.200000*%
%ADD14C,2.200000*%
%ADD15R,1.600000X1.600000*%
%ADD16C,1.600000*%
%ADD17R,1.700480X1.898600*%
%ADD18R,1.898600X1.700480*%
%ADD19O,4.400500X2.398980*%
%ADD20O,2.398980X4.400500*%
%ADD21O,2.398980X4.900880*%
%ADD22C,2.900000*%
%ADD23R,1.924000X2.398980*%
%ADD24O,1.924000X2.398980*%
%ADD25C,2.899360*%
%ADD26C,3.148280*%
%ADD27O,1.901140X2.599640*%
%ADD28C,1.924000*%
%ADD29O,0.900000X0.900000*%
%ADD30R,2.398980X1.924000*%
%ADD31O,2.398980X1.924000*%
G04 APERTURE END LIST*
D10*
D11*
X49580800Y-33020000D03*
D12*
X70078600Y-33020000D03*
D13*
X29932000Y-42164000D03*
D14*
X24932000Y-42164000D03*
D15*
X55638000Y-71628000D03*
D16*
X57138000Y-71628000D03*
D17*
X59880500Y-63500000D03*
X57975500Y-63500000D03*
X57213500Y-53086000D03*
X59118500Y-53086000D03*
D13*
X38608000Y-47724000D03*
D14*
X38608000Y-44224000D03*
D17*
X50101500Y-53086000D03*
X52006500Y-53086000D03*
D18*
X88392000Y-51625500D03*
X88392000Y-53530500D03*
D19*
X31186120Y-34002980D03*
D20*
X27934920Y-28702000D03*
D21*
X33936940Y-28702000D03*
D22*
X83098000Y-69088000D03*
X88098000Y-69088000D03*
D23*
X95758000Y-59176920D03*
D24*
X95758000Y-56139080D03*
X98298000Y-59176920D03*
X98298000Y-56139080D03*
X100838000Y-59176920D03*
X100838000Y-56139080D03*
D25*
X31750000Y-54610000D03*
X27940000Y-54610000D03*
X24130000Y-54610000D03*
D26*
X27940000Y-51061620D03*
D27*
X75438000Y-59690000D03*
X72898000Y-59690000D03*
X70358000Y-59690000D03*
X67818000Y-59690000D03*
X65278000Y-59690000D03*
X62738000Y-59690000D03*
X60198000Y-59690000D03*
X57658000Y-59690000D03*
X55118000Y-59690000D03*
X52578000Y-59690000D03*
X50038000Y-59690000D03*
X47498000Y-59690000D03*
X44958000Y-59690000D03*
X42418000Y-59690000D03*
X42418000Y-67310000D03*
X44958000Y-67310000D03*
X47498000Y-67310000D03*
X50038000Y-67310000D03*
X52578000Y-67310000D03*
X55118000Y-67310000D03*
X57658000Y-67310000D03*
X60198000Y-67310000D03*
X62738000Y-67310000D03*
X65278000Y-67310000D03*
X67818000Y-67310000D03*
X70358000Y-67310000D03*
X72898000Y-67310000D03*
X75438000Y-67310000D03*
D28*
X95036000Y-64610000D03*
X97536000Y-64610000D03*
X100036000Y-64610000D03*
X95036000Y-70010000D03*
X97536000Y-70010000D03*
X100036000Y-70010000D03*
D29*
X74808000Y-47086000D03*
X74808000Y-46386000D03*
D30*
X108648920Y-25535000D03*
D31*
X105611080Y-25535000D03*
X108648920Y-28075000D03*
X105611080Y-28075000D03*
X108648920Y-30615000D03*
X105611080Y-30615000D03*
X108648920Y-33155000D03*
X105611080Y-33155000D03*
X108648920Y-35695000D03*
X105611080Y-35695000D03*
X108648920Y-38235000D03*
X105611080Y-38235000D03*
X108648920Y-40775000D03*
X105611080Y-40775000D03*
X108648920Y-43315000D03*
X105611080Y-43315000D03*
X108648920Y-45855000D03*
X105611080Y-45855000D03*
X108648920Y-48395000D03*
X105611080Y-48395000D03*
X108648920Y-50935000D03*
X105611080Y-50935000D03*
X108648920Y-53475000D03*
X105611080Y-53475000D03*
X108648920Y-56015000D03*
X105611080Y-56015000D03*
X108648920Y-58555000D03*
X105611080Y-58555000D03*
X108648920Y-61095000D03*
X105611080Y-61095000D03*
X108648920Y-63635000D03*
X105611080Y-63635000D03*
X108648920Y-66175000D03*
X105611080Y-66175000D03*
X108648920Y-68715000D03*
X105611080Y-68715000D03*
M02*
