G04 #@! TF.FileFunction,Paste,Top*
%FSLAX46Y46*%
G04 Gerber Fmt 4.6, Leading zero omitted, Abs format (unit mm)*
G04 Created by KiCad (PCBNEW 4.0.6) date 06/21/17 15:37:43*
%MOMM*%
%LPD*%
G01*
G04 APERTURE LIST*
%ADD10C,0.100000*%
%ADD11R,1.300480X1.498600*%
%ADD12R,1.699260X2.100580*%
%ADD13R,1.198880X1.198880*%
%ADD14R,0.599440X1.000760*%
%ADD15R,1.498600X1.300480*%
%ADD16R,1.998980X0.599440*%
%ADD17R,5.499100X1.998980*%
%ADD18R,2.000000X2.000000*%
G04 APERTURE END LIST*
D10*
D11*
X31686500Y-59182000D03*
X29781500Y-59182000D03*
X24193500Y-59182000D03*
X26098500Y-59182000D03*
X68389500Y-49530000D03*
X70294500Y-49530000D03*
X102552500Y-25400000D03*
X100647500Y-25400000D03*
D12*
X36576000Y-37797740D03*
X36576000Y-34338260D03*
D13*
X27178000Y-65565020D03*
X27178000Y-63466980D03*
X86901020Y-57912000D03*
X84802980Y-57912000D03*
X86901020Y-47752000D03*
X84802980Y-47752000D03*
D14*
X75501500Y-54142640D03*
X76454000Y-52029360D03*
X77406500Y-54142640D03*
D15*
X24130000Y-65468500D03*
X24130000Y-63563500D03*
X70358000Y-53657500D03*
X70358000Y-55562500D03*
D11*
X76390500Y-49784000D03*
X74485500Y-49784000D03*
D15*
X72898000Y-53657500D03*
X72898000Y-55562500D03*
D11*
X75501500Y-56388000D03*
X77406500Y-56388000D03*
X89471500Y-57912000D03*
X91376500Y-57912000D03*
X89471500Y-47752000D03*
X91376500Y-47752000D03*
X82740500Y-61976000D03*
X80835500Y-61976000D03*
X86550500Y-61976000D03*
X84645500Y-61976000D03*
X90360500Y-61976000D03*
X88455500Y-61976000D03*
D16*
X72136000Y-47371000D03*
X72136000Y-46101000D03*
X72136000Y-44831000D03*
X72136000Y-43561000D03*
X66548000Y-43561000D03*
X66548000Y-44831000D03*
X66548000Y-46101000D03*
X66548000Y-47371000D03*
X83058000Y-50673000D03*
X83058000Y-51943000D03*
X83058000Y-53213000D03*
X83058000Y-54483000D03*
X88646000Y-54483000D03*
X88646000Y-53213000D03*
X88646000Y-51943000D03*
X88646000Y-50673000D03*
D17*
X59359800Y-53086000D03*
X49860200Y-53086000D03*
D18*
X81278000Y-46736000D03*
D15*
X72898000Y-71183500D03*
X72898000Y-73088500D03*
X75438000Y-71183500D03*
X75438000Y-73088500D03*
M02*
